<?xml version="1.0"?>
<Project_Data Version="8.00">
<Project_Settings>
<ProfileName></ProfileName>
<ProjectWidth>1280</ProjectWidth>
<ProjectHeight>720</ProjectHeight>
<IsCustomProject>1</IsCustomProject>
<SavedProjectSettings>1</SavedProjectSettings>
<LastFlashTemplate>-1</LastFlashTemplate>
</Project_Settings>


<AutoSaveFile>C:\Users\laj30\AppData\Local\TechSmith\Camtasia Studio\8.0\Auto-Saves\Angular Momentor Teaser8cabcc24.autosave.camproj</AutoSaveFile>

<ProjectID>B0385D6A-3335-4310-807F-4F61555AB2BA</ProjectID>

<PowerPointProject>0</PowerPointProject>

<PowerPointFilename></PowerPointFilename>


<Project_Notes>
</Project_Notes>

<Project_MetaData>
<Project_MetaData_Object>
<FieldArrayKey>8</FieldArrayKey>
<Value>Angular Momentor Teaser</Value>
</Project_MetaData_Object>
<Project_MetaData_Object>
<FieldArrayKey>13</FieldArrayKey>
<Value>2015-09-09 05:07:00 PM</Value>
</Project_MetaData_Object>
<Project_MetaData_Object>
<FieldArrayKey>16</FieldArrayKey>
<Value>ENU</Value>
</Project_MetaData_Object>
</Project_MetaData>

<CSMLData>
<GoProject id="1" version="3.0" >
 <Project id="2" editRate="30/1" version="3.0" >
  <Author></Author>
  <Comment></Comment>
  <System></System>
  <SourceBin id="3"  >
    <Source id="4" src="C:\Program Files\Fraps\Movies\Angular Momentor Win 2015-09-09 14-47-28-09.avi" lastMod="20150909T134736" rect="(0,0,1920,1200)" >
      <SourceTrack range="(0,83000000)" type="0" editRate="10000000/1" trackRect="(0,0,1920,1200)" sampleRate="50/1" bitDepth="24" numChannels="0" filename="" metaData="" />
      <SourceTrack range="(0,83000000)" type="2" editRate="10000000/1" trackRect="(0,0,0,0)" sampleRate="44100/1" bitDepth="16" numChannels="2" filename="" metaData="" />
    </Source>
    <Source id="5" src="C:\Program Files\Fraps\Movies\Angular Momentor Win 2015-09-09 14-49-36-60.avi" lastMod="20150909T134945" rect="(0,0,1920,1200)" >
      <SourceTrack range="(0,86666667)" type="0" editRate="10000000/1" trackRect="(0,0,1920,1200)" sampleRate="50/1" bitDepth="24" numChannels="0" filename="" metaData="" />
      <SourceTrack range="(0,86666667)" type="2" editRate="10000000/1" trackRect="(0,0,0,0)" sampleRate="44100/1" bitDepth="16" numChannels="2" filename="" metaData="" />
    </Source>
    <Source id="6" src="C:\Program Files\Fraps\Movies\Angular Momentor Win 2015-09-09 14-50-13-41.avi" lastMod="20150909T135024" rect="(0,0,1920,1200)" >
      <SourceTrack range="(0,107666667)" type="0" editRate="10000000/1" trackRect="(0,0,1920,1200)" sampleRate="50/1" bitDepth="24" numChannels="0" filename="" metaData="" />
      <SourceTrack range="(0,107666667)" type="2" editRate="10000000/1" trackRect="(0,0,0,0)" sampleRate="44100/1" bitDepth="16" numChannels="2" filename="" metaData="" />
    </Source>
    <Source id="7" src="C:\Program Files\Fraps\Movies\Angular Momentor Win 2015-09-09 14-50-32-30.avi" lastMod="20150909T135037" rect="(0,0,1920,1200)" >
      <SourceTrack range="(0,51333333)" type="0" editRate="10000000/1" trackRect="(0,0,1920,1200)" sampleRate="50/1" bitDepth="24" numChannels="0" filename="" metaData="" />
      <SourceTrack range="(0,51333333)" type="2" editRate="10000000/1" trackRect="(0,0,0,0)" sampleRate="44100/1" bitDepth="16" numChannels="2" filename="" metaData="" />
    </Source>
    <Source id="8" src="C:\Program Files\Fraps\Movies\Angular Momentor Win 2015-09-09 14-50-55-22.avi" lastMod="20150909T135124" rect="(0,0,1920,1200)" >
      <SourceTrack range="(0,288333333)" type="0" editRate="10000000/1" trackRect="(0,0,1920,1200)" sampleRate="50/1" bitDepth="24" numChannels="0" filename="" metaData="" />
      <SourceTrack range="(0,288333333)" type="2" editRate="10000000/1" trackRect="(0,0,0,0)" sampleRate="44100/1" bitDepth="16" numChannels="2" filename="" metaData="" />
    </Source>
    <Source id="9" src="C:\Program Files\Fraps\Movies\Angular Momentor Win 2015-09-09 14-51-36-01.avi" lastMod="20150909T135150" rect="(0,0,1920,1200)" >
      <SourceTrack range="(0,143333333)" type="0" editRate="10000000/1" trackRect="(0,0,1920,1200)" sampleRate="50/1" bitDepth="24" numChannels="0" filename="" metaData="" />
      <SourceTrack range="(0,143333333)" type="2" editRate="10000000/1" trackRect="(0,0,0,0)" sampleRate="44100/1" bitDepth="16" numChannels="2" filename="" metaData="" />
    </Source>
    <Source id="10" src="C:\Program Files\Fraps\Movies\Angular Momentor Win 2015-09-09 14-51-51-97.avi" lastMod="20150909T135205" rect="(0,0,1920,1200)" >
      <SourceTrack range="(0,135666667)" type="0" editRate="10000000/1" trackRect="(0,0,1920,1200)" sampleRate="50/1" bitDepth="24" numChannels="0" filename="" metaData="" />
      <SourceTrack range="(0,135666667)" type="2" editRate="10000000/1" trackRect="(0,0,0,0)" sampleRate="44100/1" bitDepth="16" numChannels="2" filename="" metaData="" />
    </Source>
    <Source id="11" src="C:\Program Files\Fraps\Movies\Angular Momentor Win 2015-09-09 15-00-12-31.avi" lastMod="20150909T140035" rect="(0,0,1920,1200)" >
      <SourceTrack range="(0,231666667)" type="0" editRate="10000000/1" trackRect="(0,0,1920,1200)" sampleRate="50/1" bitDepth="24" numChannels="0" filename="" metaData="" />
      <SourceTrack range="(0,231666667)" type="2" editRate="10000000/1" trackRect="(0,0,0,0)" sampleRate="44100/1" bitDepth="16" numChannels="2" filename="" metaData="" />
    </Source>
    <Source id="12" src="C:\Program Files\Fraps\Movies\Angular Momentor Win 2015-09-09 15-00-50-25.avi" lastMod="20150909T140107" rect="(0,0,1920,1200)" >
      <SourceTrack range="(0,176333333)" type="0" editRate="10000000/1" trackRect="(0,0,1920,1200)" sampleRate="50/1" bitDepth="24" numChannels="0" filename="" metaData="" />
      <SourceTrack range="(0,176333333)" type="2" editRate="10000000/1" trackRect="(0,0,0,0)" sampleRate="44100/1" bitDepth="16" numChannels="2" filename="" metaData="" />
    </Source>
    <Source id="13" src="C:\Program Files\Fraps\Movies\Angular Momentor Win 2015-09-09 15-01-10-10.avi" lastMod="20150909T140140" rect="(0,0,1920,1200)" >
      <SourceTrack range="(0,299666667)" type="0" editRate="10000000/1" trackRect="(0,0,1920,1200)" sampleRate="50/1" bitDepth="24" numChannels="0" filename="" metaData="" />
      <SourceTrack range="(0,299666667)" type="2" editRate="10000000/1" trackRect="(0,0,0,0)" sampleRate="44100/1" bitDepth="16" numChannels="2" filename="" metaData="" />
    </Source>
    <Source id="14" src="C:\Program Files\Fraps\Movies\Angular Momentor Win 2015-09-09 15-02-54-51.avi" lastMod="20150909T140323" rect="(0,0,1920,1200)" >
      <SourceTrack range="(0,289666667)" type="0" editRate="10000000/1" trackRect="(0,0,1920,1200)" sampleRate="50/1" bitDepth="24" numChannels="0" filename="" metaData="" />
      <SourceTrack range="(0,289666667)" type="2" editRate="10000000/1" trackRect="(0,0,0,0)" sampleRate="44100/1" bitDepth="16" numChannels="2" filename="" metaData="" />
    </Source>
    <Source id="15" src="C:\Program Files\Fraps\Movies\Angular Momentor Win 2015-09-09 15-03-30-92.avi" lastMod="20150909T140354" rect="(0,0,1920,1200)" >
      <SourceTrack range="(0,233666667)" type="0" editRate="10000000/1" trackRect="(0,0,1920,1200)" sampleRate="50/1" bitDepth="24" numChannels="0" filename="" metaData="" />
      <SourceTrack range="(0,233666667)" type="2" editRate="10000000/1" trackRect="(0,0,0,0)" sampleRate="44100/1" bitDepth="16" numChannels="2" filename="" metaData="" />
    </Source>
    <Source id="16" src="C:\Users\laj30\Documents\Unity Projects\Angular Momentor\Assets\Audio\Lost Frontier.mp3" lastMod="20150702T142207" rect="(0,0,0,0)" >
      <SourceTrack range="(0,2650000000)" type="2" editRate="10000000/1" trackRect="(0,0,0,0)" sampleRate="44100/1" bitDepth="0" numChannels="2" filename="" metaData="" />
    </Source>
  </SourceBin>
  <Timeline id="17"  >
   <Attributes>
    <Attribute id="18" value="1280" name="width"/>
    <Attribute id="19" value="720" name="height"/>
    <Attribute id="20" value="(0,0,0,255)" name="backgroundColor"/>
   </Attributes>
    <GenericMixer id="21"  name="Unified Mixer">
     <MetaData>
      <entry key="MixerType" val="TimelineMixer"/>
     </MetaData>
     <Tracks>
      <GenericTrack id="22"  >
       <Attributes>
        <Attribute id="23" value="" name="ident"/>
        <Attribute id="24" value="0" name="audioMuted"/>
        <Attribute id="25" value="0" name="videoHidden"/>
       </Attributes>
       <MetaData>
        <entry key="IsLocked" val="True"/>
        <entry key="WinTrackHeight" val="100.18181818181819"/>
       </MetaData>
       <Medias>
        <AMFile id="26" start="0" duration="7950" scalar="1/1" mediaStart="0/1" mediaDuration="7950/1" trackNumber="0" src="16" channelNumber="0,1" >
         <Parameters>
          <InterpolatingParam id="27" interp="linr"  time="0/1" value="1" leadInLength="0/1"  name="volume"/>
          <Parameter id="28"  name="captions"/>
         </Parameters>
         <Attributes>
          <Attribute id="29" value="" name="ident"/>
          <Attribute id="30" value="44100" name="sampleRate"/>
          <Attribute id="31" value="0" name="bitDepth"/>
          <Attribute id="32" value="1" name="gain"/>
          <Attribute id="33" value="0" name="mixToMono"/>
         </Attributes>
         <MetaData>
          <entry key="WinSubProjectDisplayName" val=""/>
         </MetaData>
        </AMFile>
       </Medias>
      </GenericTrack>
      <GenericTrack id="34"  >
       <Attributes>
        <Attribute id="35" value="" name="ident"/>
        <Attribute id="36" value="0" name="audioMuted"/>
        <Attribute id="37" value="0" name="videoHidden"/>
       </Attributes>
       <MetaData>
        <entry key="IsLocked" val="False"/>
        <entry key="WinTrackHeight" val="100.18181818181819"/>
       </MetaData>
       <Medias>
        <UnifiedMedia id="38"  >
         <AMFile id="39" start="146" duration="249" scalar="1/1" mediaStart="0/1" mediaDuration="249/1" trackNumber="1" src="4" channelNumber="0,1" >
          <Parameters>
           <InterpolatingParam id="40" interp="linr"  name="volume">
            <Keyframes>
            <Keyframe id="41"  time="0/1" value="0" leadInLength="0/1"  />
            <Keyframe id="42"  time="54/1" value="0" leadInLength="0/1"  />
            <Keyframe id="43"  time="56/1" value="0.99841510249469534" leadInLength="0/1"  />
            <Keyframe id="44"  time="60/1" value="0.99841510249469534" leadInLength="0/1"  />
            <Keyframe id="45"  time="64/1" value="0" leadInLength="0/1"  />
            <Keyframe id="46"  time="176/1" value="0" leadInLength="0/1"  />
            <Keyframe id="47"  time="178/1" value="0.99841510249469534" leadInLength="0/1"  />
            <Keyframe id="48"  time="234/1" value="0.99841510249469534" leadInLength="0/1"  />
            <Keyframe id="49"  time="249/1" value="0" leadInLength="0/1"  />
            </Keyframes>
           </InterpolatingParam>
           <Parameter id="50"  name="captions"/>
          </Parameters>
          <Attributes>
           <Attribute id="51" value="" name="ident"/>
           <Attribute id="52" value="44100" name="sampleRate"/>
           <Attribute id="53" value="16" name="bitDepth"/>
           <Attribute id="54" value="1" name="gain"/>
           <Attribute id="55" value="0" name="mixToMono"/>
          </Attributes>
         </AMFile>
         <VMFile id="56" start="146" duration="249" scalar="1/1" mediaStart="0/1" mediaDuration="249/1" trackNumber="0" src="4" >
          <Transformer>
           <VectorParam id="57"  name="translation">
            <InterpolatingParam id="58" interp="linr"  time="-9999999/1" value="0" leadInLength="0/1"  />
            <InterpolatingParam id="59" interp="linr"  time="-9999999/1" value="0" leadInLength="0/1"  />
            <InterpolatingParam id="60" interp="linr"  time="-9999999/1" value="0" leadInLength="0/1"  />
           </VectorParam>
           <VectorParam id="61"  name="rotation">
            <InterpolatingParam id="62" interp="linr"  time="-9999999/1" value="0" leadInLength="0/1"  />
            <InterpolatingParam id="63" interp="linr"  time="-9999999/1" value="0" leadInLength="0/1"  />
            <InterpolatingParam id="64" interp="linr"  time="-9999999/1" value="0" leadInLength="0/1"  />
           </VectorParam>
           <VectorParam id="65"  name="shear">
            <InterpolatingParam id="66" interp="linr"  time="-9999999/1" value="0" leadInLength="0/1"  />
            <InterpolatingParam id="67" interp="linr"  time="-9999999/1" value="0" leadInLength="0/1"  />
            <InterpolatingParam id="68" interp="linr"  time="-9999999/1" value="0" leadInLength="0/1"  />
           </VectorParam>
           <VectorParam id="69"  name="scale">
            <InterpolatingParam id="70" interp="linr"  time="-9999999/1" value="0.59999999999999998" leadInLength="0/1"  />
            <InterpolatingParam id="71" interp="linr"  time="-9999999/1" value="0.59999999999999998" leadInLength="0/1"  />
            <InterpolatingParam id="72" interp="linr"  time="-9999999/1" value="1" leadInLength="0/1"  />
           </VectorParam>
           <VectorParam id="73"  name="anchor">
            <InterpolatingParam id="74" interp="linr"  time="0/1" value="0" leadInLength="0/1"  />
            <InterpolatingParam id="75" interp="linr"  time="0/1" value="0" leadInLength="0/1"  />
            <InterpolatingParam id="76" interp="linr"  time="0/1" value="0" leadInLength="0/1"  />
           </VectorParam>
          </Transformer>
          <Parameters>
           <VectorParam id="77"  name="sourceCrop">
            <InterpolatingParam id="78" interp="linr"  time="0/1" value="0" leadInLength="0/1"  />
            <InterpolatingParam id="79" interp="linr"  time="0/1" value="0" leadInLength="0/1"  />
            <InterpolatingParam id="80" interp="linr"  time="0/1" value="0" leadInLength="0/1"  />
            <InterpolatingParam id="81" interp="linr"  time="0/1" value="0" leadInLength="0/1"  />
           </VectorParam>
           <VectorParam id="82"  name="geometryCrop">
            <InterpolatingParam id="83" interp="linr"  time="-9999999/1" value="0" leadInLength="0/1"  />
            <InterpolatingParam id="84" interp="linr"  time="-9999999/1" value="0" leadInLength="0/1"  />
            <InterpolatingParam id="85" interp="linr"  time="-9999999/1" value="0" leadInLength="0/1"  />
            <InterpolatingParam id="86" interp="linr"  time="-9999999/1" value="0" leadInLength="0/1"  />
           </VectorParam>
           <InterpolatingParam id="87" interp="linr"  time="-9999999/1" value="1" leadInLength="0/1"  name="opacity"/>
          </Parameters>
          <Attributes>
           <Attribute id="88" value="" name="ident"/>
          </Attributes>
          <ExtraData>
           <Entry key="ZoomPanBin">
            <ZoomPanBin id="89"  >
             <ZoomPanKeyframes>
              <ZoomPanKeyframe id="90" timeRangeEnd="-9999999/1" timeRangeDuration="0/1" interpolaterName="linr"  />
             </ZoomPanKeyframes>
            </ZoomPanBin>
           </Entry>
          </ExtraData>
         </VMFile>
         <MetaData>
          <entry key="WinSubProjectDisplayName" val=""/>
         </MetaData>
        </UnifiedMedia>
        <UnifiedMedia id="91"  >
         <AMFile id="92" start="395" duration="237" scalar="1/1" mediaStart="49/1" mediaDuration="237/1" trackNumber="1" src="8" channelNumber="0,1" >
          <Parameters>
           <InterpolatingParam id="93" interp="linr"  name="volume">
            <Keyframes>
            <Keyframe id="94"  time="0/1" value="1.0931129511423472" leadInLength="0/1"  />
            <Keyframe id="95"  time="49/1" value="0" leadInLength="0/1"  />
            <Keyframe id="96"  time="71/1" value="0" leadInLength="0/1"  />
            <Keyframe id="97"  time="73/1" value="0.99678905486528024" leadInLength="0/1"  />
            <Keyframe id="98"  time="78/1" value="0.99829241033955307" leadInLength="0/1"  />
            <Keyframe id="99"  time="82/1" value="0" leadInLength="0/1"  />
            <Keyframe id="100"  time="152/1" value="0" leadInLength="0/1"  />
            <Keyframe id="101"  time="153/1" value="0.99678905486528024" leadInLength="0/1"  />
            <Keyframe id="102"  time="156/1" value="0.99678905486528024" leadInLength="0/1"  />
            <Keyframe id="103"  time="157/1" value="0" leadInLength="0/1"  />
            <Keyframe id="104"  time="230/1" value="0" leadInLength="0/1"  />
            <Keyframe id="105"  time="231/1" value="0.99678905486528024" leadInLength="0/1"  />
            <Keyframe id="106"  time="236/1" value="0.99678905486528024" leadInLength="0/1"  />
            <Keyframe id="107"  time="242/1" value="0" leadInLength="0/1"  />
            <Keyframe id="108"  time="266/1" value="0" leadInLength="0/1"  />
            <Keyframe id="109"  time="269/1" value="0.998185117967332" leadInLength="0/1"  />
            <Keyframe id="110"  time="270/1" value="0.998185117967332" leadInLength="0/1"  />
            <Keyframe id="111"  time="272/1" value="0" leadInLength="0/1"  />
            </Keyframes>
           </InterpolatingParam>
           <Parameter id="112"  name="captions"/>
          </Parameters>
          <Attributes>
           <Attribute id="113" value="" name="ident"/>
           <Attribute id="114" value="44100" name="sampleRate"/>
           <Attribute id="115" value="16" name="bitDepth"/>
           <Attribute id="116" value="1" name="gain"/>
           <Attribute id="117" value="0" name="mixToMono"/>
          </Attributes>
         </AMFile>
         <VMFile id="118" start="395" duration="237" scalar="1/1" mediaStart="49/1" mediaDuration="237/1" trackNumber="0" src="8" >
          <Transformer>
           <VectorParam id="119"  name="translation">
            <InterpolatingParam id="120" interp="linr"  time="-9999999/1" value="0" leadInLength="0/1"  />
            <InterpolatingParam id="121" interp="linr"  time="-9999999/1" value="0" leadInLength="0/1"  />
            <InterpolatingParam id="122" interp="linr"  time="-9999999/1" value="0" leadInLength="0/1"  />
           </VectorParam>
           <VectorParam id="123"  name="rotation">
            <InterpolatingParam id="124" interp="linr"  time="-9999999/1" value="0" leadInLength="0/1"  />
            <InterpolatingParam id="125" interp="linr"  time="-9999999/1" value="0" leadInLength="0/1"  />
            <InterpolatingParam id="126" interp="linr"  time="-9999999/1" value="0" leadInLength="0/1"  />
           </VectorParam>
           <VectorParam id="127"  name="shear">
            <InterpolatingParam id="128" interp="linr"  time="-9999999/1" value="0" leadInLength="0/1"  />
            <InterpolatingParam id="129" interp="linr"  time="-9999999/1" value="0" leadInLength="0/1"  />
            <InterpolatingParam id="130" interp="linr"  time="-9999999/1" value="0" leadInLength="0/1"  />
           </VectorParam>
           <VectorParam id="131"  name="scale">
            <InterpolatingParam id="132" interp="linr"  time="-9999999/1" value="0.59999999999999998" leadInLength="0/1"  />
            <InterpolatingParam id="133" interp="linr"  time="-9999999/1" value="0.59999999999999998" leadInLength="0/1"  />
            <InterpolatingParam id="134" interp="linr"  time="-9999999/1" value="1" leadInLength="0/1"  />
           </VectorParam>
           <VectorParam id="135"  name="anchor">
            <InterpolatingParam id="136" interp="linr"  time="0/1" value="0" leadInLength="0/1"  />
            <InterpolatingParam id="137" interp="linr"  time="0/1" value="0" leadInLength="0/1"  />
            <InterpolatingParam id="138" interp="linr"  time="0/1" value="0" leadInLength="0/1"  />
           </VectorParam>
          </Transformer>
          <Parameters>
           <VectorParam id="139"  name="sourceCrop">
            <InterpolatingParam id="140" interp="linr"  time="0/1" value="0" leadInLength="0/1"  />
            <InterpolatingParam id="141" interp="linr"  time="0/1" value="0" leadInLength="0/1"  />
            <InterpolatingParam id="142" interp="linr"  time="0/1" value="0" leadInLength="0/1"  />
            <InterpolatingParam id="143" interp="linr"  time="0/1" value="0" leadInLength="0/1"  />
           </VectorParam>
           <VectorParam id="144"  name="geometryCrop">
            <InterpolatingParam id="145" interp="linr"  time="-9999999/1" value="0" leadInLength="0/1"  />
            <InterpolatingParam id="146" interp="linr"  time="-9999999/1" value="0" leadInLength="0/1"  />
            <InterpolatingParam id="147" interp="linr"  time="-9999999/1" value="0" leadInLength="0/1"  />
            <InterpolatingParam id="148" interp="linr"  time="-9999999/1" value="0" leadInLength="0/1"  />
           </VectorParam>
           <InterpolatingParam id="149" interp="linr"  time="-9999999/1" value="1" leadInLength="0/1"  name="opacity"/>
          </Parameters>
          <Attributes>
           <Attribute id="150" value="" name="ident"/>
          </Attributes>
          <ExtraData>
           <Entry key="ZoomPanBin">
            <ZoomPanBin id="151"  >
             <ZoomPanKeyframes>
              <ZoomPanKeyframe id="152" timeRangeEnd="-9999999/1" timeRangeDuration="0/1" interpolaterName="linr"  />
             </ZoomPanKeyframes>
            </ZoomPanBin>
           </Entry>
          </ExtraData>
         </VMFile>
         <MetaData>
          <entry key="WinSubProjectDisplayName" val=""/>
         </MetaData>
        </UnifiedMedia>
        <UnifiedMedia id="153"  >
         <AMFile id="154" start="632" duration="170" scalar="1/1" mediaStart="324/1" mediaDuration="170/1" trackNumber="1" src="14" channelNumber="0,1" >
          <Parameters>
           <InterpolatingParam id="155" interp="linr"  time="0/1" value="1" leadInLength="0/1"  name="volume"/>
           <Parameter id="156"  name="captions"/>
          </Parameters>
          <Attributes>
           <Attribute id="157" value="" name="ident"/>
           <Attribute id="158" value="44100" name="sampleRate"/>
           <Attribute id="159" value="16" name="bitDepth"/>
           <Attribute id="160" value="1" name="gain"/>
           <Attribute id="161" value="0" name="mixToMono"/>
          </Attributes>
         </AMFile>
         <VMFile id="162" start="632" duration="170" scalar="1/1" mediaStart="324/1" mediaDuration="170/1" trackNumber="0" src="14" >
          <Transformer>
           <VectorParam id="163"  name="translation">
            <InterpolatingParam id="164" interp="linr"  time="-9999999/1" value="0" leadInLength="0/1"  />
            <InterpolatingParam id="165" interp="linr"  time="-9999999/1" value="0" leadInLength="0/1"  />
            <InterpolatingParam id="166" interp="linr"  time="-9999999/1" value="0" leadInLength="0/1"  />
           </VectorParam>
           <VectorParam id="167"  name="rotation">
            <InterpolatingParam id="168" interp="linr"  time="-9999999/1" value="0" leadInLength="0/1"  />
            <InterpolatingParam id="169" interp="linr"  time="-9999999/1" value="0" leadInLength="0/1"  />
            <InterpolatingParam id="170" interp="linr"  time="-9999999/1" value="0" leadInLength="0/1"  />
           </VectorParam>
           <VectorParam id="171"  name="shear">
            <InterpolatingParam id="172" interp="linr"  time="-9999999/1" value="0" leadInLength="0/1"  />
            <InterpolatingParam id="173" interp="linr"  time="-9999999/1" value="0" leadInLength="0/1"  />
            <InterpolatingParam id="174" interp="linr"  time="-9999999/1" value="0" leadInLength="0/1"  />
           </VectorParam>
           <VectorParam id="175"  name="scale">
            <InterpolatingParam id="176" interp="linr"  time="-9999999/1" value="0.59999999999999998" leadInLength="0/1"  />
            <InterpolatingParam id="177" interp="linr"  time="-9999999/1" value="0.59999999999999998" leadInLength="0/1"  />
            <InterpolatingParam id="178" interp="linr"  time="-9999999/1" value="1" leadInLength="0/1"  />
           </VectorParam>
           <VectorParam id="179"  name="anchor">
            <InterpolatingParam id="180" interp="linr"  time="0/1" value="0" leadInLength="0/1"  />
            <InterpolatingParam id="181" interp="linr"  time="0/1" value="0" leadInLength="0/1"  />
            <InterpolatingParam id="182" interp="linr"  time="0/1" value="0" leadInLength="0/1"  />
           </VectorParam>
          </Transformer>
          <Parameters>
           <VectorParam id="183"  name="sourceCrop">
            <InterpolatingParam id="184" interp="linr"  time="0/1" value="0" leadInLength="0/1"  />
            <InterpolatingParam id="185" interp="linr"  time="0/1" value="0" leadInLength="0/1"  />
            <InterpolatingParam id="186" interp="linr"  time="0/1" value="0" leadInLength="0/1"  />
            <InterpolatingParam id="187" interp="linr"  time="0/1" value="0" leadInLength="0/1"  />
           </VectorParam>
           <VectorParam id="188"  name="geometryCrop">
            <InterpolatingParam id="189" interp="linr"  time="-9999999/1" value="0" leadInLength="0/1"  />
            <InterpolatingParam id="190" interp="linr"  time="-9999999/1" value="0" leadInLength="0/1"  />
            <InterpolatingParam id="191" interp="linr"  time="-9999999/1" value="0" leadInLength="0/1"  />
            <InterpolatingParam id="192" interp="linr"  time="-9999999/1" value="0" leadInLength="0/1"  />
           </VectorParam>
           <InterpolatingParam id="193" interp="linr"  time="-9999999/1" value="1" leadInLength="0/1"  name="opacity"/>
          </Parameters>
          <Attributes>
           <Attribute id="194" value="" name="ident"/>
          </Attributes>
          <ExtraData>
           <Entry key="ZoomPanBin">
            <ZoomPanBin id="195"  >
             <ZoomPanKeyframes>
              <ZoomPanKeyframe id="196" timeRangeEnd="-9999999/1" timeRangeDuration="0/1" interpolaterName="linr"  />
             </ZoomPanKeyframes>
            </ZoomPanBin>
           </Entry>
          </ExtraData>
         </VMFile>
         <MetaData>
          <entry key="WinSubProjectDisplayName" val=""/>
         </MetaData>
        </UnifiedMedia>
        <UnifiedMedia id="197"  >
         <AMFile id="198" start="802" duration="173" scalar="1/1" mediaStart="598/1" mediaDuration="173/1" trackNumber="1" src="8" channelNumber="0,1" >
          <Parameters>
           <InterpolatingParam id="199" interp="linr"  time="0/1" value="1" leadInLength="0/1"  name="volume"/>
           <Parameter id="200"  name="captions"/>
          </Parameters>
          <Attributes>
           <Attribute id="201" value="" name="ident"/>
           <Attribute id="202" value="44100" name="sampleRate"/>
           <Attribute id="203" value="16" name="bitDepth"/>
           <Attribute id="204" value="1" name="gain"/>
           <Attribute id="205" value="0" name="mixToMono"/>
          </Attributes>
         </AMFile>
         <VMFile id="206" start="802" duration="173" scalar="1/1" mediaStart="598/1" mediaDuration="173/1" trackNumber="0" src="8" >
          <Transformer>
           <VectorParam id="207"  name="translation">
            <InterpolatingParam id="208" interp="linr"  time="-9999999/1" value="0" leadInLength="0/1"  />
            <InterpolatingParam id="209" interp="linr"  time="-9999999/1" value="0" leadInLength="0/1"  />
            <InterpolatingParam id="210" interp="linr"  time="-9999999/1" value="0" leadInLength="0/1"  />
           </VectorParam>
           <VectorParam id="211"  name="rotation">
            <InterpolatingParam id="212" interp="linr"  time="-9999999/1" value="0" leadInLength="0/1"  />
            <InterpolatingParam id="213" interp="linr"  time="-9999999/1" value="0" leadInLength="0/1"  />
            <InterpolatingParam id="214" interp="linr"  time="-9999999/1" value="0" leadInLength="0/1"  />
           </VectorParam>
           <VectorParam id="215"  name="shear">
            <InterpolatingParam id="216" interp="linr"  time="-9999999/1" value="0" leadInLength="0/1"  />
            <InterpolatingParam id="217" interp="linr"  time="-9999999/1" value="0" leadInLength="0/1"  />
            <InterpolatingParam id="218" interp="linr"  time="-9999999/1" value="0" leadInLength="0/1"  />
           </VectorParam>
           <VectorParam id="219"  name="scale">
            <InterpolatingParam id="220" interp="linr"  time="-9999999/1" value="0.59999999999999998" leadInLength="0/1"  />
            <InterpolatingParam id="221" interp="linr"  time="-9999999/1" value="0.59999999999999998" leadInLength="0/1"  />
            <InterpolatingParam id="222" interp="linr"  time="-9999999/1" value="1" leadInLength="0/1"  />
           </VectorParam>
           <VectorParam id="223"  name="anchor">
            <InterpolatingParam id="224" interp="linr"  time="0/1" value="0" leadInLength="0/1"  />
            <InterpolatingParam id="225" interp="linr"  time="0/1" value="0" leadInLength="0/1"  />
            <InterpolatingParam id="226" interp="linr"  time="0/1" value="0" leadInLength="0/1"  />
           </VectorParam>
          </Transformer>
          <Parameters>
           <VectorParam id="227"  name="sourceCrop">
            <InterpolatingParam id="228" interp="linr"  time="0/1" value="0" leadInLength="0/1"  />
            <InterpolatingParam id="229" interp="linr"  time="0/1" value="0" leadInLength="0/1"  />
            <InterpolatingParam id="230" interp="linr"  time="0/1" value="0" leadInLength="0/1"  />
            <InterpolatingParam id="231" interp="linr"  time="0/1" value="0" leadInLength="0/1"  />
           </VectorParam>
           <VectorParam id="232"  name="geometryCrop">
            <InterpolatingParam id="233" interp="linr"  time="-9999999/1" value="0" leadInLength="0/1"  />
            <InterpolatingParam id="234" interp="linr"  time="-9999999/1" value="0" leadInLength="0/1"  />
            <InterpolatingParam id="235" interp="linr"  time="-9999999/1" value="0" leadInLength="0/1"  />
            <InterpolatingParam id="236" interp="linr"  time="-9999999/1" value="0" leadInLength="0/1"  />
           </VectorParam>
           <InterpolatingParam id="237" interp="linr"  time="-9999999/1" value="1" leadInLength="0/1"  name="opacity"/>
          </Parameters>
          <Attributes>
           <Attribute id="238" value="" name="ident"/>
          </Attributes>
          <ExtraData>
           <Entry key="ZoomPanBin">
            <ZoomPanBin id="239"  >
             <ZoomPanKeyframes>
              <ZoomPanKeyframe id="240" timeRangeEnd="-9999999/1" timeRangeDuration="0/1" interpolaterName="linr"  />
             </ZoomPanKeyframes>
            </ZoomPanBin>
           </Entry>
          </ExtraData>
         </VMFile>
         <MetaData>
          <entry key="WinSubProjectDisplayName" val=""/>
         </MetaData>
        </UnifiedMedia>
        <UnifiedMedia id="241"  >
         <AMFile id="242" start="975" duration="164" scalar="1/1" mediaStart="357/1" mediaDuration="164/1" trackNumber="1" src="15" channelNumber="0,1" >
          <Parameters>
           <InterpolatingParam id="243" interp="linr"  time="0/1" value="1" leadInLength="0/1"  name="volume"/>
           <Parameter id="244"  name="captions"/>
          </Parameters>
          <Attributes>
           <Attribute id="245" value="" name="ident"/>
           <Attribute id="246" value="44100" name="sampleRate"/>
           <Attribute id="247" value="16" name="bitDepth"/>
           <Attribute id="248" value="1" name="gain"/>
           <Attribute id="249" value="0" name="mixToMono"/>
          </Attributes>
         </AMFile>
         <VMFile id="250" start="975" duration="164" scalar="1/1" mediaStart="357/1" mediaDuration="164/1" trackNumber="0" src="15" >
          <Transformer>
           <VectorParam id="251"  name="translation">
            <InterpolatingParam id="252" interp="linr"  time="-9999999/1" value="0" leadInLength="0/1"  />
            <InterpolatingParam id="253" interp="linr"  time="-9999999/1" value="0" leadInLength="0/1"  />
            <InterpolatingParam id="254" interp="linr"  time="-9999999/1" value="0" leadInLength="0/1"  />
           </VectorParam>
           <VectorParam id="255"  name="rotation">
            <InterpolatingParam id="256" interp="linr"  time="-9999999/1" value="0" leadInLength="0/1"  />
            <InterpolatingParam id="257" interp="linr"  time="-9999999/1" value="0" leadInLength="0/1"  />
            <InterpolatingParam id="258" interp="linr"  time="-9999999/1" value="0" leadInLength="0/1"  />
           </VectorParam>
           <VectorParam id="259"  name="shear">
            <InterpolatingParam id="260" interp="linr"  time="-9999999/1" value="0" leadInLength="0/1"  />
            <InterpolatingParam id="261" interp="linr"  time="-9999999/1" value="0" leadInLength="0/1"  />
            <InterpolatingParam id="262" interp="linr"  time="-9999999/1" value="0" leadInLength="0/1"  />
           </VectorParam>
           <VectorParam id="263"  name="scale">
            <InterpolatingParam id="264" interp="linr"  time="-9999999/1" value="0.59999999999999998" leadInLength="0/1"  />
            <InterpolatingParam id="265" interp="linr"  time="-9999999/1" value="0.59999999999999998" leadInLength="0/1"  />
            <InterpolatingParam id="266" interp="linr"  time="-9999999/1" value="1" leadInLength="0/1"  />
           </VectorParam>
           <VectorParam id="267"  name="anchor">
            <InterpolatingParam id="268" interp="linr"  time="0/1" value="0" leadInLength="0/1"  />
            <InterpolatingParam id="269" interp="linr"  time="0/1" value="0" leadInLength="0/1"  />
            <InterpolatingParam id="270" interp="linr"  time="0/1" value="0" leadInLength="0/1"  />
           </VectorParam>
          </Transformer>
          <Parameters>
           <VectorParam id="271"  name="sourceCrop">
            <InterpolatingParam id="272" interp="linr"  time="0/1" value="0" leadInLength="0/1"  />
            <InterpolatingParam id="273" interp="linr"  time="0/1" value="0" leadInLength="0/1"  />
            <InterpolatingParam id="274" interp="linr"  time="0/1" value="0" leadInLength="0/1"  />
            <InterpolatingParam id="275" interp="linr"  time="0/1" value="0" leadInLength="0/1"  />
           </VectorParam>
           <VectorParam id="276"  name="geometryCrop">
            <InterpolatingParam id="277" interp="linr"  time="-9999999/1" value="0" leadInLength="0/1"  />
            <InterpolatingParam id="278" interp="linr"  time="-9999999/1" value="0" leadInLength="0/1"  />
            <InterpolatingParam id="279" interp="linr"  time="-9999999/1" value="0" leadInLength="0/1"  />
            <InterpolatingParam id="280" interp="linr"  time="-9999999/1" value="0" leadInLength="0/1"  />
           </VectorParam>
           <InterpolatingParam id="281" interp="linr"  time="-9999999/1" value="1" leadInLength="0/1"  name="opacity"/>
          </Parameters>
          <Attributes>
           <Attribute id="282" value="" name="ident"/>
          </Attributes>
          <ExtraData>
           <Entry key="ZoomPanBin">
            <ZoomPanBin id="283"  >
             <ZoomPanKeyframes>
              <ZoomPanKeyframe id="284" timeRangeEnd="-9999999/1" timeRangeDuration="0/1" interpolaterName="linr"  />
             </ZoomPanKeyframes>
            </ZoomPanBin>
           </Entry>
          </ExtraData>
         </VMFile>
         <MetaData>
          <entry key="WinSubProjectDisplayName" val=""/>
         </MetaData>
        </UnifiedMedia>
        <UnifiedMedia id="285"  >
         <AudioTransition id="286" start="1139" duration="180" >
          <Parameters>
           <InterpolatingParam id="287" interp="linr"  time="0/1" value="1" leadInLength="0/1"  name="volume"/>
           <Parameter id="288"  name="captions"/>
          </Parameters>
          <Effects>
           <GenericEffect id="289" name = "AudioTransition" >
            <Parameters>
            <Parameter id="290"   name="audioEdgeModType">
             <Keyframes>
             <Keyframe id="291"  time="0/1" value="0" leadInLength="0/1"  />
             </Keyframes>
            </Parameter>
            <Parameter id="292"   name="audioTransitionType">
             <Keyframes>
             <Keyframe id="293"  time="0/1" value="" leadInLength="0/1"  />
             </Keyframes>
            </Parameter>
            </Parameters>
            <MetaData>
            </MetaData>
           </GenericEffect>
          </Effects>
          <Attributes>
           <Attribute id="294" value="" name="ident"/>
           <Attribute id="295" value="0" name="sampleRate"/>
           <Attribute id="296" value="0" name="bitDepth"/>
           <Attribute id="297" value="1" name="gain"/>
           <Attribute id="298" value="0" name="mixToMono"/>
          </Attributes>
         </AudioTransition>
         <ImageTransition id="299" start="1139" duration="180" >
          <Transformer>
           <VectorParam id="300"  name="translation">
            <InterpolatingParam id="301" interp="linr"  time="0/1" value="0" leadInLength="0/1"  />
            <InterpolatingParam id="302" interp="linr"  time="0/1" value="0" leadInLength="0/1"  />
            <InterpolatingParam id="303" interp="linr"  time="0/1" value="0" leadInLength="0/1"  />
           </VectorParam>
           <VectorParam id="304"  name="rotation">
            <InterpolatingParam id="305" interp="linr"  time="0/1" value="0" leadInLength="0/1"  />
            <InterpolatingParam id="306" interp="linr"  time="0/1" value="0" leadInLength="0/1"  />
            <InterpolatingParam id="307" interp="linr"  time="0/1" value="0" leadInLength="0/1"  />
           </VectorParam>
           <VectorParam id="308"  name="shear">
            <InterpolatingParam id="309" interp="linr"  time="0/1" value="0" leadInLength="0/1"  />
            <InterpolatingParam id="310" interp="linr"  time="0/1" value="0" leadInLength="0/1"  />
            <InterpolatingParam id="311" interp="linr"  time="0/1" value="0" leadInLength="0/1"  />
           </VectorParam>
           <VectorParam id="312"  name="scale">
            <InterpolatingParam id="313" interp="linr"  time="0/1" value="1" leadInLength="0/1"  />
            <InterpolatingParam id="314" interp="linr"  time="0/1" value="1" leadInLength="0/1"  />
            <InterpolatingParam id="315" interp="linr"  time="0/1" value="1" leadInLength="0/1"  />
           </VectorParam>
           <VectorParam id="316"  name="anchor">
            <InterpolatingParam id="317" interp="linr"  time="0/1" value="0" leadInLength="0/1"  />
            <InterpolatingParam id="318" interp="linr"  time="0/1" value="0" leadInLength="0/1"  />
            <InterpolatingParam id="319" interp="linr"  time="0/1" value="0" leadInLength="0/1"  />
           </VectorParam>
          </Transformer>
          <Parameters>
           <VectorParam id="320"  name="sourceCrop">
            <InterpolatingParam id="321" interp="linr"  time="0/1" value="0" leadInLength="0/1"  />
            <InterpolatingParam id="322" interp="linr"  time="0/1" value="0" leadInLength="0/1"  />
            <InterpolatingParam id="323" interp="linr"  time="0/1" value="0" leadInLength="0/1"  />
            <InterpolatingParam id="324" interp="linr"  time="0/1" value="0" leadInLength="0/1"  />
           </VectorParam>
           <VectorParam id="325"  name="geometryCrop">
            <InterpolatingParam id="326" interp="linr"  time="0/1" value="0" leadInLength="0/1"  />
            <InterpolatingParam id="327" interp="linr"  time="0/1" value="0" leadInLength="0/1"  />
            <InterpolatingParam id="328" interp="linr"  time="0/1" value="0" leadInLength="0/1"  />
            <InterpolatingParam id="329" interp="linr"  time="0/1" value="0" leadInLength="0/1"  />
           </VectorParam>
           <InterpolatingParam id="330" interp="linr"  time="0/1" value="1" leadInLength="0/1"  name="opacity"/>
          </Parameters>
          <Effects>
           <GenericEffect id="331" name = "VisualTransition" >
            <Parameters>
            <InterpolatingParam id="332" interp="linr"  time="0/1" value="0.5" leadInLength="0/1"   name="leftFramePercentage"/>
            <InterpolatingParam id="333" interp="linr"  time="0/1" value="0.5" leadInLength="0/1"   name="rightFramePercentage"/>
            <Parameter id="334"   name="visualEdgeModType">
             <Keyframes>
             <Keyframe id="335"  time="0/1" value="2" leadInLength="0/1"  />
             </Keyframes>
            </Parameter>
            <Parameter id="336"   name="visualTransitionType">
             <Keyframes>
             <Keyframe id="337"  time="0/1" value="Fade" leadInLength="0/1"  />
             </Keyframes>
            </Parameter>
            </Parameters>
            <MetaData>
            </MetaData>
           </GenericEffect>
          </Effects>
          <Attributes>
           <Attribute id="338" value="" name="ident"/>
          </Attributes>
          <ExtraData>
           <Entry key="ZoomPanBin">
            <ZoomPanBin id="339"  >
             <ZoomPanKeyframes>
             </ZoomPanKeyframes>
            </ZoomPanBin>
           </Entry>
          </ExtraData>
         </ImageTransition>
         <MetaData>
          <entry key="WinSubProjectDisplayName" val=""/>
         </MetaData>
        </UnifiedMedia>
       </Medias>
      </GenericTrack>
      <GenericTrack id="340"  >
       <Attributes>
        <Attribute id="341" value="" name="ident"/>
        <Attribute id="342" value="0" name="audioMuted"/>
        <Attribute id="343" value="0" name="videoHidden"/>
       </Attributes>
       <MetaData>
        <entry key="IsLocked" val="False"/>
        <entry key="WinTrackHeight" val="100.18181818181819"/>
       </MetaData>
       <Medias>
        <Callout id="344" start="0" duration="146" scalar="1/1" mediaStart="150/1" mediaDuration="146/1" >
         <Transformer>
          <VectorParam id="345"  name="translation">
           <InterpolatingParam id="346" interp="linr"  time="-9999999/1" value="-5.3887561080045998e-011" leadInLength="0/1"  />
           <InterpolatingParam id="347" interp="linr"  time="-9999999/1" value="7.6795458880951628e-011" leadInLength="0/1"  />
           <InterpolatingParam id="348" interp="linr"  time="-9999999/1" value="0" leadInLength="0/1"  />
          </VectorParam>
          <VectorParam id="349"  name="rotation">
           <InterpolatingParam id="350" interp="linr"  time="-9999999/1" value="0" leadInLength="0/1"  />
           <InterpolatingParam id="351" interp="linr"  time="-9999999/1" value="0" leadInLength="0/1"  />
           <InterpolatingParam id="352" interp="linr"  time="-9999999/1" value="0" leadInLength="0/1"  />
          </VectorParam>
          <VectorParam id="353"  name="shear">
           <InterpolatingParam id="354" interp="linr"  time="-9999999/1" value="0" leadInLength="0/1"  />
           <InterpolatingParam id="355" interp="linr"  time="-9999999/1" value="0" leadInLength="0/1"  />
           <InterpolatingParam id="356" interp="linr"  time="-9999999/1" value="0" leadInLength="0/1"  />
          </VectorParam>
          <VectorParam id="357"  name="scale">
           <InterpolatingParam id="358" interp="linr"  time="-9999999/1" value="4.183006535947654" leadInLength="0/1"  />
           <InterpolatingParam id="359" interp="linr"  time="-9999999/1" value="3.1718061674007987" leadInLength="0/1"  />
           <InterpolatingParam id="360" interp="linr"  time="-9999999/1" value="1" leadInLength="0/1"  />
          </VectorParam>
          <VectorParam id="361"  name="anchor">
           <InterpolatingParam id="362" interp="linr"  time="0/1" value="0" leadInLength="0/1"  />
           <InterpolatingParam id="363" interp="linr"  time="0/1" value="0" leadInLength="0/1"  />
           <InterpolatingParam id="364" interp="linr"  time="0/1" value="0" leadInLength="0/1"  />
          </VectorParam>
         </Transformer>
         <Parameters>
          <VectorParam id="365"  name="sourceCrop">
           <InterpolatingParam id="366" interp="linr"  time="0/1" value="0" leadInLength="0/1"  />
           <InterpolatingParam id="367" interp="linr"  time="0/1" value="0" leadInLength="0/1"  />
           <InterpolatingParam id="368" interp="linr"  time="0/1" value="0" leadInLength="0/1"  />
           <InterpolatingParam id="369" interp="linr"  time="0/1" value="0" leadInLength="0/1"  />
          </VectorParam>
          <VectorParam id="370"  name="geometryCrop">
           <InterpolatingParam id="371" interp="linr"  time="-9999999/1" value="0" leadInLength="0/1"  />
           <InterpolatingParam id="372" interp="linr"  time="-9999999/1" value="0" leadInLength="0/1"  />
           <InterpolatingParam id="373" interp="linr"  time="-9999999/1" value="0" leadInLength="0/1"  />
           <InterpolatingParam id="374" interp="linr"  time="-9999999/1" value="0" leadInLength="0/1"  />
          </VectorParam>
          <InterpolatingParam id="375" interp="linr"  time="-9999999/1" value="1" leadInLength="0/1"  name="opacity"/>
         </Parameters>
         <Effects>
          <GenericEffect id="376" name = "DropShadow" >
           <Parameters>
           <InterpolatingParam id="377" interp="linr"  time="0/1" value="315" leadInLength="0/1"   name="angle"/>
           <InterpolatingParam id="378" interp="linr"  time="0/1" value="2" leadInLength="0/1"   name="blur"/>
           <Parameter id="379"   name="enabled">
            <Keyframes>
            <Keyframe id="380"  time="0/1" value="1" leadInLength="0/1"  />
            </Keyframes>
           </Parameter>
           <InterpolatingParam id="381" interp="linr"  time="0/1" value="4" leadInLength="0/1"   name="offset"/>
           <InterpolatingParam id="382" interp="linr"  time="0/1" value="0.75" leadInLength="0/1"   name="opacity"/>
           </Parameters>
          </GenericEffect>
         </Effects>
         <Attributes>
          <Attribute id="383"  name="vectorNode">
           <VectorNode id="384" kind="TypeWinXML"  >
            <DoubleParameters>
             <InterpolatingParam id="385" interp="linr"  time="0/1" value="-1" leadInLength="0/1"  name="CutoutPercentage"/>
             <InterpolatingParam id="386" interp="linr"  time="0/1" value="30" leadInLength="0/1"  name="RoundedRectRadius"/>
             <InterpolatingParam id="387" interp="linr"  time="0/1" value="5" leadInLength="0/1"  name="Style"/>
             <InterpolatingParam id="388" interp="linr"  time="0/1" value="215" leadInLength="0/1"  name="borderColorBlue"/>
             <InterpolatingParam id="389" interp="linr"  time="0/1" value="215" leadInLength="0/1"  name="borderColorGreen"/>
             <InterpolatingParam id="390" interp="linr"  time="0/1" value="215" leadInLength="0/1"  name="borderColorRed"/>
             <InterpolatingParam id="391" interp="linr"  time="0/1" value="0" leadInLength="0/1"  name="borderState"/>
             <InterpolatingParam id="392" interp="linr"  time="0/1" value="5" leadInLength="0/1"  name="borderWidth"/>
             <InterpolatingParam id="393" interp="linr"  time="0/1" value="0" leadInLength="0/1"  name="dimensionTime"/>
             <InterpolatingParam id="394" interp="linr"  time="0/1" value="224" leadInLength="0/1"  name="fillColorBlue"/>
             <InterpolatingParam id="395" interp="linr"  time="0/1" value="95" leadInLength="0/1"  name="fillColorGreen"/>
             <InterpolatingParam id="396" interp="linr"  time="0/1" value="0" leadInLength="0/1"  name="fillColorRed"/>
             <InterpolatingParam id="397" interp="linr"  time="0/1" value="0" leadInLength="0/1"  name="fillState"/>
             <InterpolatingParam id="398" interp="linr"  time="0/1" value="0" leadInLength="0/1"  name="flipOnXAxis"/>
             <InterpolatingParam id="399" interp="linr"  time="0/1" value="0" leadInLength="0/1"  name="flipOnYAxis"/>
             <InterpolatingParam id="400" interp="linr"  time="0/1" value="227" leadInLength="0/1"  name="height"/>
             <InterpolatingParam id="401" interp="linr"  time="0/1" value="0" leadInLength="0/1"  name="textDropShadow"/>
             <InterpolatingParam id="402" interp="linr"  time="0/1" value="0" leadInLength="0/1"  name="textIgnoresOpacity"/>
             <InterpolatingParam id="403" interp="linr"  time="0/1" value="0.86784140969162993" leadInLength="0/1"  name="textRectHeight"/>
             <InterpolatingParam id="404" interp="linr"  time="0/1" value="0.90196078431372551" leadInLength="0/1"  name="textRectWidth"/>
             <InterpolatingParam id="405" interp="linr"  time="0/1" value="0.049019607843137254" leadInLength="0/1"  name="textRectX"/>
             <InterpolatingParam id="406" interp="linr"  time="0/1" value="0.066079295154185022" leadInLength="0/1"  name="textRectY"/>
             <InterpolatingParam id="407" interp="linr"  time="0/1" value="0" leadInLength="0/1"  name="textVerticalAlign"/>
             <InterpolatingParam id="408" interp="linr"  time="0/1" value="306" leadInLength="0/1"  name="width"/>
            </DoubleParameters>
            <StringParameters>
             <Parameter id="409"  name="VectorPath">
              <Keyframes>
              <Keyframe id="410"  time="0/1" value="M10,0h286c5.521,0,10,4.477,10,10v207c0,5.521-4.479,10-10,10H10c-5.523,0-10-4.479-10-10V10&#xa;&#x9;C0,4.477,4.477,0,10,0z" leadInLength="0/1"  />
              </Keyframes>
             </Parameter>
             <Parameter id="411"  name="filename">
              <Keyframes>
              <Keyframe id="412"  time="0/1" value="C:\Program Files (x86)\Camtasia Studio 8\Media\Studio\Callouts\roundedrectangle.xml" leadInLength="0/1"  />
              </Keyframes>
             </Parameter>
             <Parameter id="413"  name="name">
              <Keyframes>
              <Keyframe id="414"  time="0/1" value="Filled Rounded Rectangle" leadInLength="0/1"  />
              </Keyframes>
             </Parameter>
             <Parameter id="415"  name="text">
              <Keyframes>
              <Keyframe id="416"  time="0/1" value="{\rtf1\ansi\ansicpg1252\deff0\deflang1033{\fonttbl{\f0\fswiss\fprq2\fcharset0 Arial;}}&#xD;&#xa;{\colortbl ;\red255\green255\blue255;}&#xD;&#xa;\viewkind4\uc1\pard\qc\cf1\f0\fs144 Angular Momentor\fs32\par&#xD;&#xa;\fs72 Lewis Jones\par&#xD;&#xa;\par&#xD;&#xa;\fs36 Gamers To Engineers Project\par&#xD;&#xa;http://divf.eng.cam.ac.uk/gam2eng/Main/WebHome\fs96\par&#xD;&#xa;}&#xD;&#xa;" leadInLength="0/1"  />
              </Keyframes>
             </Parameter>
             <Parameter id="417"  name="xmlContent">
              <Keyframes>
              <Keyframe id="418"  time="0/1" value="﻿&lt;?xml version=&quot;1.0&quot;?&gt;&#xa;&#xa;&lt;Overlay version=&quot;1.0.1&quot;&gt;&#xa;&#xa;&lt;Overlay_Filename&gt;roundedrectangle.png&lt;/Overlay_Filename&gt;&#xa;&lt;Overlay_Name&gt;Filled Rounded Rectangle&lt;/Overlay_Name&gt;&#xa;&lt;Text_Top&gt;15&lt;/Text_Top&gt;&#xa;&lt;Text_Left&gt;15&lt;/Text_Left&gt;&#xa;&lt;Text_Bottom&gt;15&lt;/Text_Bottom&gt;&#xa;&lt;Text_Right&gt;15&lt;/Text_Right&gt;&#xa;&lt;Fill_Color&gt;1&lt;/Fill_Color&gt;&#xa;&lt;Border_Color&gt;1&lt;/Border_Color&gt;&#xa;&lt;Initial_Fill_Color&gt;0xffe05f00&lt;/Initial_Fill_Color&gt;&#xa;&lt;Initial_Border_Color&gt;0xffd7d7d7&lt;/Initial_Border_Color&gt;&#xa;&lt;VectorProps&gt;&#xa;&lt;figure&gt;&#xa;&lt;svg&gt;M10,0h286c5.521,0,10,4.477,10,10v207c0,5.521-4.479,10-10,10H10c-5.523,0-10-4.479-10-10V10&#xa;&#x9;C0,4.477,4.477,0,10,0z&lt;/svg&gt;&#xa;&lt;/figure&gt;&#xa;&lt;borderWidth&gt;5.00&lt;/borderWidth&gt;&#xa;&lt;seamY&gt;-1&lt;/seamY&gt;&#xa;&lt;roundedRectRadius&gt;30&lt;/roundedRectRadius&gt;&#xa;&lt;shapeWidth&gt;306&lt;/shapeWidth&gt;&#xa;&lt;shapeHeight&gt;227&lt;/shapeHeight&gt;&#xa;&lt;/VectorProps&gt;&#xa;&lt;Style&gt;5&lt;/Style&gt;&#xa;&lt;/Overlay&gt;" leadInLength="0/1"  />
              </Keyframes>
             </Parameter>
            </StringParameters>
           </VectorNode>
          </Attribute>
         </Attributes>
         <MetaData>
          <entry key="WinSubProjectDisplayName" val=""/>
         </MetaData>
         <LeftEdgeMods length="0/1" groupName="OpacityFade">
          <EdgeMod parameter="375">
           <FadeInFunc id="419"  />
          </EdgeMod>
         </LeftEdgeMods>
         <RightEdgeMods length="15/1" groupName="OpacityFade">
          <EdgeMod parameter="375">
           <FadeOutFunc id="419"  />
          </EdgeMod>
         </RightEdgeMods>
         <ExtraData>
          <Entry key="ZoomPanBin">
           <ZoomPanBin id="420"  >
            <ZoomPanKeyframes>
             <ZoomPanKeyframe id="421" timeRangeEnd="-9999999/1" timeRangeDuration="0/1" interpolaterName="linr"  />
            </ZoomPanKeyframes>
           </ZoomPanBin>
          </Entry>
         </ExtraData>
        </Callout>
        <StitchedMedia id="422" start="817" duration="25" scalar="1/1" mediaStart="286/1" mediaDuration="25/1" minMediaStart="0/1" >
         <Transformer>
          <VectorParam id="423"  name="translation">
           <InterpolatingParam id="424" interp="linr"  time="-9999999/1" value="0" leadInLength="0/1"  />
           <InterpolatingParam id="425" interp="linr"  time="-9999999/1" value="0" leadInLength="0/1"  />
           <InterpolatingParam id="426" interp="linr"  time="-9999999/1" value="0" leadInLength="0/1"  />
          </VectorParam>
          <VectorParam id="427"  name="rotation">
           <InterpolatingParam id="428" interp="linr"  time="-9999999/1" value="0" leadInLength="0/1"  />
           <InterpolatingParam id="429" interp="linr"  time="-9999999/1" value="0" leadInLength="0/1"  />
           <InterpolatingParam id="430" interp="linr"  time="-9999999/1" value="0" leadInLength="0/1"  />
          </VectorParam>
          <VectorParam id="431"  name="shear">
           <InterpolatingParam id="432" interp="linr"  time="-9999999/1" value="0" leadInLength="0/1"  />
           <InterpolatingParam id="433" interp="linr"  time="-9999999/1" value="0" leadInLength="0/1"  />
           <InterpolatingParam id="434" interp="linr"  time="-9999999/1" value="0" leadInLength="0/1"  />
          </VectorParam>
          <VectorParam id="435"  name="scale">
           <InterpolatingParam id="436" interp="linr"  time="-9999999/1" value="0.59999999999999998" leadInLength="0/1"  />
           <InterpolatingParam id="437" interp="linr"  time="-9999999/1" value="0.59999999999999998" leadInLength="0/1"  />
           <InterpolatingParam id="438" interp="linr"  time="-9999999/1" value="1" leadInLength="0/1"  />
          </VectorParam>
          <VectorParam id="439"  name="anchor">
           <InterpolatingParam id="440" interp="linr"  time="0/1" value="0" leadInLength="0/1"  />
           <InterpolatingParam id="441" interp="linr"  time="0/1" value="0" leadInLength="0/1"  />
           <InterpolatingParam id="442" interp="linr"  time="0/1" value="0" leadInLength="0/1"  />
          </VectorParam>
         </Transformer>
         <Parameters>
          <VectorParam id="443"  name="sourceCrop">
           <InterpolatingParam id="444" interp="linr"  time="0/1" value="0" leadInLength="0/1"  />
           <InterpolatingParam id="445" interp="linr"  time="0/1" value="0" leadInLength="0/1"  />
           <InterpolatingParam id="446" interp="linr"  time="0/1" value="0" leadInLength="0/1"  />
           <InterpolatingParam id="447" interp="linr"  time="0/1" value="0" leadInLength="0/1"  />
          </VectorParam>
          <VectorParam id="448"  name="geometryCrop">
           <InterpolatingParam id="449" interp="linr"  time="-9999999/1" value="0" leadInLength="0/1"  />
           <InterpolatingParam id="450" interp="linr"  time="-9999999/1" value="0" leadInLength="0/1"  />
           <InterpolatingParam id="451" interp="linr"  time="-9999999/1" value="0" leadInLength="0/1"  />
           <InterpolatingParam id="452" interp="linr"  time="-9999999/1" value="0" leadInLength="0/1"  />
          </VectorParam>
          <InterpolatingParam id="453" interp="linr"  time="-9999999/1" value="1" leadInLength="0/1"  name="opacity"/>
          <InterpolatingParam id="454" interp="linr"  time="0/1" value="1" leadInLength="0/1"  name="cursorOpacity"/>
          <InterpolatingParam id="455" interp="linr"  time="0/1" value="1" leadInLength="0/1"  name="cursorScale"/>
          <InterpolatingParam id="456" interp="linr"  time="0/1" value="1" leadInLength="0/1"  name="volume"/>
          <Parameter id="457"  name="captions"/>
         </Parameters>
         <Attributes>
          <Attribute id="458" value="" name="ident"/>
          <Attribute id="459" value="0" name="mixToMono"/>
         </Attributes>
         <MetaData>
          <entry key="WinSubProjectDisplayName" val=""/>
         </MetaData>
         <ExtraData>
          <Entry key="ZoomPanBin">
           <ZoomPanBin id="460"  >
            <ZoomPanKeyframes>
             <ZoomPanKeyframe id="461" timeRangeEnd="-9999999/1" timeRangeDuration="0/1" interpolaterName=""  />
            </ZoomPanKeyframes>
           </ZoomPanBin>
          </Entry>
          <Entry key="CursorEffectBin">
           <CursorEffectBin id="462"  >
            <CursorEffectKeyframes>
            </CursorEffectKeyframes>
           </CursorEffectBin>
          </Entry>
         </ExtraData>
         <GenericTrack id="463"  >
          <Attributes>
           <Attribute id="464" value="" name="ident"/>
           <Attribute id="465" value="0" name="audioMuted"/>
           <Attribute id="466" value="0" name="videoHidden"/>
          </Attributes>
          <MetaData>
           <entry key="IsLocked" val="False"/>
           <entry key="WinTrackHeight" val="0"/>
          </MetaData>
          <Medias>
           <UnifiedMedia id="467"  >
            <AMFile id="468" start="0" duration="598" scalar="1/1" mediaStart="0/1" mediaDuration="598/1" trackNumber="1" src="8" channelNumber="0,1" >
             <Parameters>
              <InterpolatingParam id="469" interp="linr"  time="0/1" value="1" leadInLength="0/1"  name="volume"/>
              <Parameter id="470"  name="captions"/>
             </Parameters>
             <Attributes>
              <Attribute id="471" value="" name="ident"/>
              <Attribute id="472" value="44100" name="sampleRate"/>
              <Attribute id="473" value="16" name="bitDepth"/>
              <Attribute id="474" value="1" name="gain"/>
              <Attribute id="475" value="0" name="mixToMono"/>
             </Attributes>
            </AMFile>
            <VMFile id="476" start="0" duration="598" scalar="1/1" mediaStart="0/1" mediaDuration="598/1" trackNumber="0" src="8" >
             <Transformer>
              <VectorParam id="477"  name="translation">
               <InterpolatingParam id="478" interp="linr"  time="-9999999/1" value="0" leadInLength="0/1"  />
               <InterpolatingParam id="479" interp="linr"  time="-9999999/1" value="0" leadInLength="0/1"  />
               <InterpolatingParam id="480" interp="linr"  time="-9999999/1" value="0" leadInLength="0/1"  />
              </VectorParam>
              <VectorParam id="481"  name="rotation">
               <InterpolatingParam id="482" interp="linr"  time="-9999999/1" value="0" leadInLength="0/1"  />
               <InterpolatingParam id="483" interp="linr"  time="-9999999/1" value="0" leadInLength="0/1"  />
               <InterpolatingParam id="484" interp="linr"  time="-9999999/1" value="0" leadInLength="0/1"  />
              </VectorParam>
              <VectorParam id="485"  name="shear">
               <InterpolatingParam id="486" interp="linr"  time="-9999999/1" value="0" leadInLength="0/1"  />
               <InterpolatingParam id="487" interp="linr"  time="-9999999/1" value="0" leadInLength="0/1"  />
               <InterpolatingParam id="488" interp="linr"  time="-9999999/1" value="0" leadInLength="0/1"  />
              </VectorParam>
              <VectorParam id="489"  name="scale">
               <InterpolatingParam id="490" interp="linr"  time="-9999999/1" value="1" leadInLength="0/1"  />
               <InterpolatingParam id="491" interp="linr"  time="-9999999/1" value="1" leadInLength="0/1"  />
               <InterpolatingParam id="492" interp="linr"  time="-9999999/1" value="1" leadInLength="0/1"  />
              </VectorParam>
              <VectorParam id="493"  name="anchor">
               <InterpolatingParam id="494" interp="linr"  time="0/1" value="0" leadInLength="0/1"  />
               <InterpolatingParam id="495" interp="linr"  time="0/1" value="0" leadInLength="0/1"  />
               <InterpolatingParam id="496" interp="linr"  time="0/1" value="0" leadInLength="0/1"  />
              </VectorParam>
             </Transformer>
             <Parameters>
              <VectorParam id="497"  name="sourceCrop">
               <InterpolatingParam id="498" interp="linr"  time="0/1" value="0" leadInLength="0/1"  />
               <InterpolatingParam id="499" interp="linr"  time="0/1" value="0" leadInLength="0/1"  />
               <InterpolatingParam id="500" interp="linr"  time="0/1" value="0" leadInLength="0/1"  />
               <InterpolatingParam id="501" interp="linr"  time="0/1" value="0" leadInLength="0/1"  />
              </VectorParam>
              <VectorParam id="502"  name="geometryCrop">
               <InterpolatingParam id="503" interp="linr"  time="-9999999/1" value="0" leadInLength="0/1"  />
               <InterpolatingParam id="504" interp="linr"  time="-9999999/1" value="0" leadInLength="0/1"  />
               <InterpolatingParam id="505" interp="linr"  time="-9999999/1" value="0" leadInLength="0/1"  />
               <InterpolatingParam id="506" interp="linr"  time="-9999999/1" value="0" leadInLength="0/1"  />
              </VectorParam>
              <InterpolatingParam id="507" interp="linr"  time="-9999999/1" value="1" leadInLength="0/1"  name="opacity"/>
             </Parameters>
             <Attributes>
              <Attribute id="508" value="" name="ident"/>
             </Attributes>
             <ExtraData>
              <Entry key="ZoomPanBin">
               <ZoomPanBin id="509"  >
                <ZoomPanKeyframes>
                 <ZoomPanKeyframe id="510" timeRangeEnd="-9999999/1" timeRangeDuration="0/1" interpolaterName=""  />
                </ZoomPanKeyframes>
               </ZoomPanBin>
              </Entry>
             </ExtraData>
            </VMFile>
            <MetaData>
             <entry key="WinSubProjectDisplayName" val=""/>
            </MetaData>
           </UnifiedMedia>
           <UnifiedMedia id="511"  >
            <AMFile id="512" start="598" duration="93" scalar="1/1" mediaStart="771/1" mediaDuration="93/1" trackNumber="1" src="8" channelNumber="0,1" >
             <Parameters>
              <InterpolatingParam id="513" interp="linr"  time="0/1" value="1" leadInLength="0/1"  name="volume"/>
              <Parameter id="514"  name="captions"/>
             </Parameters>
             <Attributes>
              <Attribute id="515" value="" name="ident"/>
              <Attribute id="516" value="44100" name="sampleRate"/>
              <Attribute id="517" value="16" name="bitDepth"/>
              <Attribute id="518" value="1" name="gain"/>
              <Attribute id="519" value="0" name="mixToMono"/>
             </Attributes>
            </AMFile>
            <VMFile id="520" start="598" duration="93" scalar="1/1" mediaStart="771/1" mediaDuration="93/1" trackNumber="0" src="8" >
             <Transformer>
              <VectorParam id="521"  name="translation">
               <InterpolatingParam id="522" interp="linr"  time="-9999999/1" value="0" leadInLength="0/1"  />
               <InterpolatingParam id="523" interp="linr"  time="-9999999/1" value="0" leadInLength="0/1"  />
               <InterpolatingParam id="524" interp="linr"  time="-9999999/1" value="0" leadInLength="0/1"  />
              </VectorParam>
              <VectorParam id="525"  name="rotation">
               <InterpolatingParam id="526" interp="linr"  time="-9999999/1" value="0" leadInLength="0/1"  />
               <InterpolatingParam id="527" interp="linr"  time="-9999999/1" value="0" leadInLength="0/1"  />
               <InterpolatingParam id="528" interp="linr"  time="-9999999/1" value="0" leadInLength="0/1"  />
              </VectorParam>
              <VectorParam id="529"  name="shear">
               <InterpolatingParam id="530" interp="linr"  time="-9999999/1" value="0" leadInLength="0/1"  />
               <InterpolatingParam id="531" interp="linr"  time="-9999999/1" value="0" leadInLength="0/1"  />
               <InterpolatingParam id="532" interp="linr"  time="-9999999/1" value="0" leadInLength="0/1"  />
              </VectorParam>
              <VectorParam id="533"  name="scale">
               <InterpolatingParam id="534" interp="linr"  time="-9999999/1" value="1" leadInLength="0/1"  />
               <InterpolatingParam id="535" interp="linr"  time="-9999999/1" value="1" leadInLength="0/1"  />
               <InterpolatingParam id="536" interp="linr"  time="-9999999/1" value="1" leadInLength="0/1"  />
              </VectorParam>
              <VectorParam id="537"  name="anchor">
               <InterpolatingParam id="538" interp="linr"  time="0/1" value="0" leadInLength="0/1"  />
               <InterpolatingParam id="539" interp="linr"  time="0/1" value="0" leadInLength="0/1"  />
               <InterpolatingParam id="540" interp="linr"  time="0/1" value="0" leadInLength="0/1"  />
              </VectorParam>
             </Transformer>
             <Parameters>
              <VectorParam id="541"  name="sourceCrop">
               <InterpolatingParam id="542" interp="linr"  time="0/1" value="0" leadInLength="0/1"  />
               <InterpolatingParam id="543" interp="linr"  time="0/1" value="0" leadInLength="0/1"  />
               <InterpolatingParam id="544" interp="linr"  time="0/1" value="0" leadInLength="0/1"  />
               <InterpolatingParam id="545" interp="linr"  time="0/1" value="0" leadInLength="0/1"  />
              </VectorParam>
              <VectorParam id="546"  name="geometryCrop">
               <InterpolatingParam id="547" interp="linr"  time="-9999999/1" value="0" leadInLength="0/1"  />
               <InterpolatingParam id="548" interp="linr"  time="-9999999/1" value="0" leadInLength="0/1"  />
               <InterpolatingParam id="549" interp="linr"  time="-9999999/1" value="0" leadInLength="0/1"  />
               <InterpolatingParam id="550" interp="linr"  time="-9999999/1" value="0" leadInLength="0/1"  />
              </VectorParam>
              <InterpolatingParam id="551" interp="linr"  time="-9999999/1" value="1" leadInLength="0/1"  name="opacity"/>
             </Parameters>
             <Attributes>
              <Attribute id="552" value="" name="ident"/>
             </Attributes>
             <ExtraData>
              <Entry key="ZoomPanBin">
               <ZoomPanBin id="553"  >
                <ZoomPanKeyframes>
                 <ZoomPanKeyframe id="554" timeRangeEnd="-9999999/1" timeRangeDuration="0/1" interpolaterName=""  />
                </ZoomPanKeyframes>
               </ZoomPanBin>
              </Entry>
             </ExtraData>
            </VMFile>
            <MetaData>
             <entry key="WinSubProjectDisplayName" val=""/>
            </MetaData>
           </UnifiedMedia>
          </Medias>
         </GenericTrack>
        </StitchedMedia>
        <StitchedMedia id="555" start="842" duration="25" scalar="1/1" mediaStart="311/1" mediaDuration="25/1" minMediaStart="0/1" >
         <Transformer>
          <VectorParam id="556"  name="translation">
           <InterpolatingParam id="557" interp="linr"  time="-9999999/1" value="0" leadInLength="0/1"  />
           <InterpolatingParam id="558" interp="linr"  time="-9999999/1" value="0" leadInLength="0/1"  />
           <InterpolatingParam id="559" interp="linr"  time="-9999999/1" value="0" leadInLength="0/1"  />
          </VectorParam>
          <VectorParam id="560"  name="rotation">
           <InterpolatingParam id="561" interp="linr"  time="-9999999/1" value="0" leadInLength="0/1"  />
           <InterpolatingParam id="562" interp="linr"  time="-9999999/1" value="0" leadInLength="0/1"  />
           <InterpolatingParam id="563" interp="linr"  time="-9999999/1" value="0" leadInLength="0/1"  />
          </VectorParam>
          <VectorParam id="564"  name="shear">
           <InterpolatingParam id="565" interp="linr"  time="-9999999/1" value="0" leadInLength="0/1"  />
           <InterpolatingParam id="566" interp="linr"  time="-9999999/1" value="0" leadInLength="0/1"  />
           <InterpolatingParam id="567" interp="linr"  time="-9999999/1" value="0" leadInLength="0/1"  />
          </VectorParam>
          <VectorParam id="568"  name="scale">
           <InterpolatingParam id="569" interp="linr"  time="-9999999/1" value="0.59999999999999998" leadInLength="0/1"  />
           <InterpolatingParam id="570" interp="linr"  time="-9999999/1" value="0.59999999999999998" leadInLength="0/1"  />
           <InterpolatingParam id="571" interp="linr"  time="-9999999/1" value="1" leadInLength="0/1"  />
          </VectorParam>
          <VectorParam id="572"  name="anchor">
           <InterpolatingParam id="573" interp="linr"  time="0/1" value="0" leadInLength="0/1"  />
           <InterpolatingParam id="574" interp="linr"  time="0/1" value="0" leadInLength="0/1"  />
           <InterpolatingParam id="575" interp="linr"  time="0/1" value="0" leadInLength="0/1"  />
          </VectorParam>
         </Transformer>
         <Parameters>
          <VectorParam id="576"  name="sourceCrop">
           <InterpolatingParam id="577" interp="linr"  time="0/1" value="0" leadInLength="0/1"  />
           <InterpolatingParam id="578" interp="linr"  time="0/1" value="0" leadInLength="0/1"  />
           <InterpolatingParam id="579" interp="linr"  time="0/1" value="0" leadInLength="0/1"  />
           <InterpolatingParam id="580" interp="linr"  time="0/1" value="0" leadInLength="0/1"  />
          </VectorParam>
          <VectorParam id="581"  name="geometryCrop">
           <InterpolatingParam id="582" interp="linr"  time="-9999999/1" value="0" leadInLength="0/1"  />
           <InterpolatingParam id="583" interp="linr"  time="-9999999/1" value="0" leadInLength="0/1"  />
           <InterpolatingParam id="584" interp="linr"  time="-9999999/1" value="0" leadInLength="0/1"  />
           <InterpolatingParam id="585" interp="linr"  time="-9999999/1" value="0" leadInLength="0/1"  />
          </VectorParam>
          <InterpolatingParam id="586" interp="linr"  time="-9999999/1" value="1" leadInLength="0/1"  name="opacity"/>
          <InterpolatingParam id="587" interp="linr"  time="0/1" value="1" leadInLength="0/1"  name="cursorOpacity"/>
          <InterpolatingParam id="588" interp="linr"  time="0/1" value="1" leadInLength="0/1"  name="cursorScale"/>
          <InterpolatingParam id="589" interp="linr"  time="0/1" value="1" leadInLength="0/1"  name="volume"/>
          <Parameter id="590"  name="captions"/>
         </Parameters>
         <Attributes>
          <Attribute id="591" value="" name="ident"/>
          <Attribute id="592" value="0" name="mixToMono"/>
         </Attributes>
         <MetaData>
          <entry key="WinSubProjectDisplayName" val=""/>
         </MetaData>
         <ExtraData>
          <Entry key="ZoomPanBin">
           <ZoomPanBin id="593"  >
            <ZoomPanKeyframes>
             <ZoomPanKeyframe id="594" timeRangeEnd="-9999999/1" timeRangeDuration="0/1" interpolaterName=""  />
            </ZoomPanKeyframes>
           </ZoomPanBin>
          </Entry>
          <Entry key="CursorEffectBin">
           <CursorEffectBin id="595"  >
            <CursorEffectKeyframes>
            </CursorEffectKeyframes>
           </CursorEffectBin>
          </Entry>
         </ExtraData>
         <GenericTrack id="596"  >
          <Attributes>
           <Attribute id="597" value="" name="ident"/>
           <Attribute id="598" value="0" name="audioMuted"/>
           <Attribute id="599" value="0" name="videoHidden"/>
          </Attributes>
          <MetaData>
           <entry key="IsLocked" val="False"/>
           <entry key="WinTrackHeight" val="0"/>
          </MetaData>
          <Medias>
           <UnifiedMedia id="600"  >
            <AMFile id="601" start="0" duration="598" scalar="1/1" mediaStart="0/1" mediaDuration="598/1" trackNumber="1" src="8" channelNumber="0,1" >
             <Parameters>
              <InterpolatingParam id="602" interp="linr"  time="0/1" value="1" leadInLength="0/1"  name="volume"/>
              <Parameter id="603"  name="captions"/>
             </Parameters>
             <Attributes>
              <Attribute id="604" value="" name="ident"/>
              <Attribute id="605" value="44100" name="sampleRate"/>
              <Attribute id="606" value="16" name="bitDepth"/>
              <Attribute id="607" value="1" name="gain"/>
              <Attribute id="608" value="0" name="mixToMono"/>
             </Attributes>
            </AMFile>
            <VMFile id="609" start="0" duration="598" scalar="1/1" mediaStart="0/1" mediaDuration="598/1" trackNumber="0" src="8" >
             <Transformer>
              <VectorParam id="610"  name="translation">
               <InterpolatingParam id="611" interp="linr"  time="-9999999/1" value="0" leadInLength="0/1"  />
               <InterpolatingParam id="612" interp="linr"  time="-9999999/1" value="0" leadInLength="0/1"  />
               <InterpolatingParam id="613" interp="linr"  time="-9999999/1" value="0" leadInLength="0/1"  />
              </VectorParam>
              <VectorParam id="614"  name="rotation">
               <InterpolatingParam id="615" interp="linr"  time="-9999999/1" value="0" leadInLength="0/1"  />
               <InterpolatingParam id="616" interp="linr"  time="-9999999/1" value="0" leadInLength="0/1"  />
               <InterpolatingParam id="617" interp="linr"  time="-9999999/1" value="0" leadInLength="0/1"  />
              </VectorParam>
              <VectorParam id="618"  name="shear">
               <InterpolatingParam id="619" interp="linr"  time="-9999999/1" value="0" leadInLength="0/1"  />
               <InterpolatingParam id="620" interp="linr"  time="-9999999/1" value="0" leadInLength="0/1"  />
               <InterpolatingParam id="621" interp="linr"  time="-9999999/1" value="0" leadInLength="0/1"  />
              </VectorParam>
              <VectorParam id="622"  name="scale">
               <InterpolatingParam id="623" interp="linr"  time="-9999999/1" value="1" leadInLength="0/1"  />
               <InterpolatingParam id="624" interp="linr"  time="-9999999/1" value="1" leadInLength="0/1"  />
               <InterpolatingParam id="625" interp="linr"  time="-9999999/1" value="1" leadInLength="0/1"  />
              </VectorParam>
              <VectorParam id="626"  name="anchor">
               <InterpolatingParam id="627" interp="linr"  time="0/1" value="0" leadInLength="0/1"  />
               <InterpolatingParam id="628" interp="linr"  time="0/1" value="0" leadInLength="0/1"  />
               <InterpolatingParam id="629" interp="linr"  time="0/1" value="0" leadInLength="0/1"  />
              </VectorParam>
             </Transformer>
             <Parameters>
              <VectorParam id="630"  name="sourceCrop">
               <InterpolatingParam id="631" interp="linr"  time="0/1" value="0" leadInLength="0/1"  />
               <InterpolatingParam id="632" interp="linr"  time="0/1" value="0" leadInLength="0/1"  />
               <InterpolatingParam id="633" interp="linr"  time="0/1" value="0" leadInLength="0/1"  />
               <InterpolatingParam id="634" interp="linr"  time="0/1" value="0" leadInLength="0/1"  />
              </VectorParam>
              <VectorParam id="635"  name="geometryCrop">
               <InterpolatingParam id="636" interp="linr"  time="-9999999/1" value="0" leadInLength="0/1"  />
               <InterpolatingParam id="637" interp="linr"  time="-9999999/1" value="0" leadInLength="0/1"  />
               <InterpolatingParam id="638" interp="linr"  time="-9999999/1" value="0" leadInLength="0/1"  />
               <InterpolatingParam id="639" interp="linr"  time="-9999999/1" value="0" leadInLength="0/1"  />
              </VectorParam>
              <InterpolatingParam id="640" interp="linr"  time="-9999999/1" value="1" leadInLength="0/1"  name="opacity"/>
             </Parameters>
             <Attributes>
              <Attribute id="641" value="" name="ident"/>
             </Attributes>
             <ExtraData>
              <Entry key="ZoomPanBin">
               <ZoomPanBin id="642"  >
                <ZoomPanKeyframes>
                 <ZoomPanKeyframe id="643" timeRangeEnd="-9999999/1" timeRangeDuration="0/1" interpolaterName=""  />
                </ZoomPanKeyframes>
               </ZoomPanBin>
              </Entry>
             </ExtraData>
            </VMFile>
            <MetaData>
             <entry key="WinSubProjectDisplayName" val=""/>
            </MetaData>
           </UnifiedMedia>
           <UnifiedMedia id="644"  >
            <AMFile id="645" start="598" duration="93" scalar="1/1" mediaStart="771/1" mediaDuration="93/1" trackNumber="1" src="8" channelNumber="0,1" >
             <Parameters>
              <InterpolatingParam id="646" interp="linr"  time="0/1" value="1" leadInLength="0/1"  name="volume"/>
              <Parameter id="647"  name="captions"/>
             </Parameters>
             <Attributes>
              <Attribute id="648" value="" name="ident"/>
              <Attribute id="649" value="44100" name="sampleRate"/>
              <Attribute id="650" value="16" name="bitDepth"/>
              <Attribute id="651" value="1" name="gain"/>
              <Attribute id="652" value="0" name="mixToMono"/>
             </Attributes>
            </AMFile>
            <VMFile id="653" start="598" duration="93" scalar="1/1" mediaStart="771/1" mediaDuration="93/1" trackNumber="0" src="8" >
             <Transformer>
              <VectorParam id="654"  name="translation">
               <InterpolatingParam id="655" interp="linr"  time="-9999999/1" value="0" leadInLength="0/1"  />
               <InterpolatingParam id="656" interp="linr"  time="-9999999/1" value="0" leadInLength="0/1"  />
               <InterpolatingParam id="657" interp="linr"  time="-9999999/1" value="0" leadInLength="0/1"  />
              </VectorParam>
              <VectorParam id="658"  name="rotation">
               <InterpolatingParam id="659" interp="linr"  time="-9999999/1" value="0" leadInLength="0/1"  />
               <InterpolatingParam id="660" interp="linr"  time="-9999999/1" value="0" leadInLength="0/1"  />
               <InterpolatingParam id="661" interp="linr"  time="-9999999/1" value="0" leadInLength="0/1"  />
              </VectorParam>
              <VectorParam id="662"  name="shear">
               <InterpolatingParam id="663" interp="linr"  time="-9999999/1" value="0" leadInLength="0/1"  />
               <InterpolatingParam id="664" interp="linr"  time="-9999999/1" value="0" leadInLength="0/1"  />
               <InterpolatingParam id="665" interp="linr"  time="-9999999/1" value="0" leadInLength="0/1"  />
              </VectorParam>
              <VectorParam id="666"  name="scale">
               <InterpolatingParam id="667" interp="linr"  time="-9999999/1" value="1" leadInLength="0/1"  />
               <InterpolatingParam id="668" interp="linr"  time="-9999999/1" value="1" leadInLength="0/1"  />
               <InterpolatingParam id="669" interp="linr"  time="-9999999/1" value="1" leadInLength="0/1"  />
              </VectorParam>
              <VectorParam id="670"  name="anchor">
               <InterpolatingParam id="671" interp="linr"  time="0/1" value="0" leadInLength="0/1"  />
               <InterpolatingParam id="672" interp="linr"  time="0/1" value="0" leadInLength="0/1"  />
               <InterpolatingParam id="673" interp="linr"  time="0/1" value="0" leadInLength="0/1"  />
              </VectorParam>
             </Transformer>
             <Parameters>
              <VectorParam id="674"  name="sourceCrop">
               <InterpolatingParam id="675" interp="linr"  time="0/1" value="0" leadInLength="0/1"  />
               <InterpolatingParam id="676" interp="linr"  time="0/1" value="0" leadInLength="0/1"  />
               <InterpolatingParam id="677" interp="linr"  time="0/1" value="0" leadInLength="0/1"  />
               <InterpolatingParam id="678" interp="linr"  time="0/1" value="0" leadInLength="0/1"  />
              </VectorParam>
              <VectorParam id="679"  name="geometryCrop">
               <InterpolatingParam id="680" interp="linr"  time="-9999999/1" value="0" leadInLength="0/1"  />
               <InterpolatingParam id="681" interp="linr"  time="-9999999/1" value="0" leadInLength="0/1"  />
               <InterpolatingParam id="682" interp="linr"  time="-9999999/1" value="0" leadInLength="0/1"  />
               <InterpolatingParam id="683" interp="linr"  time="-9999999/1" value="0" leadInLength="0/1"  />
              </VectorParam>
              <InterpolatingParam id="684" interp="linr"  time="-9999999/1" value="1" leadInLength="0/1"  name="opacity"/>
             </Parameters>
             <Attributes>
              <Attribute id="685" value="" name="ident"/>
             </Attributes>
             <ExtraData>
              <Entry key="ZoomPanBin">
               <ZoomPanBin id="686"  >
                <ZoomPanKeyframes>
                 <ZoomPanKeyframe id="687" timeRangeEnd="-9999999/1" timeRangeDuration="0/1" interpolaterName=""  />
                </ZoomPanKeyframes>
               </ZoomPanBin>
              </Entry>
             </ExtraData>
            </VMFile>
            <MetaData>
             <entry key="WinSubProjectDisplayName" val=""/>
            </MetaData>
           </UnifiedMedia>
          </Medias>
         </GenericTrack>
        </StitchedMedia>
        <StitchedMedia id="688" start="867" duration="21" scalar="1/1" mediaStart="336/1" mediaDuration="21/1" minMediaStart="0/1" >
         <Transformer>
          <VectorParam id="689"  name="translation">
           <InterpolatingParam id="690" interp="linr"  time="-9999999/1" value="0" leadInLength="0/1"  />
           <InterpolatingParam id="691" interp="linr"  time="-9999999/1" value="0" leadInLength="0/1"  />
           <InterpolatingParam id="692" interp="linr"  time="-9999999/1" value="0" leadInLength="0/1"  />
          </VectorParam>
          <VectorParam id="693"  name="rotation">
           <InterpolatingParam id="694" interp="linr"  time="-9999999/1" value="0" leadInLength="0/1"  />
           <InterpolatingParam id="695" interp="linr"  time="-9999999/1" value="0" leadInLength="0/1"  />
           <InterpolatingParam id="696" interp="linr"  time="-9999999/1" value="0" leadInLength="0/1"  />
          </VectorParam>
          <VectorParam id="697"  name="shear">
           <InterpolatingParam id="698" interp="linr"  time="-9999999/1" value="0" leadInLength="0/1"  />
           <InterpolatingParam id="699" interp="linr"  time="-9999999/1" value="0" leadInLength="0/1"  />
           <InterpolatingParam id="700" interp="linr"  time="-9999999/1" value="0" leadInLength="0/1"  />
          </VectorParam>
          <VectorParam id="701"  name="scale">
           <InterpolatingParam id="702" interp="linr"  time="-9999999/1" value="0.59999999999999998" leadInLength="0/1"  />
           <InterpolatingParam id="703" interp="linr"  time="-9999999/1" value="0.59999999999999998" leadInLength="0/1"  />
           <InterpolatingParam id="704" interp="linr"  time="-9999999/1" value="1" leadInLength="0/1"  />
          </VectorParam>
          <VectorParam id="705"  name="anchor">
           <InterpolatingParam id="706" interp="linr"  time="0/1" value="0" leadInLength="0/1"  />
           <InterpolatingParam id="707" interp="linr"  time="0/1" value="0" leadInLength="0/1"  />
           <InterpolatingParam id="708" interp="linr"  time="0/1" value="0" leadInLength="0/1"  />
          </VectorParam>
         </Transformer>
         <Parameters>
          <VectorParam id="709"  name="sourceCrop">
           <InterpolatingParam id="710" interp="linr"  time="0/1" value="0" leadInLength="0/1"  />
           <InterpolatingParam id="711" interp="linr"  time="0/1" value="0" leadInLength="0/1"  />
           <InterpolatingParam id="712" interp="linr"  time="0/1" value="0" leadInLength="0/1"  />
           <InterpolatingParam id="713" interp="linr"  time="0/1" value="0" leadInLength="0/1"  />
          </VectorParam>
          <VectorParam id="714"  name="geometryCrop">
           <InterpolatingParam id="715" interp="linr"  time="-9999999/1" value="0" leadInLength="0/1"  />
           <InterpolatingParam id="716" interp="linr"  time="-9999999/1" value="0" leadInLength="0/1"  />
           <InterpolatingParam id="717" interp="linr"  time="-9999999/1" value="0" leadInLength="0/1"  />
           <InterpolatingParam id="718" interp="linr"  time="-9999999/1" value="0" leadInLength="0/1"  />
          </VectorParam>
          <InterpolatingParam id="719" interp="linr"  time="-9999999/1" value="1" leadInLength="0/1"  name="opacity"/>
          <InterpolatingParam id="720" interp="linr"  time="0/1" value="1" leadInLength="0/1"  name="cursorOpacity"/>
          <InterpolatingParam id="721" interp="linr"  time="0/1" value="1" leadInLength="0/1"  name="cursorScale"/>
          <InterpolatingParam id="722" interp="linr"  time="0/1" value="1" leadInLength="0/1"  name="volume"/>
          <Parameter id="723"  name="captions"/>
         </Parameters>
         <Attributes>
          <Attribute id="724" value="" name="ident"/>
          <Attribute id="725" value="0" name="mixToMono"/>
         </Attributes>
         <MetaData>
          <entry key="WinSubProjectDisplayName" val=""/>
         </MetaData>
         <ExtraData>
          <Entry key="ZoomPanBin">
           <ZoomPanBin id="726"  >
            <ZoomPanKeyframes>
             <ZoomPanKeyframe id="727" timeRangeEnd="-9999999/1" timeRangeDuration="0/1" interpolaterName=""  />
            </ZoomPanKeyframes>
           </ZoomPanBin>
          </Entry>
          <Entry key="CursorEffectBin">
           <CursorEffectBin id="728"  >
            <CursorEffectKeyframes>
            </CursorEffectKeyframes>
           </CursorEffectBin>
          </Entry>
         </ExtraData>
         <GenericTrack id="729"  >
          <Attributes>
           <Attribute id="730" value="" name="ident"/>
           <Attribute id="731" value="0" name="audioMuted"/>
           <Attribute id="732" value="0" name="videoHidden"/>
          </Attributes>
          <MetaData>
           <entry key="IsLocked" val="False"/>
           <entry key="WinTrackHeight" val="0"/>
          </MetaData>
          <Medias>
           <UnifiedMedia id="733"  >
            <AMFile id="734" start="0" duration="598" scalar="1/1" mediaStart="0/1" mediaDuration="598/1" trackNumber="1" src="8" channelNumber="0,1" >
             <Parameters>
              <InterpolatingParam id="735" interp="linr"  time="0/1" value="1" leadInLength="0/1"  name="volume"/>
              <Parameter id="736"  name="captions"/>
             </Parameters>
             <Attributes>
              <Attribute id="737" value="" name="ident"/>
              <Attribute id="738" value="44100" name="sampleRate"/>
              <Attribute id="739" value="16" name="bitDepth"/>
              <Attribute id="740" value="1" name="gain"/>
              <Attribute id="741" value="0" name="mixToMono"/>
             </Attributes>
            </AMFile>
            <VMFile id="742" start="0" duration="598" scalar="1/1" mediaStart="0/1" mediaDuration="598/1" trackNumber="0" src="8" >
             <Transformer>
              <VectorParam id="743"  name="translation">
               <InterpolatingParam id="744" interp="linr"  time="-9999999/1" value="0" leadInLength="0/1"  />
               <InterpolatingParam id="745" interp="linr"  time="-9999999/1" value="0" leadInLength="0/1"  />
               <InterpolatingParam id="746" interp="linr"  time="-9999999/1" value="0" leadInLength="0/1"  />
              </VectorParam>
              <VectorParam id="747"  name="rotation">
               <InterpolatingParam id="748" interp="linr"  time="-9999999/1" value="0" leadInLength="0/1"  />
               <InterpolatingParam id="749" interp="linr"  time="-9999999/1" value="0" leadInLength="0/1"  />
               <InterpolatingParam id="750" interp="linr"  time="-9999999/1" value="0" leadInLength="0/1"  />
              </VectorParam>
              <VectorParam id="751"  name="shear">
               <InterpolatingParam id="752" interp="linr"  time="-9999999/1" value="0" leadInLength="0/1"  />
               <InterpolatingParam id="753" interp="linr"  time="-9999999/1" value="0" leadInLength="0/1"  />
               <InterpolatingParam id="754" interp="linr"  time="-9999999/1" value="0" leadInLength="0/1"  />
              </VectorParam>
              <VectorParam id="755"  name="scale">
               <InterpolatingParam id="756" interp="linr"  time="-9999999/1" value="1" leadInLength="0/1"  />
               <InterpolatingParam id="757" interp="linr"  time="-9999999/1" value="1" leadInLength="0/1"  />
               <InterpolatingParam id="758" interp="linr"  time="-9999999/1" value="1" leadInLength="0/1"  />
              </VectorParam>
              <VectorParam id="759"  name="anchor">
               <InterpolatingParam id="760" interp="linr"  time="0/1" value="0" leadInLength="0/1"  />
               <InterpolatingParam id="761" interp="linr"  time="0/1" value="0" leadInLength="0/1"  />
               <InterpolatingParam id="762" interp="linr"  time="0/1" value="0" leadInLength="0/1"  />
              </VectorParam>
             </Transformer>
             <Parameters>
              <VectorParam id="763"  name="sourceCrop">
               <InterpolatingParam id="764" interp="linr"  time="0/1" value="0" leadInLength="0/1"  />
               <InterpolatingParam id="765" interp="linr"  time="0/1" value="0" leadInLength="0/1"  />
               <InterpolatingParam id="766" interp="linr"  time="0/1" value="0" leadInLength="0/1"  />
               <InterpolatingParam id="767" interp="linr"  time="0/1" value="0" leadInLength="0/1"  />
              </VectorParam>
              <VectorParam id="768"  name="geometryCrop">
               <InterpolatingParam id="769" interp="linr"  time="-9999999/1" value="0" leadInLength="0/1"  />
               <InterpolatingParam id="770" interp="linr"  time="-9999999/1" value="0" leadInLength="0/1"  />
               <InterpolatingParam id="771" interp="linr"  time="-9999999/1" value="0" leadInLength="0/1"  />
               <InterpolatingParam id="772" interp="linr"  time="-9999999/1" value="0" leadInLength="0/1"  />
              </VectorParam>
              <InterpolatingParam id="773" interp="linr"  time="-9999999/1" value="1" leadInLength="0/1"  name="opacity"/>
             </Parameters>
             <Attributes>
              <Attribute id="774" value="" name="ident"/>
             </Attributes>
             <ExtraData>
              <Entry key="ZoomPanBin">
               <ZoomPanBin id="775"  >
                <ZoomPanKeyframes>
                 <ZoomPanKeyframe id="776" timeRangeEnd="-9999999/1" timeRangeDuration="0/1" interpolaterName=""  />
                </ZoomPanKeyframes>
               </ZoomPanBin>
              </Entry>
             </ExtraData>
            </VMFile>
            <MetaData>
             <entry key="WinSubProjectDisplayName" val=""/>
            </MetaData>
           </UnifiedMedia>
           <UnifiedMedia id="777"  >
            <AMFile id="778" start="598" duration="93" scalar="1/1" mediaStart="771/1" mediaDuration="93/1" trackNumber="1" src="8" channelNumber="0,1" >
             <Parameters>
              <InterpolatingParam id="779" interp="linr"  time="0/1" value="1" leadInLength="0/1"  name="volume"/>
              <Parameter id="780"  name="captions"/>
             </Parameters>
             <Attributes>
              <Attribute id="781" value="" name="ident"/>
              <Attribute id="782" value="44100" name="sampleRate"/>
              <Attribute id="783" value="16" name="bitDepth"/>
              <Attribute id="784" value="1" name="gain"/>
              <Attribute id="785" value="0" name="mixToMono"/>
             </Attributes>
            </AMFile>
            <VMFile id="786" start="598" duration="93" scalar="1/1" mediaStart="771/1" mediaDuration="93/1" trackNumber="0" src="8" >
             <Transformer>
              <VectorParam id="787"  name="translation">
               <InterpolatingParam id="788" interp="linr"  time="-9999999/1" value="0" leadInLength="0/1"  />
               <InterpolatingParam id="789" interp="linr"  time="-9999999/1" value="0" leadInLength="0/1"  />
               <InterpolatingParam id="790" interp="linr"  time="-9999999/1" value="0" leadInLength="0/1"  />
              </VectorParam>
              <VectorParam id="791"  name="rotation">
               <InterpolatingParam id="792" interp="linr"  time="-9999999/1" value="0" leadInLength="0/1"  />
               <InterpolatingParam id="793" interp="linr"  time="-9999999/1" value="0" leadInLength="0/1"  />
               <InterpolatingParam id="794" interp="linr"  time="-9999999/1" value="0" leadInLength="0/1"  />
              </VectorParam>
              <VectorParam id="795"  name="shear">
               <InterpolatingParam id="796" interp="linr"  time="-9999999/1" value="0" leadInLength="0/1"  />
               <InterpolatingParam id="797" interp="linr"  time="-9999999/1" value="0" leadInLength="0/1"  />
               <InterpolatingParam id="798" interp="linr"  time="-9999999/1" value="0" leadInLength="0/1"  />
              </VectorParam>
              <VectorParam id="799"  name="scale">
               <InterpolatingParam id="800" interp="linr"  time="-9999999/1" value="1" leadInLength="0/1"  />
               <InterpolatingParam id="801" interp="linr"  time="-9999999/1" value="1" leadInLength="0/1"  />
               <InterpolatingParam id="802" interp="linr"  time="-9999999/1" value="1" leadInLength="0/1"  />
              </VectorParam>
              <VectorParam id="803"  name="anchor">
               <InterpolatingParam id="804" interp="linr"  time="0/1" value="0" leadInLength="0/1"  />
               <InterpolatingParam id="805" interp="linr"  time="0/1" value="0" leadInLength="0/1"  />
               <InterpolatingParam id="806" interp="linr"  time="0/1" value="0" leadInLength="0/1"  />
              </VectorParam>
             </Transformer>
             <Parameters>
              <VectorParam id="807"  name="sourceCrop">
               <InterpolatingParam id="808" interp="linr"  time="0/1" value="0" leadInLength="0/1"  />
               <InterpolatingParam id="809" interp="linr"  time="0/1" value="0" leadInLength="0/1"  />
               <InterpolatingParam id="810" interp="linr"  time="0/1" value="0" leadInLength="0/1"  />
               <InterpolatingParam id="811" interp="linr"  time="0/1" value="0" leadInLength="0/1"  />
              </VectorParam>
              <VectorParam id="812"  name="geometryCrop">
               <InterpolatingParam id="813" interp="linr"  time="-9999999/1" value="0" leadInLength="0/1"  />
               <InterpolatingParam id="814" interp="linr"  time="-9999999/1" value="0" leadInLength="0/1"  />
               <InterpolatingParam id="815" interp="linr"  time="-9999999/1" value="0" leadInLength="0/1"  />
               <InterpolatingParam id="816" interp="linr"  time="-9999999/1" value="0" leadInLength="0/1"  />
              </VectorParam>
              <InterpolatingParam id="817" interp="linr"  time="-9999999/1" value="1" leadInLength="0/1"  name="opacity"/>
             </Parameters>
             <Attributes>
              <Attribute id="818" value="" name="ident"/>
             </Attributes>
             <ExtraData>
              <Entry key="ZoomPanBin">
               <ZoomPanBin id="819"  >
                <ZoomPanKeyframes>
                 <ZoomPanKeyframe id="820" timeRangeEnd="-9999999/1" timeRangeDuration="0/1" interpolaterName=""  />
                </ZoomPanKeyframes>
               </ZoomPanBin>
              </Entry>
             </ExtraData>
            </VMFile>
            <MetaData>
             <entry key="WinSubProjectDisplayName" val=""/>
            </MetaData>
           </UnifiedMedia>
          </Medias>
         </GenericTrack>
        </StitchedMedia>
        <StitchedMedia id="821" start="888" duration="15" scalar="1/1" mediaStart="357/1" mediaDuration="15/1" minMediaStart="0/1" >
         <Transformer>
          <VectorParam id="822"  name="translation">
           <InterpolatingParam id="823" interp="linr"  time="-9999999/1" value="0" leadInLength="0/1"  />
           <InterpolatingParam id="824" interp="linr"  time="-9999999/1" value="0" leadInLength="0/1"  />
           <InterpolatingParam id="825" interp="linr"  time="-9999999/1" value="0" leadInLength="0/1"  />
          </VectorParam>
          <VectorParam id="826"  name="rotation">
           <InterpolatingParam id="827" interp="linr"  time="-9999999/1" value="0" leadInLength="0/1"  />
           <InterpolatingParam id="828" interp="linr"  time="-9999999/1" value="0" leadInLength="0/1"  />
           <InterpolatingParam id="829" interp="linr"  time="-9999999/1" value="0" leadInLength="0/1"  />
          </VectorParam>
          <VectorParam id="830"  name="shear">
           <InterpolatingParam id="831" interp="linr"  time="-9999999/1" value="0" leadInLength="0/1"  />
           <InterpolatingParam id="832" interp="linr"  time="-9999999/1" value="0" leadInLength="0/1"  />
           <InterpolatingParam id="833" interp="linr"  time="-9999999/1" value="0" leadInLength="0/1"  />
          </VectorParam>
          <VectorParam id="834"  name="scale">
           <InterpolatingParam id="835" interp="linr"  time="-9999999/1" value="0.59999999999999998" leadInLength="0/1"  />
           <InterpolatingParam id="836" interp="linr"  time="-9999999/1" value="0.59999999999999998" leadInLength="0/1"  />
           <InterpolatingParam id="837" interp="linr"  time="-9999999/1" value="1" leadInLength="0/1"  />
          </VectorParam>
          <VectorParam id="838"  name="anchor">
           <InterpolatingParam id="839" interp="linr"  time="0/1" value="0" leadInLength="0/1"  />
           <InterpolatingParam id="840" interp="linr"  time="0/1" value="0" leadInLength="0/1"  />
           <InterpolatingParam id="841" interp="linr"  time="0/1" value="0" leadInLength="0/1"  />
          </VectorParam>
         </Transformer>
         <Parameters>
          <VectorParam id="842"  name="sourceCrop">
           <InterpolatingParam id="843" interp="linr"  time="0/1" value="0" leadInLength="0/1"  />
           <InterpolatingParam id="844" interp="linr"  time="0/1" value="0" leadInLength="0/1"  />
           <InterpolatingParam id="845" interp="linr"  time="0/1" value="0" leadInLength="0/1"  />
           <InterpolatingParam id="846" interp="linr"  time="0/1" value="0" leadInLength="0/1"  />
          </VectorParam>
          <VectorParam id="847"  name="geometryCrop">
           <InterpolatingParam id="848" interp="linr"  time="-9999999/1" value="0" leadInLength="0/1"  />
           <InterpolatingParam id="849" interp="linr"  time="-9999999/1" value="0" leadInLength="0/1"  />
           <InterpolatingParam id="850" interp="linr"  time="-9999999/1" value="0" leadInLength="0/1"  />
           <InterpolatingParam id="851" interp="linr"  time="-9999999/1" value="0" leadInLength="0/1"  />
          </VectorParam>
          <InterpolatingParam id="852" interp="linr"  time="-9999999/1" value="1" leadInLength="0/1"  name="opacity"/>
          <InterpolatingParam id="853" interp="linr"  time="0/1" value="1" leadInLength="0/1"  name="cursorOpacity"/>
          <InterpolatingParam id="854" interp="linr"  time="0/1" value="1" leadInLength="0/1"  name="cursorScale"/>
          <InterpolatingParam id="855" interp="linr"  time="0/1" value="1" leadInLength="0/1"  name="volume"/>
          <Parameter id="856"  name="captions"/>
         </Parameters>
         <Attributes>
          <Attribute id="857" value="" name="ident"/>
          <Attribute id="858" value="0" name="mixToMono"/>
         </Attributes>
         <MetaData>
          <entry key="WinSubProjectDisplayName" val=""/>
         </MetaData>
         <ExtraData>
          <Entry key="ZoomPanBin">
           <ZoomPanBin id="859"  >
            <ZoomPanKeyframes>
             <ZoomPanKeyframe id="860" timeRangeEnd="-9999999/1" timeRangeDuration="0/1" interpolaterName=""  />
            </ZoomPanKeyframes>
           </ZoomPanBin>
          </Entry>
          <Entry key="CursorEffectBin">
           <CursorEffectBin id="861"  >
            <CursorEffectKeyframes>
            </CursorEffectKeyframes>
           </CursorEffectBin>
          </Entry>
         </ExtraData>
         <GenericTrack id="862"  >
          <Attributes>
           <Attribute id="863" value="" name="ident"/>
           <Attribute id="864" value="0" name="audioMuted"/>
           <Attribute id="865" value="0" name="videoHidden"/>
          </Attributes>
          <MetaData>
           <entry key="IsLocked" val="False"/>
           <entry key="WinTrackHeight" val="0"/>
          </MetaData>
          <Medias>
           <UnifiedMedia id="866"  >
            <AMFile id="867" start="0" duration="598" scalar="1/1" mediaStart="0/1" mediaDuration="598/1" trackNumber="1" src="8" channelNumber="0,1" >
             <Parameters>
              <InterpolatingParam id="868" interp="linr"  time="0/1" value="1" leadInLength="0/1"  name="volume"/>
              <Parameter id="869"  name="captions"/>
             </Parameters>
             <Attributes>
              <Attribute id="870" value="" name="ident"/>
              <Attribute id="871" value="44100" name="sampleRate"/>
              <Attribute id="872" value="16" name="bitDepth"/>
              <Attribute id="873" value="1" name="gain"/>
              <Attribute id="874" value="0" name="mixToMono"/>
             </Attributes>
            </AMFile>
            <VMFile id="875" start="0" duration="598" scalar="1/1" mediaStart="0/1" mediaDuration="598/1" trackNumber="0" src="8" >
             <Transformer>
              <VectorParam id="876"  name="translation">
               <InterpolatingParam id="877" interp="linr"  time="-9999999/1" value="0" leadInLength="0/1"  />
               <InterpolatingParam id="878" interp="linr"  time="-9999999/1" value="0" leadInLength="0/1"  />
               <InterpolatingParam id="879" interp="linr"  time="-9999999/1" value="0" leadInLength="0/1"  />
              </VectorParam>
              <VectorParam id="880"  name="rotation">
               <InterpolatingParam id="881" interp="linr"  time="-9999999/1" value="0" leadInLength="0/1"  />
               <InterpolatingParam id="882" interp="linr"  time="-9999999/1" value="0" leadInLength="0/1"  />
               <InterpolatingParam id="883" interp="linr"  time="-9999999/1" value="0" leadInLength="0/1"  />
              </VectorParam>
              <VectorParam id="884"  name="shear">
               <InterpolatingParam id="885" interp="linr"  time="-9999999/1" value="0" leadInLength="0/1"  />
               <InterpolatingParam id="886" interp="linr"  time="-9999999/1" value="0" leadInLength="0/1"  />
               <InterpolatingParam id="887" interp="linr"  time="-9999999/1" value="0" leadInLength="0/1"  />
              </VectorParam>
              <VectorParam id="888"  name="scale">
               <InterpolatingParam id="889" interp="linr"  time="-9999999/1" value="1" leadInLength="0/1"  />
               <InterpolatingParam id="890" interp="linr"  time="-9999999/1" value="1" leadInLength="0/1"  />
               <InterpolatingParam id="891" interp="linr"  time="-9999999/1" value="1" leadInLength="0/1"  />
              </VectorParam>
              <VectorParam id="892"  name="anchor">
               <InterpolatingParam id="893" interp="linr"  time="0/1" value="0" leadInLength="0/1"  />
               <InterpolatingParam id="894" interp="linr"  time="0/1" value="0" leadInLength="0/1"  />
               <InterpolatingParam id="895" interp="linr"  time="0/1" value="0" leadInLength="0/1"  />
              </VectorParam>
             </Transformer>
             <Parameters>
              <VectorParam id="896"  name="sourceCrop">
               <InterpolatingParam id="897" interp="linr"  time="0/1" value="0" leadInLength="0/1"  />
               <InterpolatingParam id="898" interp="linr"  time="0/1" value="0" leadInLength="0/1"  />
               <InterpolatingParam id="899" interp="linr"  time="0/1" value="0" leadInLength="0/1"  />
               <InterpolatingParam id="900" interp="linr"  time="0/1" value="0" leadInLength="0/1"  />
              </VectorParam>
              <VectorParam id="901"  name="geometryCrop">
               <InterpolatingParam id="902" interp="linr"  time="-9999999/1" value="0" leadInLength="0/1"  />
               <InterpolatingParam id="903" interp="linr"  time="-9999999/1" value="0" leadInLength="0/1"  />
               <InterpolatingParam id="904" interp="linr"  time="-9999999/1" value="0" leadInLength="0/1"  />
               <InterpolatingParam id="905" interp="linr"  time="-9999999/1" value="0" leadInLength="0/1"  />
              </VectorParam>
              <InterpolatingParam id="906" interp="linr"  time="-9999999/1" value="1" leadInLength="0/1"  name="opacity"/>
             </Parameters>
             <Attributes>
              <Attribute id="907" value="" name="ident"/>
             </Attributes>
             <ExtraData>
              <Entry key="ZoomPanBin">
               <ZoomPanBin id="908"  >
                <ZoomPanKeyframes>
                 <ZoomPanKeyframe id="909" timeRangeEnd="-9999999/1" timeRangeDuration="0/1" interpolaterName=""  />
                </ZoomPanKeyframes>
               </ZoomPanBin>
              </Entry>
             </ExtraData>
            </VMFile>
            <MetaData>
             <entry key="WinSubProjectDisplayName" val=""/>
            </MetaData>
           </UnifiedMedia>
           <UnifiedMedia id="910"  >
            <AMFile id="911" start="598" duration="93" scalar="1/1" mediaStart="771/1" mediaDuration="93/1" trackNumber="1" src="8" channelNumber="0,1" >
             <Parameters>
              <InterpolatingParam id="912" interp="linr"  time="0/1" value="1" leadInLength="0/1"  name="volume"/>
              <Parameter id="913"  name="captions"/>
             </Parameters>
             <Attributes>
              <Attribute id="914" value="" name="ident"/>
              <Attribute id="915" value="44100" name="sampleRate"/>
              <Attribute id="916" value="16" name="bitDepth"/>
              <Attribute id="917" value="1" name="gain"/>
              <Attribute id="918" value="0" name="mixToMono"/>
             </Attributes>
            </AMFile>
            <VMFile id="919" start="598" duration="93" scalar="1/1" mediaStart="771/1" mediaDuration="93/1" trackNumber="0" src="8" >
             <Transformer>
              <VectorParam id="920"  name="translation">
               <InterpolatingParam id="921" interp="linr"  time="-9999999/1" value="0" leadInLength="0/1"  />
               <InterpolatingParam id="922" interp="linr"  time="-9999999/1" value="0" leadInLength="0/1"  />
               <InterpolatingParam id="923" interp="linr"  time="-9999999/1" value="0" leadInLength="0/1"  />
              </VectorParam>
              <VectorParam id="924"  name="rotation">
               <InterpolatingParam id="925" interp="linr"  time="-9999999/1" value="0" leadInLength="0/1"  />
               <InterpolatingParam id="926" interp="linr"  time="-9999999/1" value="0" leadInLength="0/1"  />
               <InterpolatingParam id="927" interp="linr"  time="-9999999/1" value="0" leadInLength="0/1"  />
              </VectorParam>
              <VectorParam id="928"  name="shear">
               <InterpolatingParam id="929" interp="linr"  time="-9999999/1" value="0" leadInLength="0/1"  />
               <InterpolatingParam id="930" interp="linr"  time="-9999999/1" value="0" leadInLength="0/1"  />
               <InterpolatingParam id="931" interp="linr"  time="-9999999/1" value="0" leadInLength="0/1"  />
              </VectorParam>
              <VectorParam id="932"  name="scale">
               <InterpolatingParam id="933" interp="linr"  time="-9999999/1" value="1" leadInLength="0/1"  />
               <InterpolatingParam id="934" interp="linr"  time="-9999999/1" value="1" leadInLength="0/1"  />
               <InterpolatingParam id="935" interp="linr"  time="-9999999/1" value="1" leadInLength="0/1"  />
              </VectorParam>
              <VectorParam id="936"  name="anchor">
               <InterpolatingParam id="937" interp="linr"  time="0/1" value="0" leadInLength="0/1"  />
               <InterpolatingParam id="938" interp="linr"  time="0/1" value="0" leadInLength="0/1"  />
               <InterpolatingParam id="939" interp="linr"  time="0/1" value="0" leadInLength="0/1"  />
              </VectorParam>
             </Transformer>
             <Parameters>
              <VectorParam id="940"  name="sourceCrop">
               <InterpolatingParam id="941" interp="linr"  time="0/1" value="0" leadInLength="0/1"  />
               <InterpolatingParam id="942" interp="linr"  time="0/1" value="0" leadInLength="0/1"  />
               <InterpolatingParam id="943" interp="linr"  time="0/1" value="0" leadInLength="0/1"  />
               <InterpolatingParam id="944" interp="linr"  time="0/1" value="0" leadInLength="0/1"  />
              </VectorParam>
              <VectorParam id="945"  name="geometryCrop">
               <InterpolatingParam id="946" interp="linr"  time="-9999999/1" value="0" leadInLength="0/1"  />
               <InterpolatingParam id="947" interp="linr"  time="-9999999/1" value="0" leadInLength="0/1"  />
               <InterpolatingParam id="948" interp="linr"  time="-9999999/1" value="0" leadInLength="0/1"  />
               <InterpolatingParam id="949" interp="linr"  time="-9999999/1" value="0" leadInLength="0/1"  />
              </VectorParam>
              <InterpolatingParam id="950" interp="linr"  time="-9999999/1" value="1" leadInLength="0/1"  name="opacity"/>
             </Parameters>
             <Attributes>
              <Attribute id="951" value="" name="ident"/>
             </Attributes>
             <ExtraData>
              <Entry key="ZoomPanBin">
               <ZoomPanBin id="952"  >
                <ZoomPanKeyframes>
                 <ZoomPanKeyframe id="953" timeRangeEnd="-9999999/1" timeRangeDuration="0/1" interpolaterName=""  />
                </ZoomPanKeyframes>
               </ZoomPanBin>
              </Entry>
             </ExtraData>
            </VMFile>
            <MetaData>
             <entry key="WinSubProjectDisplayName" val=""/>
            </MetaData>
           </UnifiedMedia>
          </Medias>
         </GenericTrack>
        </StitchedMedia>
        <StitchedMedia id="954" start="908" duration="13" scalar="1/1" mediaStart="372/1" mediaDuration="13/1" minMediaStart="0/1" >
         <Transformer>
          <VectorParam id="955"  name="translation">
           <InterpolatingParam id="956" interp="linr"  time="-9999999/1" value="0" leadInLength="0/1"  />
           <InterpolatingParam id="957" interp="linr"  time="-9999999/1" value="0" leadInLength="0/1"  />
           <InterpolatingParam id="958" interp="linr"  time="-9999999/1" value="0" leadInLength="0/1"  />
          </VectorParam>
          <VectorParam id="959"  name="rotation">
           <InterpolatingParam id="960" interp="linr"  time="-9999999/1" value="0" leadInLength="0/1"  />
           <InterpolatingParam id="961" interp="linr"  time="-9999999/1" value="0" leadInLength="0/1"  />
           <InterpolatingParam id="962" interp="linr"  time="-9999999/1" value="0" leadInLength="0/1"  />
          </VectorParam>
          <VectorParam id="963"  name="shear">
           <InterpolatingParam id="964" interp="linr"  time="-9999999/1" value="0" leadInLength="0/1"  />
           <InterpolatingParam id="965" interp="linr"  time="-9999999/1" value="0" leadInLength="0/1"  />
           <InterpolatingParam id="966" interp="linr"  time="-9999999/1" value="0" leadInLength="0/1"  />
          </VectorParam>
          <VectorParam id="967"  name="scale">
           <InterpolatingParam id="968" interp="linr"  time="-9999999/1" value="0.59999999999999998" leadInLength="0/1"  />
           <InterpolatingParam id="969" interp="linr"  time="-9999999/1" value="0.59999999999999998" leadInLength="0/1"  />
           <InterpolatingParam id="970" interp="linr"  time="-9999999/1" value="1" leadInLength="0/1"  />
          </VectorParam>
          <VectorParam id="971"  name="anchor">
           <InterpolatingParam id="972" interp="linr"  time="0/1" value="0" leadInLength="0/1"  />
           <InterpolatingParam id="973" interp="linr"  time="0/1" value="0" leadInLength="0/1"  />
           <InterpolatingParam id="974" interp="linr"  time="0/1" value="0" leadInLength="0/1"  />
          </VectorParam>
         </Transformer>
         <Parameters>
          <VectorParam id="975"  name="sourceCrop">
           <InterpolatingParam id="976" interp="linr"  time="0/1" value="0" leadInLength="0/1"  />
           <InterpolatingParam id="977" interp="linr"  time="0/1" value="0" leadInLength="0/1"  />
           <InterpolatingParam id="978" interp="linr"  time="0/1" value="0" leadInLength="0/1"  />
           <InterpolatingParam id="979" interp="linr"  time="0/1" value="0" leadInLength="0/1"  />
          </VectorParam>
          <VectorParam id="980"  name="geometryCrop">
           <InterpolatingParam id="981" interp="linr"  time="-9999999/1" value="0" leadInLength="0/1"  />
           <InterpolatingParam id="982" interp="linr"  time="-9999999/1" value="0" leadInLength="0/1"  />
           <InterpolatingParam id="983" interp="linr"  time="-9999999/1" value="0" leadInLength="0/1"  />
           <InterpolatingParam id="984" interp="linr"  time="-9999999/1" value="0" leadInLength="0/1"  />
          </VectorParam>
          <InterpolatingParam id="985" interp="linr"  time="-9999999/1" value="1" leadInLength="0/1"  name="opacity"/>
          <InterpolatingParam id="986" interp="linr"  time="0/1" value="1" leadInLength="0/1"  name="cursorOpacity"/>
          <InterpolatingParam id="987" interp="linr"  time="0/1" value="1" leadInLength="0/1"  name="cursorScale"/>
          <InterpolatingParam id="988" interp="linr"  time="0/1" value="1" leadInLength="0/1"  name="volume"/>
          <Parameter id="989"  name="captions"/>
         </Parameters>
         <Attributes>
          <Attribute id="990" value="" name="ident"/>
          <Attribute id="991" value="0" name="mixToMono"/>
         </Attributes>
         <MetaData>
          <entry key="WinSubProjectDisplayName" val=""/>
         </MetaData>
         <ExtraData>
          <Entry key="ZoomPanBin">
           <ZoomPanBin id="992"  >
            <ZoomPanKeyframes>
             <ZoomPanKeyframe id="993" timeRangeEnd="-9999999/1" timeRangeDuration="0/1" interpolaterName=""  />
            </ZoomPanKeyframes>
           </ZoomPanBin>
          </Entry>
          <Entry key="CursorEffectBin">
           <CursorEffectBin id="994"  >
            <CursorEffectKeyframes>
            </CursorEffectKeyframes>
           </CursorEffectBin>
          </Entry>
         </ExtraData>
         <GenericTrack id="995"  >
          <Attributes>
           <Attribute id="996" value="" name="ident"/>
           <Attribute id="997" value="0" name="audioMuted"/>
           <Attribute id="998" value="0" name="videoHidden"/>
          </Attributes>
          <MetaData>
           <entry key="IsLocked" val="False"/>
           <entry key="WinTrackHeight" val="0"/>
          </MetaData>
          <Medias>
           <UnifiedMedia id="999"  >
            <AMFile id="1000" start="0" duration="598" scalar="1/1" mediaStart="0/1" mediaDuration="598/1" trackNumber="1" src="8" channelNumber="0,1" >
             <Parameters>
              <InterpolatingParam id="1001" interp="linr"  time="0/1" value="1" leadInLength="0/1"  name="volume"/>
              <Parameter id="1002"  name="captions"/>
             </Parameters>
             <Attributes>
              <Attribute id="1003" value="" name="ident"/>
              <Attribute id="1004" value="44100" name="sampleRate"/>
              <Attribute id="1005" value="16" name="bitDepth"/>
              <Attribute id="1006" value="1" name="gain"/>
              <Attribute id="1007" value="0" name="mixToMono"/>
             </Attributes>
            </AMFile>
            <VMFile id="1008" start="0" duration="598" scalar="1/1" mediaStart="0/1" mediaDuration="598/1" trackNumber="0" src="8" >
             <Transformer>
              <VectorParam id="1009"  name="translation">
               <InterpolatingParam id="1010" interp="linr"  time="-9999999/1" value="0" leadInLength="0/1"  />
               <InterpolatingParam id="1011" interp="linr"  time="-9999999/1" value="0" leadInLength="0/1"  />
               <InterpolatingParam id="1012" interp="linr"  time="-9999999/1" value="0" leadInLength="0/1"  />
              </VectorParam>
              <VectorParam id="1013"  name="rotation">
               <InterpolatingParam id="1014" interp="linr"  time="-9999999/1" value="0" leadInLength="0/1"  />
               <InterpolatingParam id="1015" interp="linr"  time="-9999999/1" value="0" leadInLength="0/1"  />
               <InterpolatingParam id="1016" interp="linr"  time="-9999999/1" value="0" leadInLength="0/1"  />
              </VectorParam>
              <VectorParam id="1017"  name="shear">
               <InterpolatingParam id="1018" interp="linr"  time="-9999999/1" value="0" leadInLength="0/1"  />
               <InterpolatingParam id="1019" interp="linr"  time="-9999999/1" value="0" leadInLength="0/1"  />
               <InterpolatingParam id="1020" interp="linr"  time="-9999999/1" value="0" leadInLength="0/1"  />
              </VectorParam>
              <VectorParam id="1021"  name="scale">
               <InterpolatingParam id="1022" interp="linr"  time="-9999999/1" value="1" leadInLength="0/1"  />
               <InterpolatingParam id="1023" interp="linr"  time="-9999999/1" value="1" leadInLength="0/1"  />
               <InterpolatingParam id="1024" interp="linr"  time="-9999999/1" value="1" leadInLength="0/1"  />
              </VectorParam>
              <VectorParam id="1025"  name="anchor">
               <InterpolatingParam id="1026" interp="linr"  time="0/1" value="0" leadInLength="0/1"  />
               <InterpolatingParam id="1027" interp="linr"  time="0/1" value="0" leadInLength="0/1"  />
               <InterpolatingParam id="1028" interp="linr"  time="0/1" value="0" leadInLength="0/1"  />
              </VectorParam>
             </Transformer>
             <Parameters>
              <VectorParam id="1029"  name="sourceCrop">
               <InterpolatingParam id="1030" interp="linr"  time="0/1" value="0" leadInLength="0/1"  />
               <InterpolatingParam id="1031" interp="linr"  time="0/1" value="0" leadInLength="0/1"  />
               <InterpolatingParam id="1032" interp="linr"  time="0/1" value="0" leadInLength="0/1"  />
               <InterpolatingParam id="1033" interp="linr"  time="0/1" value="0" leadInLength="0/1"  />
              </VectorParam>
              <VectorParam id="1034"  name="geometryCrop">
               <InterpolatingParam id="1035" interp="linr"  time="-9999999/1" value="0" leadInLength="0/1"  />
               <InterpolatingParam id="1036" interp="linr"  time="-9999999/1" value="0" leadInLength="0/1"  />
               <InterpolatingParam id="1037" interp="linr"  time="-9999999/1" value="0" leadInLength="0/1"  />
               <InterpolatingParam id="1038" interp="linr"  time="-9999999/1" value="0" leadInLength="0/1"  />
              </VectorParam>
              <InterpolatingParam id="1039" interp="linr"  time="-9999999/1" value="1" leadInLength="0/1"  name="opacity"/>
             </Parameters>
             <Attributes>
              <Attribute id="1040" value="" name="ident"/>
             </Attributes>
             <ExtraData>
              <Entry key="ZoomPanBin">
               <ZoomPanBin id="1041"  >
                <ZoomPanKeyframes>
                 <ZoomPanKeyframe id="1042" timeRangeEnd="-9999999/1" timeRangeDuration="0/1" interpolaterName=""  />
                </ZoomPanKeyframes>
               </ZoomPanBin>
              </Entry>
             </ExtraData>
            </VMFile>
            <MetaData>
             <entry key="WinSubProjectDisplayName" val=""/>
            </MetaData>
           </UnifiedMedia>
           <UnifiedMedia id="1043"  >
            <AMFile id="1044" start="598" duration="93" scalar="1/1" mediaStart="771/1" mediaDuration="93/1" trackNumber="1" src="8" channelNumber="0,1" >
             <Parameters>
              <InterpolatingParam id="1045" interp="linr"  time="0/1" value="1" leadInLength="0/1"  name="volume"/>
              <Parameter id="1046"  name="captions"/>
             </Parameters>
             <Attributes>
              <Attribute id="1047" value="" name="ident"/>
              <Attribute id="1048" value="44100" name="sampleRate"/>
              <Attribute id="1049" value="16" name="bitDepth"/>
              <Attribute id="1050" value="1" name="gain"/>
              <Attribute id="1051" value="0" name="mixToMono"/>
             </Attributes>
            </AMFile>
            <VMFile id="1052" start="598" duration="93" scalar="1/1" mediaStart="771/1" mediaDuration="93/1" trackNumber="0" src="8" >
             <Transformer>
              <VectorParam id="1053"  name="translation">
               <InterpolatingParam id="1054" interp="linr"  time="-9999999/1" value="0" leadInLength="0/1"  />
               <InterpolatingParam id="1055" interp="linr"  time="-9999999/1" value="0" leadInLength="0/1"  />
               <InterpolatingParam id="1056" interp="linr"  time="-9999999/1" value="0" leadInLength="0/1"  />
              </VectorParam>
              <VectorParam id="1057"  name="rotation">
               <InterpolatingParam id="1058" interp="linr"  time="-9999999/1" value="0" leadInLength="0/1"  />
               <InterpolatingParam id="1059" interp="linr"  time="-9999999/1" value="0" leadInLength="0/1"  />
               <InterpolatingParam id="1060" interp="linr"  time="-9999999/1" value="0" leadInLength="0/1"  />
              </VectorParam>
              <VectorParam id="1061"  name="shear">
               <InterpolatingParam id="1062" interp="linr"  time="-9999999/1" value="0" leadInLength="0/1"  />
               <InterpolatingParam id="1063" interp="linr"  time="-9999999/1" value="0" leadInLength="0/1"  />
               <InterpolatingParam id="1064" interp="linr"  time="-9999999/1" value="0" leadInLength="0/1"  />
              </VectorParam>
              <VectorParam id="1065"  name="scale">
               <InterpolatingParam id="1066" interp="linr"  time="-9999999/1" value="1" leadInLength="0/1"  />
               <InterpolatingParam id="1067" interp="linr"  time="-9999999/1" value="1" leadInLength="0/1"  />
               <InterpolatingParam id="1068" interp="linr"  time="-9999999/1" value="1" leadInLength="0/1"  />
              </VectorParam>
              <VectorParam id="1069"  name="anchor">
               <InterpolatingParam id="1070" interp="linr"  time="0/1" value="0" leadInLength="0/1"  />
               <InterpolatingParam id="1071" interp="linr"  time="0/1" value="0" leadInLength="0/1"  />
               <InterpolatingParam id="1072" interp="linr"  time="0/1" value="0" leadInLength="0/1"  />
              </VectorParam>
             </Transformer>
             <Parameters>
              <VectorParam id="1073"  name="sourceCrop">
               <InterpolatingParam id="1074" interp="linr"  time="0/1" value="0" leadInLength="0/1"  />
               <InterpolatingParam id="1075" interp="linr"  time="0/1" value="0" leadInLength="0/1"  />
               <InterpolatingParam id="1076" interp="linr"  time="0/1" value="0" leadInLength="0/1"  />
               <InterpolatingParam id="1077" interp="linr"  time="0/1" value="0" leadInLength="0/1"  />
              </VectorParam>
              <VectorParam id="1078"  name="geometryCrop">
               <InterpolatingParam id="1079" interp="linr"  time="-9999999/1" value="0" leadInLength="0/1"  />
               <InterpolatingParam id="1080" interp="linr"  time="-9999999/1" value="0" leadInLength="0/1"  />
               <InterpolatingParam id="1081" interp="linr"  time="-9999999/1" value="0" leadInLength="0/1"  />
               <InterpolatingParam id="1082" interp="linr"  time="-9999999/1" value="0" leadInLength="0/1"  />
              </VectorParam>
              <InterpolatingParam id="1083" interp="linr"  time="-9999999/1" value="1" leadInLength="0/1"  name="opacity"/>
             </Parameters>
             <Attributes>
              <Attribute id="1084" value="" name="ident"/>
             </Attributes>
             <ExtraData>
              <Entry key="ZoomPanBin">
               <ZoomPanBin id="1085"  >
                <ZoomPanKeyframes>
                 <ZoomPanKeyframe id="1086" timeRangeEnd="-9999999/1" timeRangeDuration="0/1" interpolaterName=""  />
                </ZoomPanKeyframes>
               </ZoomPanBin>
              </Entry>
             </ExtraData>
            </VMFile>
            <MetaData>
             <entry key="WinSubProjectDisplayName" val=""/>
            </MetaData>
           </UnifiedMedia>
          </Medias>
         </GenericTrack>
        </StitchedMedia>
        <StitchedMedia id="1087" start="924" duration="13" scalar="1/1" mediaStart="385/1" mediaDuration="13/1" minMediaStart="0/1" >
         <Transformer>
          <VectorParam id="1088"  name="translation">
           <InterpolatingParam id="1089" interp="linr"  time="-9999999/1" value="0" leadInLength="0/1"  />
           <InterpolatingParam id="1090" interp="linr"  time="-9999999/1" value="0" leadInLength="0/1"  />
           <InterpolatingParam id="1091" interp="linr"  time="-9999999/1" value="0" leadInLength="0/1"  />
          </VectorParam>
          <VectorParam id="1092"  name="rotation">
           <InterpolatingParam id="1093" interp="linr"  time="-9999999/1" value="0" leadInLength="0/1"  />
           <InterpolatingParam id="1094" interp="linr"  time="-9999999/1" value="0" leadInLength="0/1"  />
           <InterpolatingParam id="1095" interp="linr"  time="-9999999/1" value="0" leadInLength="0/1"  />
          </VectorParam>
          <VectorParam id="1096"  name="shear">
           <InterpolatingParam id="1097" interp="linr"  time="-9999999/1" value="0" leadInLength="0/1"  />
           <InterpolatingParam id="1098" interp="linr"  time="-9999999/1" value="0" leadInLength="0/1"  />
           <InterpolatingParam id="1099" interp="linr"  time="-9999999/1" value="0" leadInLength="0/1"  />
          </VectorParam>
          <VectorParam id="1100"  name="scale">
           <InterpolatingParam id="1101" interp="linr"  time="-9999999/1" value="0.59999999999999998" leadInLength="0/1"  />
           <InterpolatingParam id="1102" interp="linr"  time="-9999999/1" value="0.59999999999999998" leadInLength="0/1"  />
           <InterpolatingParam id="1103" interp="linr"  time="-9999999/1" value="1" leadInLength="0/1"  />
          </VectorParam>
          <VectorParam id="1104"  name="anchor">
           <InterpolatingParam id="1105" interp="linr"  time="0/1" value="0" leadInLength="0/1"  />
           <InterpolatingParam id="1106" interp="linr"  time="0/1" value="0" leadInLength="0/1"  />
           <InterpolatingParam id="1107" interp="linr"  time="0/1" value="0" leadInLength="0/1"  />
          </VectorParam>
         </Transformer>
         <Parameters>
          <VectorParam id="1108"  name="sourceCrop">
           <InterpolatingParam id="1109" interp="linr"  time="0/1" value="0" leadInLength="0/1"  />
           <InterpolatingParam id="1110" interp="linr"  time="0/1" value="0" leadInLength="0/1"  />
           <InterpolatingParam id="1111" interp="linr"  time="0/1" value="0" leadInLength="0/1"  />
           <InterpolatingParam id="1112" interp="linr"  time="0/1" value="0" leadInLength="0/1"  />
          </VectorParam>
          <VectorParam id="1113"  name="geometryCrop">
           <InterpolatingParam id="1114" interp="linr"  time="-9999999/1" value="0" leadInLength="0/1"  />
           <InterpolatingParam id="1115" interp="linr"  time="-9999999/1" value="0" leadInLength="0/1"  />
           <InterpolatingParam id="1116" interp="linr"  time="-9999999/1" value="0" leadInLength="0/1"  />
           <InterpolatingParam id="1117" interp="linr"  time="-9999999/1" value="0" leadInLength="0/1"  />
          </VectorParam>
          <InterpolatingParam id="1118" interp="linr"  time="-9999999/1" value="1" leadInLength="0/1"  name="opacity"/>
          <InterpolatingParam id="1119" interp="linr"  time="0/1" value="1" leadInLength="0/1"  name="cursorOpacity"/>
          <InterpolatingParam id="1120" interp="linr"  time="0/1" value="1" leadInLength="0/1"  name="cursorScale"/>
          <InterpolatingParam id="1121" interp="linr"  time="0/1" value="1" leadInLength="0/1"  name="volume"/>
          <Parameter id="1122"  name="captions"/>
         </Parameters>
         <Attributes>
          <Attribute id="1123" value="" name="ident"/>
          <Attribute id="1124" value="0" name="mixToMono"/>
         </Attributes>
         <MetaData>
          <entry key="WinSubProjectDisplayName" val=""/>
         </MetaData>
         <ExtraData>
          <Entry key="ZoomPanBin">
           <ZoomPanBin id="1125"  >
            <ZoomPanKeyframes>
             <ZoomPanKeyframe id="1126" timeRangeEnd="-9999999/1" timeRangeDuration="0/1" interpolaterName=""  />
            </ZoomPanKeyframes>
           </ZoomPanBin>
          </Entry>
          <Entry key="CursorEffectBin">
           <CursorEffectBin id="1127"  >
            <CursorEffectKeyframes>
            </CursorEffectKeyframes>
           </CursorEffectBin>
          </Entry>
         </ExtraData>
         <GenericTrack id="1128"  >
          <Attributes>
           <Attribute id="1129" value="" name="ident"/>
           <Attribute id="1130" value="0" name="audioMuted"/>
           <Attribute id="1131" value="0" name="videoHidden"/>
          </Attributes>
          <MetaData>
           <entry key="IsLocked" val="False"/>
           <entry key="WinTrackHeight" val="0"/>
          </MetaData>
          <Medias>
           <UnifiedMedia id="1132"  >
            <AMFile id="1133" start="0" duration="598" scalar="1/1" mediaStart="0/1" mediaDuration="598/1" trackNumber="1" src="8" channelNumber="0,1" >
             <Parameters>
              <InterpolatingParam id="1134" interp="linr"  time="0/1" value="1" leadInLength="0/1"  name="volume"/>
              <Parameter id="1135"  name="captions"/>
             </Parameters>
             <Attributes>
              <Attribute id="1136" value="" name="ident"/>
              <Attribute id="1137" value="44100" name="sampleRate"/>
              <Attribute id="1138" value="16" name="bitDepth"/>
              <Attribute id="1139" value="1" name="gain"/>
              <Attribute id="1140" value="0" name="mixToMono"/>
             </Attributes>
            </AMFile>
            <VMFile id="1141" start="0" duration="598" scalar="1/1" mediaStart="0/1" mediaDuration="598/1" trackNumber="0" src="8" >
             <Transformer>
              <VectorParam id="1142"  name="translation">
               <InterpolatingParam id="1143" interp="linr"  time="-9999999/1" value="0" leadInLength="0/1"  />
               <InterpolatingParam id="1144" interp="linr"  time="-9999999/1" value="0" leadInLength="0/1"  />
               <InterpolatingParam id="1145" interp="linr"  time="-9999999/1" value="0" leadInLength="0/1"  />
              </VectorParam>
              <VectorParam id="1146"  name="rotation">
               <InterpolatingParam id="1147" interp="linr"  time="-9999999/1" value="0" leadInLength="0/1"  />
               <InterpolatingParam id="1148" interp="linr"  time="-9999999/1" value="0" leadInLength="0/1"  />
               <InterpolatingParam id="1149" interp="linr"  time="-9999999/1" value="0" leadInLength="0/1"  />
              </VectorParam>
              <VectorParam id="1150"  name="shear">
               <InterpolatingParam id="1151" interp="linr"  time="-9999999/1" value="0" leadInLength="0/1"  />
               <InterpolatingParam id="1152" interp="linr"  time="-9999999/1" value="0" leadInLength="0/1"  />
               <InterpolatingParam id="1153" interp="linr"  time="-9999999/1" value="0" leadInLength="0/1"  />
              </VectorParam>
              <VectorParam id="1154"  name="scale">
               <InterpolatingParam id="1155" interp="linr"  time="-9999999/1" value="1" leadInLength="0/1"  />
               <InterpolatingParam id="1156" interp="linr"  time="-9999999/1" value="1" leadInLength="0/1"  />
               <InterpolatingParam id="1157" interp="linr"  time="-9999999/1" value="1" leadInLength="0/1"  />
              </VectorParam>
              <VectorParam id="1158"  name="anchor">
               <InterpolatingParam id="1159" interp="linr"  time="0/1" value="0" leadInLength="0/1"  />
               <InterpolatingParam id="1160" interp="linr"  time="0/1" value="0" leadInLength="0/1"  />
               <InterpolatingParam id="1161" interp="linr"  time="0/1" value="0" leadInLength="0/1"  />
              </VectorParam>
             </Transformer>
             <Parameters>
              <VectorParam id="1162"  name="sourceCrop">
               <InterpolatingParam id="1163" interp="linr"  time="0/1" value="0" leadInLength="0/1"  />
               <InterpolatingParam id="1164" interp="linr"  time="0/1" value="0" leadInLength="0/1"  />
               <InterpolatingParam id="1165" interp="linr"  time="0/1" value="0" leadInLength="0/1"  />
               <InterpolatingParam id="1166" interp="linr"  time="0/1" value="0" leadInLength="0/1"  />
              </VectorParam>
              <VectorParam id="1167"  name="geometryCrop">
               <InterpolatingParam id="1168" interp="linr"  time="-9999999/1" value="0" leadInLength="0/1"  />
               <InterpolatingParam id="1169" interp="linr"  time="-9999999/1" value="0" leadInLength="0/1"  />
               <InterpolatingParam id="1170" interp="linr"  time="-9999999/1" value="0" leadInLength="0/1"  />
               <InterpolatingParam id="1171" interp="linr"  time="-9999999/1" value="0" leadInLength="0/1"  />
              </VectorParam>
              <InterpolatingParam id="1172" interp="linr"  time="-9999999/1" value="1" leadInLength="0/1"  name="opacity"/>
             </Parameters>
             <Attributes>
              <Attribute id="1173" value="" name="ident"/>
             </Attributes>
             <ExtraData>
              <Entry key="ZoomPanBin">
               <ZoomPanBin id="1174"  >
                <ZoomPanKeyframes>
                 <ZoomPanKeyframe id="1175" timeRangeEnd="-9999999/1" timeRangeDuration="0/1" interpolaterName=""  />
                </ZoomPanKeyframes>
               </ZoomPanBin>
              </Entry>
             </ExtraData>
            </VMFile>
            <MetaData>
             <entry key="WinSubProjectDisplayName" val=""/>
            </MetaData>
           </UnifiedMedia>
           <UnifiedMedia id="1176"  >
            <AMFile id="1177" start="598" duration="93" scalar="1/1" mediaStart="771/1" mediaDuration="93/1" trackNumber="1" src="8" channelNumber="0,1" >
             <Parameters>
              <InterpolatingParam id="1178" interp="linr"  time="0/1" value="1" leadInLength="0/1"  name="volume"/>
              <Parameter id="1179"  name="captions"/>
             </Parameters>
             <Attributes>
              <Attribute id="1180" value="" name="ident"/>
              <Attribute id="1181" value="44100" name="sampleRate"/>
              <Attribute id="1182" value="16" name="bitDepth"/>
              <Attribute id="1183" value="1" name="gain"/>
              <Attribute id="1184" value="0" name="mixToMono"/>
             </Attributes>
            </AMFile>
            <VMFile id="1185" start="598" duration="93" scalar="1/1" mediaStart="771/1" mediaDuration="93/1" trackNumber="0" src="8" >
             <Transformer>
              <VectorParam id="1186"  name="translation">
               <InterpolatingParam id="1187" interp="linr"  time="-9999999/1" value="0" leadInLength="0/1"  />
               <InterpolatingParam id="1188" interp="linr"  time="-9999999/1" value="0" leadInLength="0/1"  />
               <InterpolatingParam id="1189" interp="linr"  time="-9999999/1" value="0" leadInLength="0/1"  />
              </VectorParam>
              <VectorParam id="1190"  name="rotation">
               <InterpolatingParam id="1191" interp="linr"  time="-9999999/1" value="0" leadInLength="0/1"  />
               <InterpolatingParam id="1192" interp="linr"  time="-9999999/1" value="0" leadInLength="0/1"  />
               <InterpolatingParam id="1193" interp="linr"  time="-9999999/1" value="0" leadInLength="0/1"  />
              </VectorParam>
              <VectorParam id="1194"  name="shear">
               <InterpolatingParam id="1195" interp="linr"  time="-9999999/1" value="0" leadInLength="0/1"  />
               <InterpolatingParam id="1196" interp="linr"  time="-9999999/1" value="0" leadInLength="0/1"  />
               <InterpolatingParam id="1197" interp="linr"  time="-9999999/1" value="0" leadInLength="0/1"  />
              </VectorParam>
              <VectorParam id="1198"  name="scale">
               <InterpolatingParam id="1199" interp="linr"  time="-9999999/1" value="1" leadInLength="0/1"  />
               <InterpolatingParam id="1200" interp="linr"  time="-9999999/1" value="1" leadInLength="0/1"  />
               <InterpolatingParam id="1201" interp="linr"  time="-9999999/1" value="1" leadInLength="0/1"  />
              </VectorParam>
              <VectorParam id="1202"  name="anchor">
               <InterpolatingParam id="1203" interp="linr"  time="0/1" value="0" leadInLength="0/1"  />
               <InterpolatingParam id="1204" interp="linr"  time="0/1" value="0" leadInLength="0/1"  />
               <InterpolatingParam id="1205" interp="linr"  time="0/1" value="0" leadInLength="0/1"  />
              </VectorParam>
             </Transformer>
             <Parameters>
              <VectorParam id="1206"  name="sourceCrop">
               <InterpolatingParam id="1207" interp="linr"  time="0/1" value="0" leadInLength="0/1"  />
               <InterpolatingParam id="1208" interp="linr"  time="0/1" value="0" leadInLength="0/1"  />
               <InterpolatingParam id="1209" interp="linr"  time="0/1" value="0" leadInLength="0/1"  />
               <InterpolatingParam id="1210" interp="linr"  time="0/1" value="0" leadInLength="0/1"  />
              </VectorParam>
              <VectorParam id="1211"  name="geometryCrop">
               <InterpolatingParam id="1212" interp="linr"  time="-9999999/1" value="0" leadInLength="0/1"  />
               <InterpolatingParam id="1213" interp="linr"  time="-9999999/1" value="0" leadInLength="0/1"  />
               <InterpolatingParam id="1214" interp="linr"  time="-9999999/1" value="0" leadInLength="0/1"  />
               <InterpolatingParam id="1215" interp="linr"  time="-9999999/1" value="0" leadInLength="0/1"  />
              </VectorParam>
              <InterpolatingParam id="1216" interp="linr"  time="-9999999/1" value="1" leadInLength="0/1"  name="opacity"/>
             </Parameters>
             <Attributes>
              <Attribute id="1217" value="" name="ident"/>
             </Attributes>
             <ExtraData>
              <Entry key="ZoomPanBin">
               <ZoomPanBin id="1218"  >
                <ZoomPanKeyframes>
                 <ZoomPanKeyframe id="1219" timeRangeEnd="-9999999/1" timeRangeDuration="0/1" interpolaterName=""  />
                </ZoomPanKeyframes>
               </ZoomPanBin>
              </Entry>
             </ExtraData>
            </VMFile>
            <MetaData>
             <entry key="WinSubProjectDisplayName" val=""/>
            </MetaData>
           </UnifiedMedia>
          </Medias>
         </GenericTrack>
        </StitchedMedia>
        <StitchedMedia id="1220" start="937" duration="10" scalar="1/1" mediaStart="398/1" mediaDuration="10/1" minMediaStart="0/1" >
         <Transformer>
          <VectorParam id="1221"  name="translation">
           <InterpolatingParam id="1222" interp="linr"  time="-9999999/1" value="0" leadInLength="0/1"  />
           <InterpolatingParam id="1223" interp="linr"  time="-9999999/1" value="0" leadInLength="0/1"  />
           <InterpolatingParam id="1224" interp="linr"  time="-9999999/1" value="0" leadInLength="0/1"  />
          </VectorParam>
          <VectorParam id="1225"  name="rotation">
           <InterpolatingParam id="1226" interp="linr"  time="-9999999/1" value="0" leadInLength="0/1"  />
           <InterpolatingParam id="1227" interp="linr"  time="-9999999/1" value="0" leadInLength="0/1"  />
           <InterpolatingParam id="1228" interp="linr"  time="-9999999/1" value="0" leadInLength="0/1"  />
          </VectorParam>
          <VectorParam id="1229"  name="shear">
           <InterpolatingParam id="1230" interp="linr"  time="-9999999/1" value="0" leadInLength="0/1"  />
           <InterpolatingParam id="1231" interp="linr"  time="-9999999/1" value="0" leadInLength="0/1"  />
           <InterpolatingParam id="1232" interp="linr"  time="-9999999/1" value="0" leadInLength="0/1"  />
          </VectorParam>
          <VectorParam id="1233"  name="scale">
           <InterpolatingParam id="1234" interp="linr"  time="-9999999/1" value="0.59999999999999998" leadInLength="0/1"  />
           <InterpolatingParam id="1235" interp="linr"  time="-9999999/1" value="0.59999999999999998" leadInLength="0/1"  />
           <InterpolatingParam id="1236" interp="linr"  time="-9999999/1" value="1" leadInLength="0/1"  />
          </VectorParam>
          <VectorParam id="1237"  name="anchor">
           <InterpolatingParam id="1238" interp="linr"  time="0/1" value="0" leadInLength="0/1"  />
           <InterpolatingParam id="1239" interp="linr"  time="0/1" value="0" leadInLength="0/1"  />
           <InterpolatingParam id="1240" interp="linr"  time="0/1" value="0" leadInLength="0/1"  />
          </VectorParam>
         </Transformer>
         <Parameters>
          <VectorParam id="1241"  name="sourceCrop">
           <InterpolatingParam id="1242" interp="linr"  time="0/1" value="0" leadInLength="0/1"  />
           <InterpolatingParam id="1243" interp="linr"  time="0/1" value="0" leadInLength="0/1"  />
           <InterpolatingParam id="1244" interp="linr"  time="0/1" value="0" leadInLength="0/1"  />
           <InterpolatingParam id="1245" interp="linr"  time="0/1" value="0" leadInLength="0/1"  />
          </VectorParam>
          <VectorParam id="1246"  name="geometryCrop">
           <InterpolatingParam id="1247" interp="linr"  time="-9999999/1" value="0" leadInLength="0/1"  />
           <InterpolatingParam id="1248" interp="linr"  time="-9999999/1" value="0" leadInLength="0/1"  />
           <InterpolatingParam id="1249" interp="linr"  time="-9999999/1" value="0" leadInLength="0/1"  />
           <InterpolatingParam id="1250" interp="linr"  time="-9999999/1" value="0" leadInLength="0/1"  />
          </VectorParam>
          <InterpolatingParam id="1251" interp="linr"  time="-9999999/1" value="1" leadInLength="0/1"  name="opacity"/>
          <InterpolatingParam id="1252" interp="linr"  time="0/1" value="1" leadInLength="0/1"  name="cursorOpacity"/>
          <InterpolatingParam id="1253" interp="linr"  time="0/1" value="1" leadInLength="0/1"  name="cursorScale"/>
          <InterpolatingParam id="1254" interp="linr"  time="0/1" value="1" leadInLength="0/1"  name="volume"/>
          <Parameter id="1255"  name="captions"/>
         </Parameters>
         <Attributes>
          <Attribute id="1256" value="" name="ident"/>
          <Attribute id="1257" value="0" name="mixToMono"/>
         </Attributes>
         <MetaData>
          <entry key="WinSubProjectDisplayName" val=""/>
         </MetaData>
         <ExtraData>
          <Entry key="ZoomPanBin">
           <ZoomPanBin id="1258"  >
            <ZoomPanKeyframes>
             <ZoomPanKeyframe id="1259" timeRangeEnd="-9999999/1" timeRangeDuration="0/1" interpolaterName=""  />
            </ZoomPanKeyframes>
           </ZoomPanBin>
          </Entry>
          <Entry key="CursorEffectBin">
           <CursorEffectBin id="1260"  >
            <CursorEffectKeyframes>
            </CursorEffectKeyframes>
           </CursorEffectBin>
          </Entry>
         </ExtraData>
         <GenericTrack id="1261"  >
          <Attributes>
           <Attribute id="1262" value="" name="ident"/>
           <Attribute id="1263" value="0" name="audioMuted"/>
           <Attribute id="1264" value="0" name="videoHidden"/>
          </Attributes>
          <MetaData>
           <entry key="IsLocked" val="False"/>
           <entry key="WinTrackHeight" val="0"/>
          </MetaData>
          <Medias>
           <UnifiedMedia id="1265"  >
            <AMFile id="1266" start="0" duration="598" scalar="1/1" mediaStart="0/1" mediaDuration="598/1" trackNumber="1" src="8" channelNumber="0,1" >
             <Parameters>
              <InterpolatingParam id="1267" interp="linr"  time="0/1" value="1" leadInLength="0/1"  name="volume"/>
              <Parameter id="1268"  name="captions"/>
             </Parameters>
             <Attributes>
              <Attribute id="1269" value="" name="ident"/>
              <Attribute id="1270" value="44100" name="sampleRate"/>
              <Attribute id="1271" value="16" name="bitDepth"/>
              <Attribute id="1272" value="1" name="gain"/>
              <Attribute id="1273" value="0" name="mixToMono"/>
             </Attributes>
            </AMFile>
            <VMFile id="1274" start="0" duration="598" scalar="1/1" mediaStart="0/1" mediaDuration="598/1" trackNumber="0" src="8" >
             <Transformer>
              <VectorParam id="1275"  name="translation">
               <InterpolatingParam id="1276" interp="linr"  time="-9999999/1" value="0" leadInLength="0/1"  />
               <InterpolatingParam id="1277" interp="linr"  time="-9999999/1" value="0" leadInLength="0/1"  />
               <InterpolatingParam id="1278" interp="linr"  time="-9999999/1" value="0" leadInLength="0/1"  />
              </VectorParam>
              <VectorParam id="1279"  name="rotation">
               <InterpolatingParam id="1280" interp="linr"  time="-9999999/1" value="0" leadInLength="0/1"  />
               <InterpolatingParam id="1281" interp="linr"  time="-9999999/1" value="0" leadInLength="0/1"  />
               <InterpolatingParam id="1282" interp="linr"  time="-9999999/1" value="0" leadInLength="0/1"  />
              </VectorParam>
              <VectorParam id="1283"  name="shear">
               <InterpolatingParam id="1284" interp="linr"  time="-9999999/1" value="0" leadInLength="0/1"  />
               <InterpolatingParam id="1285" interp="linr"  time="-9999999/1" value="0" leadInLength="0/1"  />
               <InterpolatingParam id="1286" interp="linr"  time="-9999999/1" value="0" leadInLength="0/1"  />
              </VectorParam>
              <VectorParam id="1287"  name="scale">
               <InterpolatingParam id="1288" interp="linr"  time="-9999999/1" value="1" leadInLength="0/1"  />
               <InterpolatingParam id="1289" interp="linr"  time="-9999999/1" value="1" leadInLength="0/1"  />
               <InterpolatingParam id="1290" interp="linr"  time="-9999999/1" value="1" leadInLength="0/1"  />
              </VectorParam>
              <VectorParam id="1291"  name="anchor">
               <InterpolatingParam id="1292" interp="linr"  time="0/1" value="0" leadInLength="0/1"  />
               <InterpolatingParam id="1293" interp="linr"  time="0/1" value="0" leadInLength="0/1"  />
               <InterpolatingParam id="1294" interp="linr"  time="0/1" value="0" leadInLength="0/1"  />
              </VectorParam>
             </Transformer>
             <Parameters>
              <VectorParam id="1295"  name="sourceCrop">
               <InterpolatingParam id="1296" interp="linr"  time="0/1" value="0" leadInLength="0/1"  />
               <InterpolatingParam id="1297" interp="linr"  time="0/1" value="0" leadInLength="0/1"  />
               <InterpolatingParam id="1298" interp="linr"  time="0/1" value="0" leadInLength="0/1"  />
               <InterpolatingParam id="1299" interp="linr"  time="0/1" value="0" leadInLength="0/1"  />
              </VectorParam>
              <VectorParam id="1300"  name="geometryCrop">
               <InterpolatingParam id="1301" interp="linr"  time="-9999999/1" value="0" leadInLength="0/1"  />
               <InterpolatingParam id="1302" interp="linr"  time="-9999999/1" value="0" leadInLength="0/1"  />
               <InterpolatingParam id="1303" interp="linr"  time="-9999999/1" value="0" leadInLength="0/1"  />
               <InterpolatingParam id="1304" interp="linr"  time="-9999999/1" value="0" leadInLength="0/1"  />
              </VectorParam>
              <InterpolatingParam id="1305" interp="linr"  time="-9999999/1" value="1" leadInLength="0/1"  name="opacity"/>
             </Parameters>
             <Attributes>
              <Attribute id="1306" value="" name="ident"/>
             </Attributes>
             <ExtraData>
              <Entry key="ZoomPanBin">
               <ZoomPanBin id="1307"  >
                <ZoomPanKeyframes>
                 <ZoomPanKeyframe id="1308" timeRangeEnd="-9999999/1" timeRangeDuration="0/1" interpolaterName=""  />
                </ZoomPanKeyframes>
               </ZoomPanBin>
              </Entry>
             </ExtraData>
            </VMFile>
            <MetaData>
             <entry key="WinSubProjectDisplayName" val=""/>
            </MetaData>
           </UnifiedMedia>
           <UnifiedMedia id="1309"  >
            <AMFile id="1310" start="598" duration="93" scalar="1/1" mediaStart="771/1" mediaDuration="93/1" trackNumber="1" src="8" channelNumber="0,1" >
             <Parameters>
              <InterpolatingParam id="1311" interp="linr"  time="0/1" value="1" leadInLength="0/1"  name="volume"/>
              <Parameter id="1312"  name="captions"/>
             </Parameters>
             <Attributes>
              <Attribute id="1313" value="" name="ident"/>
              <Attribute id="1314" value="44100" name="sampleRate"/>
              <Attribute id="1315" value="16" name="bitDepth"/>
              <Attribute id="1316" value="1" name="gain"/>
              <Attribute id="1317" value="0" name="mixToMono"/>
             </Attributes>
            </AMFile>
            <VMFile id="1318" start="598" duration="93" scalar="1/1" mediaStart="771/1" mediaDuration="93/1" trackNumber="0" src="8" >
             <Transformer>
              <VectorParam id="1319"  name="translation">
               <InterpolatingParam id="1320" interp="linr"  time="-9999999/1" value="0" leadInLength="0/1"  />
               <InterpolatingParam id="1321" interp="linr"  time="-9999999/1" value="0" leadInLength="0/1"  />
               <InterpolatingParam id="1322" interp="linr"  time="-9999999/1" value="0" leadInLength="0/1"  />
              </VectorParam>
              <VectorParam id="1323"  name="rotation">
               <InterpolatingParam id="1324" interp="linr"  time="-9999999/1" value="0" leadInLength="0/1"  />
               <InterpolatingParam id="1325" interp="linr"  time="-9999999/1" value="0" leadInLength="0/1"  />
               <InterpolatingParam id="1326" interp="linr"  time="-9999999/1" value="0" leadInLength="0/1"  />
              </VectorParam>
              <VectorParam id="1327"  name="shear">
               <InterpolatingParam id="1328" interp="linr"  time="-9999999/1" value="0" leadInLength="0/1"  />
               <InterpolatingParam id="1329" interp="linr"  time="-9999999/1" value="0" leadInLength="0/1"  />
               <InterpolatingParam id="1330" interp="linr"  time="-9999999/1" value="0" leadInLength="0/1"  />
              </VectorParam>
              <VectorParam id="1331"  name="scale">
               <InterpolatingParam id="1332" interp="linr"  time="-9999999/1" value="1" leadInLength="0/1"  />
               <InterpolatingParam id="1333" interp="linr"  time="-9999999/1" value="1" leadInLength="0/1"  />
               <InterpolatingParam id="1334" interp="linr"  time="-9999999/1" value="1" leadInLength="0/1"  />
              </VectorParam>
              <VectorParam id="1335"  name="anchor">
               <InterpolatingParam id="1336" interp="linr"  time="0/1" value="0" leadInLength="0/1"  />
               <InterpolatingParam id="1337" interp="linr"  time="0/1" value="0" leadInLength="0/1"  />
               <InterpolatingParam id="1338" interp="linr"  time="0/1" value="0" leadInLength="0/1"  />
              </VectorParam>
             </Transformer>
             <Parameters>
              <VectorParam id="1339"  name="sourceCrop">
               <InterpolatingParam id="1340" interp="linr"  time="0/1" value="0" leadInLength="0/1"  />
               <InterpolatingParam id="1341" interp="linr"  time="0/1" value="0" leadInLength="0/1"  />
               <InterpolatingParam id="1342" interp="linr"  time="0/1" value="0" leadInLength="0/1"  />
               <InterpolatingParam id="1343" interp="linr"  time="0/1" value="0" leadInLength="0/1"  />
              </VectorParam>
              <VectorParam id="1344"  name="geometryCrop">
               <InterpolatingParam id="1345" interp="linr"  time="-9999999/1" value="0" leadInLength="0/1"  />
               <InterpolatingParam id="1346" interp="linr"  time="-9999999/1" value="0" leadInLength="0/1"  />
               <InterpolatingParam id="1347" interp="linr"  time="-9999999/1" value="0" leadInLength="0/1"  />
               <InterpolatingParam id="1348" interp="linr"  time="-9999999/1" value="0" leadInLength="0/1"  />
              </VectorParam>
              <InterpolatingParam id="1349" interp="linr"  time="-9999999/1" value="1" leadInLength="0/1"  name="opacity"/>
             </Parameters>
             <Attributes>
              <Attribute id="1350" value="" name="ident"/>
             </Attributes>
             <ExtraData>
              <Entry key="ZoomPanBin">
               <ZoomPanBin id="1351"  >
                <ZoomPanKeyframes>
                 <ZoomPanKeyframe id="1352" timeRangeEnd="-9999999/1" timeRangeDuration="0/1" interpolaterName=""  />
                </ZoomPanKeyframes>
               </ZoomPanBin>
              </Entry>
             </ExtraData>
            </VMFile>
            <MetaData>
             <entry key="WinSubProjectDisplayName" val=""/>
            </MetaData>
           </UnifiedMedia>
          </Medias>
         </GenericTrack>
        </StitchedMedia>
        <StitchedMedia id="1353" start="947" duration="10" scalar="1/1" mediaStart="408/1" mediaDuration="10/1" minMediaStart="0/1" >
         <Transformer>
          <VectorParam id="1354"  name="translation">
           <InterpolatingParam id="1355" interp="linr"  time="-9999999/1" value="0" leadInLength="0/1"  />
           <InterpolatingParam id="1356" interp="linr"  time="-9999999/1" value="0" leadInLength="0/1"  />
           <InterpolatingParam id="1357" interp="linr"  time="-9999999/1" value="0" leadInLength="0/1"  />
          </VectorParam>
          <VectorParam id="1358"  name="rotation">
           <InterpolatingParam id="1359" interp="linr"  time="-9999999/1" value="0" leadInLength="0/1"  />
           <InterpolatingParam id="1360" interp="linr"  time="-9999999/1" value="0" leadInLength="0/1"  />
           <InterpolatingParam id="1361" interp="linr"  time="-9999999/1" value="0" leadInLength="0/1"  />
          </VectorParam>
          <VectorParam id="1362"  name="shear">
           <InterpolatingParam id="1363" interp="linr"  time="-9999999/1" value="0" leadInLength="0/1"  />
           <InterpolatingParam id="1364" interp="linr"  time="-9999999/1" value="0" leadInLength="0/1"  />
           <InterpolatingParam id="1365" interp="linr"  time="-9999999/1" value="0" leadInLength="0/1"  />
          </VectorParam>
          <VectorParam id="1366"  name="scale">
           <InterpolatingParam id="1367" interp="linr"  time="-9999999/1" value="0.59999999999999998" leadInLength="0/1"  />
           <InterpolatingParam id="1368" interp="linr"  time="-9999999/1" value="0.59999999999999998" leadInLength="0/1"  />
           <InterpolatingParam id="1369" interp="linr"  time="-9999999/1" value="1" leadInLength="0/1"  />
          </VectorParam>
          <VectorParam id="1370"  name="anchor">
           <InterpolatingParam id="1371" interp="linr"  time="0/1" value="0" leadInLength="0/1"  />
           <InterpolatingParam id="1372" interp="linr"  time="0/1" value="0" leadInLength="0/1"  />
           <InterpolatingParam id="1373" interp="linr"  time="0/1" value="0" leadInLength="0/1"  />
          </VectorParam>
         </Transformer>
         <Parameters>
          <VectorParam id="1374"  name="sourceCrop">
           <InterpolatingParam id="1375" interp="linr"  time="0/1" value="0" leadInLength="0/1"  />
           <InterpolatingParam id="1376" interp="linr"  time="0/1" value="0" leadInLength="0/1"  />
           <InterpolatingParam id="1377" interp="linr"  time="0/1" value="0" leadInLength="0/1"  />
           <InterpolatingParam id="1378" interp="linr"  time="0/1" value="0" leadInLength="0/1"  />
          </VectorParam>
          <VectorParam id="1379"  name="geometryCrop">
           <InterpolatingParam id="1380" interp="linr"  time="-9999999/1" value="0" leadInLength="0/1"  />
           <InterpolatingParam id="1381" interp="linr"  time="-9999999/1" value="0" leadInLength="0/1"  />
           <InterpolatingParam id="1382" interp="linr"  time="-9999999/1" value="0" leadInLength="0/1"  />
           <InterpolatingParam id="1383" interp="linr"  time="-9999999/1" value="0" leadInLength="0/1"  />
          </VectorParam>
          <InterpolatingParam id="1384" interp="linr"  time="-9999999/1" value="1" leadInLength="0/1"  name="opacity"/>
          <InterpolatingParam id="1385" interp="linr"  time="0/1" value="1" leadInLength="0/1"  name="cursorOpacity"/>
          <InterpolatingParam id="1386" interp="linr"  time="0/1" value="1" leadInLength="0/1"  name="cursorScale"/>
          <InterpolatingParam id="1387" interp="linr"  time="0/1" value="1" leadInLength="0/1"  name="volume"/>
          <Parameter id="1388"  name="captions"/>
         </Parameters>
         <Attributes>
          <Attribute id="1389" value="" name="ident"/>
          <Attribute id="1390" value="0" name="mixToMono"/>
         </Attributes>
         <MetaData>
          <entry key="WinSubProjectDisplayName" val=""/>
         </MetaData>
         <ExtraData>
          <Entry key="ZoomPanBin">
           <ZoomPanBin id="1391"  >
            <ZoomPanKeyframes>
             <ZoomPanKeyframe id="1392" timeRangeEnd="-9999999/1" timeRangeDuration="0/1" interpolaterName=""  />
            </ZoomPanKeyframes>
           </ZoomPanBin>
          </Entry>
          <Entry key="CursorEffectBin">
           <CursorEffectBin id="1393"  >
            <CursorEffectKeyframes>
            </CursorEffectKeyframes>
           </CursorEffectBin>
          </Entry>
         </ExtraData>
         <GenericTrack id="1394"  >
          <Attributes>
           <Attribute id="1395" value="" name="ident"/>
           <Attribute id="1396" value="0" name="audioMuted"/>
           <Attribute id="1397" value="0" name="videoHidden"/>
          </Attributes>
          <MetaData>
           <entry key="IsLocked" val="False"/>
           <entry key="WinTrackHeight" val="0"/>
          </MetaData>
          <Medias>
           <UnifiedMedia id="1398"  >
            <AMFile id="1399" start="0" duration="598" scalar="1/1" mediaStart="0/1" mediaDuration="598/1" trackNumber="1" src="8" channelNumber="0,1" >
             <Parameters>
              <InterpolatingParam id="1400" interp="linr"  time="0/1" value="1" leadInLength="0/1"  name="volume"/>
              <Parameter id="1401"  name="captions"/>
             </Parameters>
             <Attributes>
              <Attribute id="1402" value="" name="ident"/>
              <Attribute id="1403" value="44100" name="sampleRate"/>
              <Attribute id="1404" value="16" name="bitDepth"/>
              <Attribute id="1405" value="1" name="gain"/>
              <Attribute id="1406" value="0" name="mixToMono"/>
             </Attributes>
            </AMFile>
            <VMFile id="1407" start="0" duration="598" scalar="1/1" mediaStart="0/1" mediaDuration="598/1" trackNumber="0" src="8" >
             <Transformer>
              <VectorParam id="1408"  name="translation">
               <InterpolatingParam id="1409" interp="linr"  time="-9999999/1" value="0" leadInLength="0/1"  />
               <InterpolatingParam id="1410" interp="linr"  time="-9999999/1" value="0" leadInLength="0/1"  />
               <InterpolatingParam id="1411" interp="linr"  time="-9999999/1" value="0" leadInLength="0/1"  />
              </VectorParam>
              <VectorParam id="1412"  name="rotation">
               <InterpolatingParam id="1413" interp="linr"  time="-9999999/1" value="0" leadInLength="0/1"  />
               <InterpolatingParam id="1414" interp="linr"  time="-9999999/1" value="0" leadInLength="0/1"  />
               <InterpolatingParam id="1415" interp="linr"  time="-9999999/1" value="0" leadInLength="0/1"  />
              </VectorParam>
              <VectorParam id="1416"  name="shear">
               <InterpolatingParam id="1417" interp="linr"  time="-9999999/1" value="0" leadInLength="0/1"  />
               <InterpolatingParam id="1418" interp="linr"  time="-9999999/1" value="0" leadInLength="0/1"  />
               <InterpolatingParam id="1419" interp="linr"  time="-9999999/1" value="0" leadInLength="0/1"  />
              </VectorParam>
              <VectorParam id="1420"  name="scale">
               <InterpolatingParam id="1421" interp="linr"  time="-9999999/1" value="1" leadInLength="0/1"  />
               <InterpolatingParam id="1422" interp="linr"  time="-9999999/1" value="1" leadInLength="0/1"  />
               <InterpolatingParam id="1423" interp="linr"  time="-9999999/1" value="1" leadInLength="0/1"  />
              </VectorParam>
              <VectorParam id="1424"  name="anchor">
               <InterpolatingParam id="1425" interp="linr"  time="0/1" value="0" leadInLength="0/1"  />
               <InterpolatingParam id="1426" interp="linr"  time="0/1" value="0" leadInLength="0/1"  />
               <InterpolatingParam id="1427" interp="linr"  time="0/1" value="0" leadInLength="0/1"  />
              </VectorParam>
             </Transformer>
             <Parameters>
              <VectorParam id="1428"  name="sourceCrop">
               <InterpolatingParam id="1429" interp="linr"  time="0/1" value="0" leadInLength="0/1"  />
               <InterpolatingParam id="1430" interp="linr"  time="0/1" value="0" leadInLength="0/1"  />
               <InterpolatingParam id="1431" interp="linr"  time="0/1" value="0" leadInLength="0/1"  />
               <InterpolatingParam id="1432" interp="linr"  time="0/1" value="0" leadInLength="0/1"  />
              </VectorParam>
              <VectorParam id="1433"  name="geometryCrop">
               <InterpolatingParam id="1434" interp="linr"  time="-9999999/1" value="0" leadInLength="0/1"  />
               <InterpolatingParam id="1435" interp="linr"  time="-9999999/1" value="0" leadInLength="0/1"  />
               <InterpolatingParam id="1436" interp="linr"  time="-9999999/1" value="0" leadInLength="0/1"  />
               <InterpolatingParam id="1437" interp="linr"  time="-9999999/1" value="0" leadInLength="0/1"  />
              </VectorParam>
              <InterpolatingParam id="1438" interp="linr"  time="-9999999/1" value="1" leadInLength="0/1"  name="opacity"/>
             </Parameters>
             <Attributes>
              <Attribute id="1439" value="" name="ident"/>
             </Attributes>
             <ExtraData>
              <Entry key="ZoomPanBin">
               <ZoomPanBin id="1440"  >
                <ZoomPanKeyframes>
                 <ZoomPanKeyframe id="1441" timeRangeEnd="-9999999/1" timeRangeDuration="0/1" interpolaterName=""  />
                </ZoomPanKeyframes>
               </ZoomPanBin>
              </Entry>
             </ExtraData>
            </VMFile>
            <MetaData>
             <entry key="WinSubProjectDisplayName" val=""/>
            </MetaData>
           </UnifiedMedia>
           <UnifiedMedia id="1442"  >
            <AMFile id="1443" start="598" duration="93" scalar="1/1" mediaStart="771/1" mediaDuration="93/1" trackNumber="1" src="8" channelNumber="0,1" >
             <Parameters>
              <InterpolatingParam id="1444" interp="linr"  time="0/1" value="1" leadInLength="0/1"  name="volume"/>
              <Parameter id="1445"  name="captions"/>
             </Parameters>
             <Attributes>
              <Attribute id="1446" value="" name="ident"/>
              <Attribute id="1447" value="44100" name="sampleRate"/>
              <Attribute id="1448" value="16" name="bitDepth"/>
              <Attribute id="1449" value="1" name="gain"/>
              <Attribute id="1450" value="0" name="mixToMono"/>
             </Attributes>
            </AMFile>
            <VMFile id="1451" start="598" duration="93" scalar="1/1" mediaStart="771/1" mediaDuration="93/1" trackNumber="0" src="8" >
             <Transformer>
              <VectorParam id="1452"  name="translation">
               <InterpolatingParam id="1453" interp="linr"  time="-9999999/1" value="0" leadInLength="0/1"  />
               <InterpolatingParam id="1454" interp="linr"  time="-9999999/1" value="0" leadInLength="0/1"  />
               <InterpolatingParam id="1455" interp="linr"  time="-9999999/1" value="0" leadInLength="0/1"  />
              </VectorParam>
              <VectorParam id="1456"  name="rotation">
               <InterpolatingParam id="1457" interp="linr"  time="-9999999/1" value="0" leadInLength="0/1"  />
               <InterpolatingParam id="1458" interp="linr"  time="-9999999/1" value="0" leadInLength="0/1"  />
               <InterpolatingParam id="1459" interp="linr"  time="-9999999/1" value="0" leadInLength="0/1"  />
              </VectorParam>
              <VectorParam id="1460"  name="shear">
               <InterpolatingParam id="1461" interp="linr"  time="-9999999/1" value="0" leadInLength="0/1"  />
               <InterpolatingParam id="1462" interp="linr"  time="-9999999/1" value="0" leadInLength="0/1"  />
               <InterpolatingParam id="1463" interp="linr"  time="-9999999/1" value="0" leadInLength="0/1"  />
              </VectorParam>
              <VectorParam id="1464"  name="scale">
               <InterpolatingParam id="1465" interp="linr"  time="-9999999/1" value="1" leadInLength="0/1"  />
               <InterpolatingParam id="1466" interp="linr"  time="-9999999/1" value="1" leadInLength="0/1"  />
               <InterpolatingParam id="1467" interp="linr"  time="-9999999/1" value="1" leadInLength="0/1"  />
              </VectorParam>
              <VectorParam id="1468"  name="anchor">
               <InterpolatingParam id="1469" interp="linr"  time="0/1" value="0" leadInLength="0/1"  />
               <InterpolatingParam id="1470" interp="linr"  time="0/1" value="0" leadInLength="0/1"  />
               <InterpolatingParam id="1471" interp="linr"  time="0/1" value="0" leadInLength="0/1"  />
              </VectorParam>
             </Transformer>
             <Parameters>
              <VectorParam id="1472"  name="sourceCrop">
               <InterpolatingParam id="1473" interp="linr"  time="0/1" value="0" leadInLength="0/1"  />
               <InterpolatingParam id="1474" interp="linr"  time="0/1" value="0" leadInLength="0/1"  />
               <InterpolatingParam id="1475" interp="linr"  time="0/1" value="0" leadInLength="0/1"  />
               <InterpolatingParam id="1476" interp="linr"  time="0/1" value="0" leadInLength="0/1"  />
              </VectorParam>
              <VectorParam id="1477"  name="geometryCrop">
               <InterpolatingParam id="1478" interp="linr"  time="-9999999/1" value="0" leadInLength="0/1"  />
               <InterpolatingParam id="1479" interp="linr"  time="-9999999/1" value="0" leadInLength="0/1"  />
               <InterpolatingParam id="1480" interp="linr"  time="-9999999/1" value="0" leadInLength="0/1"  />
               <InterpolatingParam id="1481" interp="linr"  time="-9999999/1" value="0" leadInLength="0/1"  />
              </VectorParam>
              <InterpolatingParam id="1482" interp="linr"  time="-9999999/1" value="1" leadInLength="0/1"  name="opacity"/>
             </Parameters>
             <Attributes>
              <Attribute id="1483" value="" name="ident"/>
             </Attributes>
             <ExtraData>
              <Entry key="ZoomPanBin">
               <ZoomPanBin id="1484"  >
                <ZoomPanKeyframes>
                 <ZoomPanKeyframe id="1485" timeRangeEnd="-9999999/1" timeRangeDuration="0/1" interpolaterName=""  />
                </ZoomPanKeyframes>
               </ZoomPanBin>
              </Entry>
             </ExtraData>
            </VMFile>
            <MetaData>
             <entry key="WinSubProjectDisplayName" val=""/>
            </MetaData>
           </UnifiedMedia>
          </Medias>
         </GenericTrack>
        </StitchedMedia>
        <StitchedMedia id="1486" start="957" duration="7" scalar="1/1" mediaStart="418/1" mediaDuration="7/1" minMediaStart="0/1" >
         <Transformer>
          <VectorParam id="1487"  name="translation">
           <InterpolatingParam id="1488" interp="linr"  time="-9999999/1" value="0" leadInLength="0/1"  />
           <InterpolatingParam id="1489" interp="linr"  time="-9999999/1" value="0" leadInLength="0/1"  />
           <InterpolatingParam id="1490" interp="linr"  time="-9999999/1" value="0" leadInLength="0/1"  />
          </VectorParam>
          <VectorParam id="1491"  name="rotation">
           <InterpolatingParam id="1492" interp="linr"  time="-9999999/1" value="0" leadInLength="0/1"  />
           <InterpolatingParam id="1493" interp="linr"  time="-9999999/1" value="0" leadInLength="0/1"  />
           <InterpolatingParam id="1494" interp="linr"  time="-9999999/1" value="0" leadInLength="0/1"  />
          </VectorParam>
          <VectorParam id="1495"  name="shear">
           <InterpolatingParam id="1496" interp="linr"  time="-9999999/1" value="0" leadInLength="0/1"  />
           <InterpolatingParam id="1497" interp="linr"  time="-9999999/1" value="0" leadInLength="0/1"  />
           <InterpolatingParam id="1498" interp="linr"  time="-9999999/1" value="0" leadInLength="0/1"  />
          </VectorParam>
          <VectorParam id="1499"  name="scale">
           <InterpolatingParam id="1500" interp="linr"  time="-9999999/1" value="0.59999999999999998" leadInLength="0/1"  />
           <InterpolatingParam id="1501" interp="linr"  time="-9999999/1" value="0.59999999999999998" leadInLength="0/1"  />
           <InterpolatingParam id="1502" interp="linr"  time="-9999999/1" value="1" leadInLength="0/1"  />
          </VectorParam>
          <VectorParam id="1503"  name="anchor">
           <InterpolatingParam id="1504" interp="linr"  time="0/1" value="0" leadInLength="0/1"  />
           <InterpolatingParam id="1505" interp="linr"  time="0/1" value="0" leadInLength="0/1"  />
           <InterpolatingParam id="1506" interp="linr"  time="0/1" value="0" leadInLength="0/1"  />
          </VectorParam>
         </Transformer>
         <Parameters>
          <VectorParam id="1507"  name="sourceCrop">
           <InterpolatingParam id="1508" interp="linr"  time="0/1" value="0" leadInLength="0/1"  />
           <InterpolatingParam id="1509" interp="linr"  time="0/1" value="0" leadInLength="0/1"  />
           <InterpolatingParam id="1510" interp="linr"  time="0/1" value="0" leadInLength="0/1"  />
           <InterpolatingParam id="1511" interp="linr"  time="0/1" value="0" leadInLength="0/1"  />
          </VectorParam>
          <VectorParam id="1512"  name="geometryCrop">
           <InterpolatingParam id="1513" interp="linr"  time="-9999999/1" value="0" leadInLength="0/1"  />
           <InterpolatingParam id="1514" interp="linr"  time="-9999999/1" value="0" leadInLength="0/1"  />
           <InterpolatingParam id="1515" interp="linr"  time="-9999999/1" value="0" leadInLength="0/1"  />
           <InterpolatingParam id="1516" interp="linr"  time="-9999999/1" value="0" leadInLength="0/1"  />
          </VectorParam>
          <InterpolatingParam id="1517" interp="linr"  time="-9999999/1" value="1" leadInLength="0/1"  name="opacity"/>
          <InterpolatingParam id="1518" interp="linr"  time="0/1" value="1" leadInLength="0/1"  name="cursorOpacity"/>
          <InterpolatingParam id="1519" interp="linr"  time="0/1" value="1" leadInLength="0/1"  name="cursorScale"/>
          <InterpolatingParam id="1520" interp="linr"  time="0/1" value="1" leadInLength="0/1"  name="volume"/>
          <Parameter id="1521"  name="captions"/>
         </Parameters>
         <Attributes>
          <Attribute id="1522" value="" name="ident"/>
          <Attribute id="1523" value="0" name="mixToMono"/>
         </Attributes>
         <MetaData>
          <entry key="WinSubProjectDisplayName" val=""/>
         </MetaData>
         <ExtraData>
          <Entry key="ZoomPanBin">
           <ZoomPanBin id="1524"  >
            <ZoomPanKeyframes>
             <ZoomPanKeyframe id="1525" timeRangeEnd="-9999999/1" timeRangeDuration="0/1" interpolaterName=""  />
            </ZoomPanKeyframes>
           </ZoomPanBin>
          </Entry>
          <Entry key="CursorEffectBin">
           <CursorEffectBin id="1526"  >
            <CursorEffectKeyframes>
            </CursorEffectKeyframes>
           </CursorEffectBin>
          </Entry>
         </ExtraData>
         <GenericTrack id="1527"  >
          <Attributes>
           <Attribute id="1528" value="" name="ident"/>
           <Attribute id="1529" value="0" name="audioMuted"/>
           <Attribute id="1530" value="0" name="videoHidden"/>
          </Attributes>
          <MetaData>
           <entry key="IsLocked" val="False"/>
           <entry key="WinTrackHeight" val="0"/>
          </MetaData>
          <Medias>
           <UnifiedMedia id="1531"  >
            <AMFile id="1532" start="0" duration="598" scalar="1/1" mediaStart="0/1" mediaDuration="598/1" trackNumber="1" src="8" channelNumber="0,1" >
             <Parameters>
              <InterpolatingParam id="1533" interp="linr"  time="0/1" value="1" leadInLength="0/1"  name="volume"/>
              <Parameter id="1534"  name="captions"/>
             </Parameters>
             <Attributes>
              <Attribute id="1535" value="" name="ident"/>
              <Attribute id="1536" value="44100" name="sampleRate"/>
              <Attribute id="1537" value="16" name="bitDepth"/>
              <Attribute id="1538" value="1" name="gain"/>
              <Attribute id="1539" value="0" name="mixToMono"/>
             </Attributes>
            </AMFile>
            <VMFile id="1540" start="0" duration="598" scalar="1/1" mediaStart="0/1" mediaDuration="598/1" trackNumber="0" src="8" >
             <Transformer>
              <VectorParam id="1541"  name="translation">
               <InterpolatingParam id="1542" interp="linr"  time="-9999999/1" value="0" leadInLength="0/1"  />
               <InterpolatingParam id="1543" interp="linr"  time="-9999999/1" value="0" leadInLength="0/1"  />
               <InterpolatingParam id="1544" interp="linr"  time="-9999999/1" value="0" leadInLength="0/1"  />
              </VectorParam>
              <VectorParam id="1545"  name="rotation">
               <InterpolatingParam id="1546" interp="linr"  time="-9999999/1" value="0" leadInLength="0/1"  />
               <InterpolatingParam id="1547" interp="linr"  time="-9999999/1" value="0" leadInLength="0/1"  />
               <InterpolatingParam id="1548" interp="linr"  time="-9999999/1" value="0" leadInLength="0/1"  />
              </VectorParam>
              <VectorParam id="1549"  name="shear">
               <InterpolatingParam id="1550" interp="linr"  time="-9999999/1" value="0" leadInLength="0/1"  />
               <InterpolatingParam id="1551" interp="linr"  time="-9999999/1" value="0" leadInLength="0/1"  />
               <InterpolatingParam id="1552" interp="linr"  time="-9999999/1" value="0" leadInLength="0/1"  />
              </VectorParam>
              <VectorParam id="1553"  name="scale">
               <InterpolatingParam id="1554" interp="linr"  time="-9999999/1" value="1" leadInLength="0/1"  />
               <InterpolatingParam id="1555" interp="linr"  time="-9999999/1" value="1" leadInLength="0/1"  />
               <InterpolatingParam id="1556" interp="linr"  time="-9999999/1" value="1" leadInLength="0/1"  />
              </VectorParam>
              <VectorParam id="1557"  name="anchor">
               <InterpolatingParam id="1558" interp="linr"  time="0/1" value="0" leadInLength="0/1"  />
               <InterpolatingParam id="1559" interp="linr"  time="0/1" value="0" leadInLength="0/1"  />
               <InterpolatingParam id="1560" interp="linr"  time="0/1" value="0" leadInLength="0/1"  />
              </VectorParam>
             </Transformer>
             <Parameters>
              <VectorParam id="1561"  name="sourceCrop">
               <InterpolatingParam id="1562" interp="linr"  time="0/1" value="0" leadInLength="0/1"  />
               <InterpolatingParam id="1563" interp="linr"  time="0/1" value="0" leadInLength="0/1"  />
               <InterpolatingParam id="1564" interp="linr"  time="0/1" value="0" leadInLength="0/1"  />
               <InterpolatingParam id="1565" interp="linr"  time="0/1" value="0" leadInLength="0/1"  />
              </VectorParam>
              <VectorParam id="1566"  name="geometryCrop">
               <InterpolatingParam id="1567" interp="linr"  time="-9999999/1" value="0" leadInLength="0/1"  />
               <InterpolatingParam id="1568" interp="linr"  time="-9999999/1" value="0" leadInLength="0/1"  />
               <InterpolatingParam id="1569" interp="linr"  time="-9999999/1" value="0" leadInLength="0/1"  />
               <InterpolatingParam id="1570" interp="linr"  time="-9999999/1" value="0" leadInLength="0/1"  />
              </VectorParam>
              <InterpolatingParam id="1571" interp="linr"  time="-9999999/1" value="1" leadInLength="0/1"  name="opacity"/>
             </Parameters>
             <Attributes>
              <Attribute id="1572" value="" name="ident"/>
             </Attributes>
             <ExtraData>
              <Entry key="ZoomPanBin">
               <ZoomPanBin id="1573"  >
                <ZoomPanKeyframes>
                 <ZoomPanKeyframe id="1574" timeRangeEnd="-9999999/1" timeRangeDuration="0/1" interpolaterName=""  />
                </ZoomPanKeyframes>
               </ZoomPanBin>
              </Entry>
             </ExtraData>
            </VMFile>
            <MetaData>
             <entry key="WinSubProjectDisplayName" val=""/>
            </MetaData>
           </UnifiedMedia>
           <UnifiedMedia id="1575"  >
            <AMFile id="1576" start="598" duration="93" scalar="1/1" mediaStart="771/1" mediaDuration="93/1" trackNumber="1" src="8" channelNumber="0,1" >
             <Parameters>
              <InterpolatingParam id="1577" interp="linr"  time="0/1" value="1" leadInLength="0/1"  name="volume"/>
              <Parameter id="1578"  name="captions"/>
             </Parameters>
             <Attributes>
              <Attribute id="1579" value="" name="ident"/>
              <Attribute id="1580" value="44100" name="sampleRate"/>
              <Attribute id="1581" value="16" name="bitDepth"/>
              <Attribute id="1582" value="1" name="gain"/>
              <Attribute id="1583" value="0" name="mixToMono"/>
             </Attributes>
            </AMFile>
            <VMFile id="1584" start="598" duration="93" scalar="1/1" mediaStart="771/1" mediaDuration="93/1" trackNumber="0" src="8" >
             <Transformer>
              <VectorParam id="1585"  name="translation">
               <InterpolatingParam id="1586" interp="linr"  time="-9999999/1" value="0" leadInLength="0/1"  />
               <InterpolatingParam id="1587" interp="linr"  time="-9999999/1" value="0" leadInLength="0/1"  />
               <InterpolatingParam id="1588" interp="linr"  time="-9999999/1" value="0" leadInLength="0/1"  />
              </VectorParam>
              <VectorParam id="1589"  name="rotation">
               <InterpolatingParam id="1590" interp="linr"  time="-9999999/1" value="0" leadInLength="0/1"  />
               <InterpolatingParam id="1591" interp="linr"  time="-9999999/1" value="0" leadInLength="0/1"  />
               <InterpolatingParam id="1592" interp="linr"  time="-9999999/1" value="0" leadInLength="0/1"  />
              </VectorParam>
              <VectorParam id="1593"  name="shear">
               <InterpolatingParam id="1594" interp="linr"  time="-9999999/1" value="0" leadInLength="0/1"  />
               <InterpolatingParam id="1595" interp="linr"  time="-9999999/1" value="0" leadInLength="0/1"  />
               <InterpolatingParam id="1596" interp="linr"  time="-9999999/1" value="0" leadInLength="0/1"  />
              </VectorParam>
              <VectorParam id="1597"  name="scale">
               <InterpolatingParam id="1598" interp="linr"  time="-9999999/1" value="1" leadInLength="0/1"  />
               <InterpolatingParam id="1599" interp="linr"  time="-9999999/1" value="1" leadInLength="0/1"  />
               <InterpolatingParam id="1600" interp="linr"  time="-9999999/1" value="1" leadInLength="0/1"  />
              </VectorParam>
              <VectorParam id="1601"  name="anchor">
               <InterpolatingParam id="1602" interp="linr"  time="0/1" value="0" leadInLength="0/1"  />
               <InterpolatingParam id="1603" interp="linr"  time="0/1" value="0" leadInLength="0/1"  />
               <InterpolatingParam id="1604" interp="linr"  time="0/1" value="0" leadInLength="0/1"  />
              </VectorParam>
             </Transformer>
             <Parameters>
              <VectorParam id="1605"  name="sourceCrop">
               <InterpolatingParam id="1606" interp="linr"  time="0/1" value="0" leadInLength="0/1"  />
               <InterpolatingParam id="1607" interp="linr"  time="0/1" value="0" leadInLength="0/1"  />
               <InterpolatingParam id="1608" interp="linr"  time="0/1" value="0" leadInLength="0/1"  />
               <InterpolatingParam id="1609" interp="linr"  time="0/1" value="0" leadInLength="0/1"  />
              </VectorParam>
              <VectorParam id="1610"  name="geometryCrop">
               <InterpolatingParam id="1611" interp="linr"  time="-9999999/1" value="0" leadInLength="0/1"  />
               <InterpolatingParam id="1612" interp="linr"  time="-9999999/1" value="0" leadInLength="0/1"  />
               <InterpolatingParam id="1613" interp="linr"  time="-9999999/1" value="0" leadInLength="0/1"  />
               <InterpolatingParam id="1614" interp="linr"  time="-9999999/1" value="0" leadInLength="0/1"  />
              </VectorParam>
              <InterpolatingParam id="1615" interp="linr"  time="-9999999/1" value="1" leadInLength="0/1"  name="opacity"/>
             </Parameters>
             <Attributes>
              <Attribute id="1616" value="" name="ident"/>
             </Attributes>
             <ExtraData>
              <Entry key="ZoomPanBin">
               <ZoomPanBin id="1617"  >
                <ZoomPanKeyframes>
                 <ZoomPanKeyframe id="1618" timeRangeEnd="-9999999/1" timeRangeDuration="0/1" interpolaterName=""  />
                </ZoomPanKeyframes>
               </ZoomPanBin>
              </Entry>
             </ExtraData>
            </VMFile>
            <MetaData>
             <entry key="WinSubProjectDisplayName" val=""/>
            </MetaData>
           </UnifiedMedia>
          </Medias>
         </GenericTrack>
        </StitchedMedia>
        <StitchedMedia id="1619" start="964" duration="5" scalar="1/1" mediaStart="425/1" mediaDuration="5/1" minMediaStart="0/1" >
         <Transformer>
          <VectorParam id="1620"  name="translation">
           <InterpolatingParam id="1621" interp="linr"  time="-9999999/1" value="0" leadInLength="0/1"  />
           <InterpolatingParam id="1622" interp="linr"  time="-9999999/1" value="0" leadInLength="0/1"  />
           <InterpolatingParam id="1623" interp="linr"  time="-9999999/1" value="0" leadInLength="0/1"  />
          </VectorParam>
          <VectorParam id="1624"  name="rotation">
           <InterpolatingParam id="1625" interp="linr"  time="-9999999/1" value="0" leadInLength="0/1"  />
           <InterpolatingParam id="1626" interp="linr"  time="-9999999/1" value="0" leadInLength="0/1"  />
           <InterpolatingParam id="1627" interp="linr"  time="-9999999/1" value="0" leadInLength="0/1"  />
          </VectorParam>
          <VectorParam id="1628"  name="shear">
           <InterpolatingParam id="1629" interp="linr"  time="-9999999/1" value="0" leadInLength="0/1"  />
           <InterpolatingParam id="1630" interp="linr"  time="-9999999/1" value="0" leadInLength="0/1"  />
           <InterpolatingParam id="1631" interp="linr"  time="-9999999/1" value="0" leadInLength="0/1"  />
          </VectorParam>
          <VectorParam id="1632"  name="scale">
           <InterpolatingParam id="1633" interp="linr"  time="-9999999/1" value="0.59999999999999998" leadInLength="0/1"  />
           <InterpolatingParam id="1634" interp="linr"  time="-9999999/1" value="0.59999999999999998" leadInLength="0/1"  />
           <InterpolatingParam id="1635" interp="linr"  time="-9999999/1" value="1" leadInLength="0/1"  />
          </VectorParam>
          <VectorParam id="1636"  name="anchor">
           <InterpolatingParam id="1637" interp="linr"  time="0/1" value="0" leadInLength="0/1"  />
           <InterpolatingParam id="1638" interp="linr"  time="0/1" value="0" leadInLength="0/1"  />
           <InterpolatingParam id="1639" interp="linr"  time="0/1" value="0" leadInLength="0/1"  />
          </VectorParam>
         </Transformer>
         <Parameters>
          <VectorParam id="1640"  name="sourceCrop">
           <InterpolatingParam id="1641" interp="linr"  time="0/1" value="0" leadInLength="0/1"  />
           <InterpolatingParam id="1642" interp="linr"  time="0/1" value="0" leadInLength="0/1"  />
           <InterpolatingParam id="1643" interp="linr"  time="0/1" value="0" leadInLength="0/1"  />
           <InterpolatingParam id="1644" interp="linr"  time="0/1" value="0" leadInLength="0/1"  />
          </VectorParam>
          <VectorParam id="1645"  name="geometryCrop">
           <InterpolatingParam id="1646" interp="linr"  time="-9999999/1" value="0" leadInLength="0/1"  />
           <InterpolatingParam id="1647" interp="linr"  time="-9999999/1" value="0" leadInLength="0/1"  />
           <InterpolatingParam id="1648" interp="linr"  time="-9999999/1" value="0" leadInLength="0/1"  />
           <InterpolatingParam id="1649" interp="linr"  time="-9999999/1" value="0" leadInLength="0/1"  />
          </VectorParam>
          <InterpolatingParam id="1650" interp="linr"  time="-9999999/1" value="1" leadInLength="0/1"  name="opacity"/>
          <InterpolatingParam id="1651" interp="linr"  time="0/1" value="1" leadInLength="0/1"  name="cursorOpacity"/>
          <InterpolatingParam id="1652" interp="linr"  time="0/1" value="1" leadInLength="0/1"  name="cursorScale"/>
          <InterpolatingParam id="1653" interp="linr"  time="0/1" value="1" leadInLength="0/1"  name="volume"/>
          <Parameter id="1654"  name="captions"/>
         </Parameters>
         <Attributes>
          <Attribute id="1655" value="" name="ident"/>
          <Attribute id="1656" value="0" name="mixToMono"/>
         </Attributes>
         <MetaData>
          <entry key="WinSubProjectDisplayName" val=""/>
         </MetaData>
         <ExtraData>
          <Entry key="ZoomPanBin">
           <ZoomPanBin id="1657"  >
            <ZoomPanKeyframes>
             <ZoomPanKeyframe id="1658" timeRangeEnd="-9999999/1" timeRangeDuration="0/1" interpolaterName=""  />
            </ZoomPanKeyframes>
           </ZoomPanBin>
          </Entry>
          <Entry key="CursorEffectBin">
           <CursorEffectBin id="1659"  >
            <CursorEffectKeyframes>
            </CursorEffectKeyframes>
           </CursorEffectBin>
          </Entry>
         </ExtraData>
         <GenericTrack id="1660"  >
          <Attributes>
           <Attribute id="1661" value="" name="ident"/>
           <Attribute id="1662" value="0" name="audioMuted"/>
           <Attribute id="1663" value="0" name="videoHidden"/>
          </Attributes>
          <MetaData>
           <entry key="IsLocked" val="False"/>
           <entry key="WinTrackHeight" val="0"/>
          </MetaData>
          <Medias>
           <UnifiedMedia id="1664"  >
            <AMFile id="1665" start="0" duration="598" scalar="1/1" mediaStart="0/1" mediaDuration="598/1" trackNumber="1" src="8" channelNumber="0,1" >
             <Parameters>
              <InterpolatingParam id="1666" interp="linr"  time="0/1" value="1" leadInLength="0/1"  name="volume"/>
              <Parameter id="1667"  name="captions"/>
             </Parameters>
             <Attributes>
              <Attribute id="1668" value="" name="ident"/>
              <Attribute id="1669" value="44100" name="sampleRate"/>
              <Attribute id="1670" value="16" name="bitDepth"/>
              <Attribute id="1671" value="1" name="gain"/>
              <Attribute id="1672" value="0" name="mixToMono"/>
             </Attributes>
            </AMFile>
            <VMFile id="1673" start="0" duration="598" scalar="1/1" mediaStart="0/1" mediaDuration="598/1" trackNumber="0" src="8" >
             <Transformer>
              <VectorParam id="1674"  name="translation">
               <InterpolatingParam id="1675" interp="linr"  time="-9999999/1" value="0" leadInLength="0/1"  />
               <InterpolatingParam id="1676" interp="linr"  time="-9999999/1" value="0" leadInLength="0/1"  />
               <InterpolatingParam id="1677" interp="linr"  time="-9999999/1" value="0" leadInLength="0/1"  />
              </VectorParam>
              <VectorParam id="1678"  name="rotation">
               <InterpolatingParam id="1679" interp="linr"  time="-9999999/1" value="0" leadInLength="0/1"  />
               <InterpolatingParam id="1680" interp="linr"  time="-9999999/1" value="0" leadInLength="0/1"  />
               <InterpolatingParam id="1681" interp="linr"  time="-9999999/1" value="0" leadInLength="0/1"  />
              </VectorParam>
              <VectorParam id="1682"  name="shear">
               <InterpolatingParam id="1683" interp="linr"  time="-9999999/1" value="0" leadInLength="0/1"  />
               <InterpolatingParam id="1684" interp="linr"  time="-9999999/1" value="0" leadInLength="0/1"  />
               <InterpolatingParam id="1685" interp="linr"  time="-9999999/1" value="0" leadInLength="0/1"  />
              </VectorParam>
              <VectorParam id="1686"  name="scale">
               <InterpolatingParam id="1687" interp="linr"  time="-9999999/1" value="1" leadInLength="0/1"  />
               <InterpolatingParam id="1688" interp="linr"  time="-9999999/1" value="1" leadInLength="0/1"  />
               <InterpolatingParam id="1689" interp="linr"  time="-9999999/1" value="1" leadInLength="0/1"  />
              </VectorParam>
              <VectorParam id="1690"  name="anchor">
               <InterpolatingParam id="1691" interp="linr"  time="0/1" value="0" leadInLength="0/1"  />
               <InterpolatingParam id="1692" interp="linr"  time="0/1" value="0" leadInLength="0/1"  />
               <InterpolatingParam id="1693" interp="linr"  time="0/1" value="0" leadInLength="0/1"  />
              </VectorParam>
             </Transformer>
             <Parameters>
              <VectorParam id="1694"  name="sourceCrop">
               <InterpolatingParam id="1695" interp="linr"  time="0/1" value="0" leadInLength="0/1"  />
               <InterpolatingParam id="1696" interp="linr"  time="0/1" value="0" leadInLength="0/1"  />
               <InterpolatingParam id="1697" interp="linr"  time="0/1" value="0" leadInLength="0/1"  />
               <InterpolatingParam id="1698" interp="linr"  time="0/1" value="0" leadInLength="0/1"  />
              </VectorParam>
              <VectorParam id="1699"  name="geometryCrop">
               <InterpolatingParam id="1700" interp="linr"  time="-9999999/1" value="0" leadInLength="0/1"  />
               <InterpolatingParam id="1701" interp="linr"  time="-9999999/1" value="0" leadInLength="0/1"  />
               <InterpolatingParam id="1702" interp="linr"  time="-9999999/1" value="0" leadInLength="0/1"  />
               <InterpolatingParam id="1703" interp="linr"  time="-9999999/1" value="0" leadInLength="0/1"  />
              </VectorParam>
              <InterpolatingParam id="1704" interp="linr"  time="-9999999/1" value="1" leadInLength="0/1"  name="opacity"/>
             </Parameters>
             <Attributes>
              <Attribute id="1705" value="" name="ident"/>
             </Attributes>
             <ExtraData>
              <Entry key="ZoomPanBin">
               <ZoomPanBin id="1706"  >
                <ZoomPanKeyframes>
                 <ZoomPanKeyframe id="1707" timeRangeEnd="-9999999/1" timeRangeDuration="0/1" interpolaterName=""  />
                </ZoomPanKeyframes>
               </ZoomPanBin>
              </Entry>
             </ExtraData>
            </VMFile>
            <MetaData>
             <entry key="WinSubProjectDisplayName" val=""/>
            </MetaData>
           </UnifiedMedia>
           <UnifiedMedia id="1708"  >
            <AMFile id="1709" start="598" duration="93" scalar="1/1" mediaStart="771/1" mediaDuration="93/1" trackNumber="1" src="8" channelNumber="0,1" >
             <Parameters>
              <InterpolatingParam id="1710" interp="linr"  time="0/1" value="1" leadInLength="0/1"  name="volume"/>
              <Parameter id="1711"  name="captions"/>
             </Parameters>
             <Attributes>
              <Attribute id="1712" value="" name="ident"/>
              <Attribute id="1713" value="44100" name="sampleRate"/>
              <Attribute id="1714" value="16" name="bitDepth"/>
              <Attribute id="1715" value="1" name="gain"/>
              <Attribute id="1716" value="0" name="mixToMono"/>
             </Attributes>
            </AMFile>
            <VMFile id="1717" start="598" duration="93" scalar="1/1" mediaStart="771/1" mediaDuration="93/1" trackNumber="0" src="8" >
             <Transformer>
              <VectorParam id="1718"  name="translation">
               <InterpolatingParam id="1719" interp="linr"  time="-9999999/1" value="0" leadInLength="0/1"  />
               <InterpolatingParam id="1720" interp="linr"  time="-9999999/1" value="0" leadInLength="0/1"  />
               <InterpolatingParam id="1721" interp="linr"  time="-9999999/1" value="0" leadInLength="0/1"  />
              </VectorParam>
              <VectorParam id="1722"  name="rotation">
               <InterpolatingParam id="1723" interp="linr"  time="-9999999/1" value="0" leadInLength="0/1"  />
               <InterpolatingParam id="1724" interp="linr"  time="-9999999/1" value="0" leadInLength="0/1"  />
               <InterpolatingParam id="1725" interp="linr"  time="-9999999/1" value="0" leadInLength="0/1"  />
              </VectorParam>
              <VectorParam id="1726"  name="shear">
               <InterpolatingParam id="1727" interp="linr"  time="-9999999/1" value="0" leadInLength="0/1"  />
               <InterpolatingParam id="1728" interp="linr"  time="-9999999/1" value="0" leadInLength="0/1"  />
               <InterpolatingParam id="1729" interp="linr"  time="-9999999/1" value="0" leadInLength="0/1"  />
              </VectorParam>
              <VectorParam id="1730"  name="scale">
               <InterpolatingParam id="1731" interp="linr"  time="-9999999/1" value="1" leadInLength="0/1"  />
               <InterpolatingParam id="1732" interp="linr"  time="-9999999/1" value="1" leadInLength="0/1"  />
               <InterpolatingParam id="1733" interp="linr"  time="-9999999/1" value="1" leadInLength="0/1"  />
              </VectorParam>
              <VectorParam id="1734"  name="anchor">
               <InterpolatingParam id="1735" interp="linr"  time="0/1" value="0" leadInLength="0/1"  />
               <InterpolatingParam id="1736" interp="linr"  time="0/1" value="0" leadInLength="0/1"  />
               <InterpolatingParam id="1737" interp="linr"  time="0/1" value="0" leadInLength="0/1"  />
              </VectorParam>
             </Transformer>
             <Parameters>
              <VectorParam id="1738"  name="sourceCrop">
               <InterpolatingParam id="1739" interp="linr"  time="0/1" value="0" leadInLength="0/1"  />
               <InterpolatingParam id="1740" interp="linr"  time="0/1" value="0" leadInLength="0/1"  />
               <InterpolatingParam id="1741" interp="linr"  time="0/1" value="0" leadInLength="0/1"  />
               <InterpolatingParam id="1742" interp="linr"  time="0/1" value="0" leadInLength="0/1"  />
              </VectorParam>
              <VectorParam id="1743"  name="geometryCrop">
               <InterpolatingParam id="1744" interp="linr"  time="-9999999/1" value="0" leadInLength="0/1"  />
               <InterpolatingParam id="1745" interp="linr"  time="-9999999/1" value="0" leadInLength="0/1"  />
               <InterpolatingParam id="1746" interp="linr"  time="-9999999/1" value="0" leadInLength="0/1"  />
               <InterpolatingParam id="1747" interp="linr"  time="-9999999/1" value="0" leadInLength="0/1"  />
              </VectorParam>
              <InterpolatingParam id="1748" interp="linr"  time="-9999999/1" value="1" leadInLength="0/1"  name="opacity"/>
             </Parameters>
             <Attributes>
              <Attribute id="1749" value="" name="ident"/>
             </Attributes>
             <ExtraData>
              <Entry key="ZoomPanBin">
               <ZoomPanBin id="1750"  >
                <ZoomPanKeyframes>
                 <ZoomPanKeyframe id="1751" timeRangeEnd="-9999999/1" timeRangeDuration="0/1" interpolaterName=""  />
                </ZoomPanKeyframes>
               </ZoomPanBin>
              </Entry>
             </ExtraData>
            </VMFile>
            <MetaData>
             <entry key="WinSubProjectDisplayName" val=""/>
            </MetaData>
           </UnifiedMedia>
          </Medias>
         </GenericTrack>
        </StitchedMedia>
        <StitchedMedia id="1752" start="969" duration="3" scalar="1/1" mediaStart="430/1" mediaDuration="3/1" minMediaStart="0/1" >
         <Transformer>
          <VectorParam id="1753"  name="translation">
           <InterpolatingParam id="1754" interp="linr"  time="-9999999/1" value="0" leadInLength="0/1"  />
           <InterpolatingParam id="1755" interp="linr"  time="-9999999/1" value="0" leadInLength="0/1"  />
           <InterpolatingParam id="1756" interp="linr"  time="-9999999/1" value="0" leadInLength="0/1"  />
          </VectorParam>
          <VectorParam id="1757"  name="rotation">
           <InterpolatingParam id="1758" interp="linr"  time="-9999999/1" value="0" leadInLength="0/1"  />
           <InterpolatingParam id="1759" interp="linr"  time="-9999999/1" value="0" leadInLength="0/1"  />
           <InterpolatingParam id="1760" interp="linr"  time="-9999999/1" value="0" leadInLength="0/1"  />
          </VectorParam>
          <VectorParam id="1761"  name="shear">
           <InterpolatingParam id="1762" interp="linr"  time="-9999999/1" value="0" leadInLength="0/1"  />
           <InterpolatingParam id="1763" interp="linr"  time="-9999999/1" value="0" leadInLength="0/1"  />
           <InterpolatingParam id="1764" interp="linr"  time="-9999999/1" value="0" leadInLength="0/1"  />
          </VectorParam>
          <VectorParam id="1765"  name="scale">
           <InterpolatingParam id="1766" interp="linr"  time="-9999999/1" value="0.59999999999999998" leadInLength="0/1"  />
           <InterpolatingParam id="1767" interp="linr"  time="-9999999/1" value="0.59999999999999998" leadInLength="0/1"  />
           <InterpolatingParam id="1768" interp="linr"  time="-9999999/1" value="1" leadInLength="0/1"  />
          </VectorParam>
          <VectorParam id="1769"  name="anchor">
           <InterpolatingParam id="1770" interp="linr"  time="0/1" value="0" leadInLength="0/1"  />
           <InterpolatingParam id="1771" interp="linr"  time="0/1" value="0" leadInLength="0/1"  />
           <InterpolatingParam id="1772" interp="linr"  time="0/1" value="0" leadInLength="0/1"  />
          </VectorParam>
         </Transformer>
         <Parameters>
          <VectorParam id="1773"  name="sourceCrop">
           <InterpolatingParam id="1774" interp="linr"  time="0/1" value="0" leadInLength="0/1"  />
           <InterpolatingParam id="1775" interp="linr"  time="0/1" value="0" leadInLength="0/1"  />
           <InterpolatingParam id="1776" interp="linr"  time="0/1" value="0" leadInLength="0/1"  />
           <InterpolatingParam id="1777" interp="linr"  time="0/1" value="0" leadInLength="0/1"  />
          </VectorParam>
          <VectorParam id="1778"  name="geometryCrop">
           <InterpolatingParam id="1779" interp="linr"  time="-9999999/1" value="0" leadInLength="0/1"  />
           <InterpolatingParam id="1780" interp="linr"  time="-9999999/1" value="0" leadInLength="0/1"  />
           <InterpolatingParam id="1781" interp="linr"  time="-9999999/1" value="0" leadInLength="0/1"  />
           <InterpolatingParam id="1782" interp="linr"  time="-9999999/1" value="0" leadInLength="0/1"  />
          </VectorParam>
          <InterpolatingParam id="1783" interp="linr"  time="-9999999/1" value="1" leadInLength="0/1"  name="opacity"/>
          <InterpolatingParam id="1784" interp="linr"  time="0/1" value="1" leadInLength="0/1"  name="cursorOpacity"/>
          <InterpolatingParam id="1785" interp="linr"  time="0/1" value="1" leadInLength="0/1"  name="cursorScale"/>
          <InterpolatingParam id="1786" interp="linr"  time="0/1" value="1" leadInLength="0/1"  name="volume"/>
          <Parameter id="1787"  name="captions"/>
         </Parameters>
         <Attributes>
          <Attribute id="1788" value="" name="ident"/>
          <Attribute id="1789" value="0" name="mixToMono"/>
         </Attributes>
         <MetaData>
          <entry key="WinSubProjectDisplayName" val=""/>
         </MetaData>
         <ExtraData>
          <Entry key="ZoomPanBin">
           <ZoomPanBin id="1790"  >
            <ZoomPanKeyframes>
             <ZoomPanKeyframe id="1791" timeRangeEnd="-9999999/1" timeRangeDuration="0/1" interpolaterName=""  />
            </ZoomPanKeyframes>
           </ZoomPanBin>
          </Entry>
          <Entry key="CursorEffectBin">
           <CursorEffectBin id="1792"  >
            <CursorEffectKeyframes>
            </CursorEffectKeyframes>
           </CursorEffectBin>
          </Entry>
         </ExtraData>
         <GenericTrack id="1793"  >
          <Attributes>
           <Attribute id="1794" value="" name="ident"/>
           <Attribute id="1795" value="0" name="audioMuted"/>
           <Attribute id="1796" value="0" name="videoHidden"/>
          </Attributes>
          <MetaData>
           <entry key="IsLocked" val="False"/>
           <entry key="WinTrackHeight" val="0"/>
          </MetaData>
          <Medias>
           <UnifiedMedia id="1797"  >
            <AMFile id="1798" start="0" duration="598" scalar="1/1" mediaStart="0/1" mediaDuration="598/1" trackNumber="1" src="8" channelNumber="0,1" >
             <Parameters>
              <InterpolatingParam id="1799" interp="linr"  time="0/1" value="1" leadInLength="0/1"  name="volume"/>
              <Parameter id="1800"  name="captions"/>
             </Parameters>
             <Attributes>
              <Attribute id="1801" value="" name="ident"/>
              <Attribute id="1802" value="44100" name="sampleRate"/>
              <Attribute id="1803" value="16" name="bitDepth"/>
              <Attribute id="1804" value="1" name="gain"/>
              <Attribute id="1805" value="0" name="mixToMono"/>
             </Attributes>
            </AMFile>
            <VMFile id="1806" start="0" duration="598" scalar="1/1" mediaStart="0/1" mediaDuration="598/1" trackNumber="0" src="8" >
             <Transformer>
              <VectorParam id="1807"  name="translation">
               <InterpolatingParam id="1808" interp="linr"  time="-9999999/1" value="0" leadInLength="0/1"  />
               <InterpolatingParam id="1809" interp="linr"  time="-9999999/1" value="0" leadInLength="0/1"  />
               <InterpolatingParam id="1810" interp="linr"  time="-9999999/1" value="0" leadInLength="0/1"  />
              </VectorParam>
              <VectorParam id="1811"  name="rotation">
               <InterpolatingParam id="1812" interp="linr"  time="-9999999/1" value="0" leadInLength="0/1"  />
               <InterpolatingParam id="1813" interp="linr"  time="-9999999/1" value="0" leadInLength="0/1"  />
               <InterpolatingParam id="1814" interp="linr"  time="-9999999/1" value="0" leadInLength="0/1"  />
              </VectorParam>
              <VectorParam id="1815"  name="shear">
               <InterpolatingParam id="1816" interp="linr"  time="-9999999/1" value="0" leadInLength="0/1"  />
               <InterpolatingParam id="1817" interp="linr"  time="-9999999/1" value="0" leadInLength="0/1"  />
               <InterpolatingParam id="1818" interp="linr"  time="-9999999/1" value="0" leadInLength="0/1"  />
              </VectorParam>
              <VectorParam id="1819"  name="scale">
               <InterpolatingParam id="1820" interp="linr"  time="-9999999/1" value="1" leadInLength="0/1"  />
               <InterpolatingParam id="1821" interp="linr"  time="-9999999/1" value="1" leadInLength="0/1"  />
               <InterpolatingParam id="1822" interp="linr"  time="-9999999/1" value="1" leadInLength="0/1"  />
              </VectorParam>
              <VectorParam id="1823"  name="anchor">
               <InterpolatingParam id="1824" interp="linr"  time="0/1" value="0" leadInLength="0/1"  />
               <InterpolatingParam id="1825" interp="linr"  time="0/1" value="0" leadInLength="0/1"  />
               <InterpolatingParam id="1826" interp="linr"  time="0/1" value="0" leadInLength="0/1"  />
              </VectorParam>
             </Transformer>
             <Parameters>
              <VectorParam id="1827"  name="sourceCrop">
               <InterpolatingParam id="1828" interp="linr"  time="0/1" value="0" leadInLength="0/1"  />
               <InterpolatingParam id="1829" interp="linr"  time="0/1" value="0" leadInLength="0/1"  />
               <InterpolatingParam id="1830" interp="linr"  time="0/1" value="0" leadInLength="0/1"  />
               <InterpolatingParam id="1831" interp="linr"  time="0/1" value="0" leadInLength="0/1"  />
              </VectorParam>
              <VectorParam id="1832"  name="geometryCrop">
               <InterpolatingParam id="1833" interp="linr"  time="-9999999/1" value="0" leadInLength="0/1"  />
               <InterpolatingParam id="1834" interp="linr"  time="-9999999/1" value="0" leadInLength="0/1"  />
               <InterpolatingParam id="1835" interp="linr"  time="-9999999/1" value="0" leadInLength="0/1"  />
               <InterpolatingParam id="1836" interp="linr"  time="-9999999/1" value="0" leadInLength="0/1"  />
              </VectorParam>
              <InterpolatingParam id="1837" interp="linr"  time="-9999999/1" value="1" leadInLength="0/1"  name="opacity"/>
             </Parameters>
             <Attributes>
              <Attribute id="1838" value="" name="ident"/>
             </Attributes>
             <ExtraData>
              <Entry key="ZoomPanBin">
               <ZoomPanBin id="1839"  >
                <ZoomPanKeyframes>
                 <ZoomPanKeyframe id="1840" timeRangeEnd="-9999999/1" timeRangeDuration="0/1" interpolaterName=""  />
                </ZoomPanKeyframes>
               </ZoomPanBin>
              </Entry>
             </ExtraData>
            </VMFile>
            <MetaData>
             <entry key="WinSubProjectDisplayName" val=""/>
            </MetaData>
           </UnifiedMedia>
           <UnifiedMedia id="1841"  >
            <AMFile id="1842" start="598" duration="93" scalar="1/1" mediaStart="771/1" mediaDuration="93/1" trackNumber="1" src="8" channelNumber="0,1" >
             <Parameters>
              <InterpolatingParam id="1843" interp="linr"  time="0/1" value="1" leadInLength="0/1"  name="volume"/>
              <Parameter id="1844"  name="captions"/>
             </Parameters>
             <Attributes>
              <Attribute id="1845" value="" name="ident"/>
              <Attribute id="1846" value="44100" name="sampleRate"/>
              <Attribute id="1847" value="16" name="bitDepth"/>
              <Attribute id="1848" value="1" name="gain"/>
              <Attribute id="1849" value="0" name="mixToMono"/>
             </Attributes>
            </AMFile>
            <VMFile id="1850" start="598" duration="93" scalar="1/1" mediaStart="771/1" mediaDuration="93/1" trackNumber="0" src="8" >
             <Transformer>
              <VectorParam id="1851"  name="translation">
               <InterpolatingParam id="1852" interp="linr"  time="-9999999/1" value="0" leadInLength="0/1"  />
               <InterpolatingParam id="1853" interp="linr"  time="-9999999/1" value="0" leadInLength="0/1"  />
               <InterpolatingParam id="1854" interp="linr"  time="-9999999/1" value="0" leadInLength="0/1"  />
              </VectorParam>
              <VectorParam id="1855"  name="rotation">
               <InterpolatingParam id="1856" interp="linr"  time="-9999999/1" value="0" leadInLength="0/1"  />
               <InterpolatingParam id="1857" interp="linr"  time="-9999999/1" value="0" leadInLength="0/1"  />
               <InterpolatingParam id="1858" interp="linr"  time="-9999999/1" value="0" leadInLength="0/1"  />
              </VectorParam>
              <VectorParam id="1859"  name="shear">
               <InterpolatingParam id="1860" interp="linr"  time="-9999999/1" value="0" leadInLength="0/1"  />
               <InterpolatingParam id="1861" interp="linr"  time="-9999999/1" value="0" leadInLength="0/1"  />
               <InterpolatingParam id="1862" interp="linr"  time="-9999999/1" value="0" leadInLength="0/1"  />
              </VectorParam>
              <VectorParam id="1863"  name="scale">
               <InterpolatingParam id="1864" interp="linr"  time="-9999999/1" value="1" leadInLength="0/1"  />
               <InterpolatingParam id="1865" interp="linr"  time="-9999999/1" value="1" leadInLength="0/1"  />
               <InterpolatingParam id="1866" interp="linr"  time="-9999999/1" value="1" leadInLength="0/1"  />
              </VectorParam>
              <VectorParam id="1867"  name="anchor">
               <InterpolatingParam id="1868" interp="linr"  time="0/1" value="0" leadInLength="0/1"  />
               <InterpolatingParam id="1869" interp="linr"  time="0/1" value="0" leadInLength="0/1"  />
               <InterpolatingParam id="1870" interp="linr"  time="0/1" value="0" leadInLength="0/1"  />
              </VectorParam>
             </Transformer>
             <Parameters>
              <VectorParam id="1871"  name="sourceCrop">
               <InterpolatingParam id="1872" interp="linr"  time="0/1" value="0" leadInLength="0/1"  />
               <InterpolatingParam id="1873" interp="linr"  time="0/1" value="0" leadInLength="0/1"  />
               <InterpolatingParam id="1874" interp="linr"  time="0/1" value="0" leadInLength="0/1"  />
               <InterpolatingParam id="1875" interp="linr"  time="0/1" value="0" leadInLength="0/1"  />
              </VectorParam>
              <VectorParam id="1876"  name="geometryCrop">
               <InterpolatingParam id="1877" interp="linr"  time="-9999999/1" value="0" leadInLength="0/1"  />
               <InterpolatingParam id="1878" interp="linr"  time="-9999999/1" value="0" leadInLength="0/1"  />
               <InterpolatingParam id="1879" interp="linr"  time="-9999999/1" value="0" leadInLength="0/1"  />
               <InterpolatingParam id="1880" interp="linr"  time="-9999999/1" value="0" leadInLength="0/1"  />
              </VectorParam>
              <InterpolatingParam id="1881" interp="linr"  time="-9999999/1" value="1" leadInLength="0/1"  name="opacity"/>
             </Parameters>
             <Attributes>
              <Attribute id="1882" value="" name="ident"/>
             </Attributes>
             <ExtraData>
              <Entry key="ZoomPanBin">
               <ZoomPanBin id="1883"  >
                <ZoomPanKeyframes>
                 <ZoomPanKeyframe id="1884" timeRangeEnd="-9999999/1" timeRangeDuration="0/1" interpolaterName=""  />
                </ZoomPanKeyframes>
               </ZoomPanBin>
              </Entry>
             </ExtraData>
            </VMFile>
            <MetaData>
             <entry key="WinSubProjectDisplayName" val=""/>
            </MetaData>
           </UnifiedMedia>
          </Medias>
         </GenericTrack>
        </StitchedMedia>
        <StitchedMedia id="1885" start="972" duration="3" scalar="1/1" mediaStart="433/1" mediaDuration="3/1" minMediaStart="0/1" >
         <Transformer>
          <VectorParam id="1886"  name="translation">
           <InterpolatingParam id="1887" interp="linr"  time="-9999999/1" value="0" leadInLength="0/1"  />
           <InterpolatingParam id="1888" interp="linr"  time="-9999999/1" value="0" leadInLength="0/1"  />
           <InterpolatingParam id="1889" interp="linr"  time="-9999999/1" value="0" leadInLength="0/1"  />
          </VectorParam>
          <VectorParam id="1890"  name="rotation">
           <InterpolatingParam id="1891" interp="linr"  time="-9999999/1" value="0" leadInLength="0/1"  />
           <InterpolatingParam id="1892" interp="linr"  time="-9999999/1" value="0" leadInLength="0/1"  />
           <InterpolatingParam id="1893" interp="linr"  time="-9999999/1" value="0" leadInLength="0/1"  />
          </VectorParam>
          <VectorParam id="1894"  name="shear">
           <InterpolatingParam id="1895" interp="linr"  time="-9999999/1" value="0" leadInLength="0/1"  />
           <InterpolatingParam id="1896" interp="linr"  time="-9999999/1" value="0" leadInLength="0/1"  />
           <InterpolatingParam id="1897" interp="linr"  time="-9999999/1" value="0" leadInLength="0/1"  />
          </VectorParam>
          <VectorParam id="1898"  name="scale">
           <InterpolatingParam id="1899" interp="linr"  time="-9999999/1" value="0.59999999999999998" leadInLength="0/1"  />
           <InterpolatingParam id="1900" interp="linr"  time="-9999999/1" value="0.59999999999999998" leadInLength="0/1"  />
           <InterpolatingParam id="1901" interp="linr"  time="-9999999/1" value="1" leadInLength="0/1"  />
          </VectorParam>
          <VectorParam id="1902"  name="anchor">
           <InterpolatingParam id="1903" interp="linr"  time="0/1" value="0" leadInLength="0/1"  />
           <InterpolatingParam id="1904" interp="linr"  time="0/1" value="0" leadInLength="0/1"  />
           <InterpolatingParam id="1905" interp="linr"  time="0/1" value="0" leadInLength="0/1"  />
          </VectorParam>
         </Transformer>
         <Parameters>
          <VectorParam id="1906"  name="sourceCrop">
           <InterpolatingParam id="1907" interp="linr"  time="0/1" value="0" leadInLength="0/1"  />
           <InterpolatingParam id="1908" interp="linr"  time="0/1" value="0" leadInLength="0/1"  />
           <InterpolatingParam id="1909" interp="linr"  time="0/1" value="0" leadInLength="0/1"  />
           <InterpolatingParam id="1910" interp="linr"  time="0/1" value="0" leadInLength="0/1"  />
          </VectorParam>
          <VectorParam id="1911"  name="geometryCrop">
           <InterpolatingParam id="1912" interp="linr"  time="-9999999/1" value="0" leadInLength="0/1"  />
           <InterpolatingParam id="1913" interp="linr"  time="-9999999/1" value="0" leadInLength="0/1"  />
           <InterpolatingParam id="1914" interp="linr"  time="-9999999/1" value="0" leadInLength="0/1"  />
           <InterpolatingParam id="1915" interp="linr"  time="-9999999/1" value="0" leadInLength="0/1"  />
          </VectorParam>
          <InterpolatingParam id="1916" interp="linr"  time="-9999999/1" value="1" leadInLength="0/1"  name="opacity"/>
          <InterpolatingParam id="1917" interp="linr"  time="0/1" value="1" leadInLength="0/1"  name="cursorOpacity"/>
          <InterpolatingParam id="1918" interp="linr"  time="0/1" value="1" leadInLength="0/1"  name="cursorScale"/>
          <InterpolatingParam id="1919" interp="linr"  time="0/1" value="1" leadInLength="0/1"  name="volume"/>
          <Parameter id="1920"  name="captions"/>
         </Parameters>
         <Attributes>
          <Attribute id="1921" value="" name="ident"/>
          <Attribute id="1922" value="0" name="mixToMono"/>
         </Attributes>
         <MetaData>
          <entry key="WinSubProjectDisplayName" val=""/>
         </MetaData>
         <ExtraData>
          <Entry key="ZoomPanBin">
           <ZoomPanBin id="1923"  >
            <ZoomPanKeyframes>
             <ZoomPanKeyframe id="1924" timeRangeEnd="-9999999/1" timeRangeDuration="0/1" interpolaterName=""  />
            </ZoomPanKeyframes>
           </ZoomPanBin>
          </Entry>
          <Entry key="CursorEffectBin">
           <CursorEffectBin id="1925"  >
            <CursorEffectKeyframes>
            </CursorEffectKeyframes>
           </CursorEffectBin>
          </Entry>
         </ExtraData>
         <GenericTrack id="1926"  >
          <Attributes>
           <Attribute id="1927" value="" name="ident"/>
           <Attribute id="1928" value="0" name="audioMuted"/>
           <Attribute id="1929" value="0" name="videoHidden"/>
          </Attributes>
          <MetaData>
           <entry key="IsLocked" val="False"/>
           <entry key="WinTrackHeight" val="0"/>
          </MetaData>
          <Medias>
           <UnifiedMedia id="1930"  >
            <AMFile id="1931" start="0" duration="598" scalar="1/1" mediaStart="0/1" mediaDuration="598/1" trackNumber="1" src="8" channelNumber="0,1" >
             <Parameters>
              <InterpolatingParam id="1932" interp="linr"  time="0/1" value="1" leadInLength="0/1"  name="volume"/>
              <Parameter id="1933"  name="captions"/>
             </Parameters>
             <Attributes>
              <Attribute id="1934" value="" name="ident"/>
              <Attribute id="1935" value="44100" name="sampleRate"/>
              <Attribute id="1936" value="16" name="bitDepth"/>
              <Attribute id="1937" value="1" name="gain"/>
              <Attribute id="1938" value="0" name="mixToMono"/>
             </Attributes>
            </AMFile>
            <VMFile id="1939" start="0" duration="598" scalar="1/1" mediaStart="0/1" mediaDuration="598/1" trackNumber="0" src="8" >
             <Transformer>
              <VectorParam id="1940"  name="translation">
               <InterpolatingParam id="1941" interp="linr"  time="-9999999/1" value="0" leadInLength="0/1"  />
               <InterpolatingParam id="1942" interp="linr"  time="-9999999/1" value="0" leadInLength="0/1"  />
               <InterpolatingParam id="1943" interp="linr"  time="-9999999/1" value="0" leadInLength="0/1"  />
              </VectorParam>
              <VectorParam id="1944"  name="rotation">
               <InterpolatingParam id="1945" interp="linr"  time="-9999999/1" value="0" leadInLength="0/1"  />
               <InterpolatingParam id="1946" interp="linr"  time="-9999999/1" value="0" leadInLength="0/1"  />
               <InterpolatingParam id="1947" interp="linr"  time="-9999999/1" value="0" leadInLength="0/1"  />
              </VectorParam>
              <VectorParam id="1948"  name="shear">
               <InterpolatingParam id="1949" interp="linr"  time="-9999999/1" value="0" leadInLength="0/1"  />
               <InterpolatingParam id="1950" interp="linr"  time="-9999999/1" value="0" leadInLength="0/1"  />
               <InterpolatingParam id="1951" interp="linr"  time="-9999999/1" value="0" leadInLength="0/1"  />
              </VectorParam>
              <VectorParam id="1952"  name="scale">
               <InterpolatingParam id="1953" interp="linr"  time="-9999999/1" value="1" leadInLength="0/1"  />
               <InterpolatingParam id="1954" interp="linr"  time="-9999999/1" value="1" leadInLength="0/1"  />
               <InterpolatingParam id="1955" interp="linr"  time="-9999999/1" value="1" leadInLength="0/1"  />
              </VectorParam>
              <VectorParam id="1956"  name="anchor">
               <InterpolatingParam id="1957" interp="linr"  time="0/1" value="0" leadInLength="0/1"  />
               <InterpolatingParam id="1958" interp="linr"  time="0/1" value="0" leadInLength="0/1"  />
               <InterpolatingParam id="1959" interp="linr"  time="0/1" value="0" leadInLength="0/1"  />
              </VectorParam>
             </Transformer>
             <Parameters>
              <VectorParam id="1960"  name="sourceCrop">
               <InterpolatingParam id="1961" interp="linr"  time="0/1" value="0" leadInLength="0/1"  />
               <InterpolatingParam id="1962" interp="linr"  time="0/1" value="0" leadInLength="0/1"  />
               <InterpolatingParam id="1963" interp="linr"  time="0/1" value="0" leadInLength="0/1"  />
               <InterpolatingParam id="1964" interp="linr"  time="0/1" value="0" leadInLength="0/1"  />
              </VectorParam>
              <VectorParam id="1965"  name="geometryCrop">
               <InterpolatingParam id="1966" interp="linr"  time="-9999999/1" value="0" leadInLength="0/1"  />
               <InterpolatingParam id="1967" interp="linr"  time="-9999999/1" value="0" leadInLength="0/1"  />
               <InterpolatingParam id="1968" interp="linr"  time="-9999999/1" value="0" leadInLength="0/1"  />
               <InterpolatingParam id="1969" interp="linr"  time="-9999999/1" value="0" leadInLength="0/1"  />
              </VectorParam>
              <InterpolatingParam id="1970" interp="linr"  time="-9999999/1" value="1" leadInLength="0/1"  name="opacity"/>
             </Parameters>
             <Attributes>
              <Attribute id="1971" value="" name="ident"/>
             </Attributes>
             <ExtraData>
              <Entry key="ZoomPanBin">
               <ZoomPanBin id="1972"  >
                <ZoomPanKeyframes>
                 <ZoomPanKeyframe id="1973" timeRangeEnd="-9999999/1" timeRangeDuration="0/1" interpolaterName=""  />
                </ZoomPanKeyframes>
               </ZoomPanBin>
              </Entry>
             </ExtraData>
            </VMFile>
            <MetaData>
             <entry key="WinSubProjectDisplayName" val=""/>
            </MetaData>
           </UnifiedMedia>
           <UnifiedMedia id="1974"  >
            <AMFile id="1975" start="598" duration="93" scalar="1/1" mediaStart="771/1" mediaDuration="93/1" trackNumber="1" src="8" channelNumber="0,1" >
             <Parameters>
              <InterpolatingParam id="1976" interp="linr"  time="0/1" value="1" leadInLength="0/1"  name="volume"/>
              <Parameter id="1977"  name="captions"/>
             </Parameters>
             <Attributes>
              <Attribute id="1978" value="" name="ident"/>
              <Attribute id="1979" value="44100" name="sampleRate"/>
              <Attribute id="1980" value="16" name="bitDepth"/>
              <Attribute id="1981" value="1" name="gain"/>
              <Attribute id="1982" value="0" name="mixToMono"/>
             </Attributes>
            </AMFile>
            <VMFile id="1983" start="598" duration="93" scalar="1/1" mediaStart="771/1" mediaDuration="93/1" trackNumber="0" src="8" >
             <Transformer>
              <VectorParam id="1984"  name="translation">
               <InterpolatingParam id="1985" interp="linr"  time="-9999999/1" value="0" leadInLength="0/1"  />
               <InterpolatingParam id="1986" interp="linr"  time="-9999999/1" value="0" leadInLength="0/1"  />
               <InterpolatingParam id="1987" interp="linr"  time="-9999999/1" value="0" leadInLength="0/1"  />
              </VectorParam>
              <VectorParam id="1988"  name="rotation">
               <InterpolatingParam id="1989" interp="linr"  time="-9999999/1" value="0" leadInLength="0/1"  />
               <InterpolatingParam id="1990" interp="linr"  time="-9999999/1" value="0" leadInLength="0/1"  />
               <InterpolatingParam id="1991" interp="linr"  time="-9999999/1" value="0" leadInLength="0/1"  />
              </VectorParam>
              <VectorParam id="1992"  name="shear">
               <InterpolatingParam id="1993" interp="linr"  time="-9999999/1" value="0" leadInLength="0/1"  />
               <InterpolatingParam id="1994" interp="linr"  time="-9999999/1" value="0" leadInLength="0/1"  />
               <InterpolatingParam id="1995" interp="linr"  time="-9999999/1" value="0" leadInLength="0/1"  />
              </VectorParam>
              <VectorParam id="1996"  name="scale">
               <InterpolatingParam id="1997" interp="linr"  time="-9999999/1" value="1" leadInLength="0/1"  />
               <InterpolatingParam id="1998" interp="linr"  time="-9999999/1" value="1" leadInLength="0/1"  />
               <InterpolatingParam id="1999" interp="linr"  time="-9999999/1" value="1" leadInLength="0/1"  />
              </VectorParam>
              <VectorParam id="2000"  name="anchor">
               <InterpolatingParam id="2001" interp="linr"  time="0/1" value="0" leadInLength="0/1"  />
               <InterpolatingParam id="2002" interp="linr"  time="0/1" value="0" leadInLength="0/1"  />
               <InterpolatingParam id="2003" interp="linr"  time="0/1" value="0" leadInLength="0/1"  />
              </VectorParam>
             </Transformer>
             <Parameters>
              <VectorParam id="2004"  name="sourceCrop">
               <InterpolatingParam id="2005" interp="linr"  time="0/1" value="0" leadInLength="0/1"  />
               <InterpolatingParam id="2006" interp="linr"  time="0/1" value="0" leadInLength="0/1"  />
               <InterpolatingParam id="2007" interp="linr"  time="0/1" value="0" leadInLength="0/1"  />
               <InterpolatingParam id="2008" interp="linr"  time="0/1" value="0" leadInLength="0/1"  />
              </VectorParam>
              <VectorParam id="2009"  name="geometryCrop">
               <InterpolatingParam id="2010" interp="linr"  time="-9999999/1" value="0" leadInLength="0/1"  />
               <InterpolatingParam id="2011" interp="linr"  time="-9999999/1" value="0" leadInLength="0/1"  />
               <InterpolatingParam id="2012" interp="linr"  time="-9999999/1" value="0" leadInLength="0/1"  />
               <InterpolatingParam id="2013" interp="linr"  time="-9999999/1" value="0" leadInLength="0/1"  />
              </VectorParam>
              <InterpolatingParam id="2014" interp="linr"  time="-9999999/1" value="1" leadInLength="0/1"  name="opacity"/>
             </Parameters>
             <Attributes>
              <Attribute id="2015" value="" name="ident"/>
             </Attributes>
             <ExtraData>
              <Entry key="ZoomPanBin">
               <ZoomPanBin id="2016"  >
                <ZoomPanKeyframes>
                 <ZoomPanKeyframe id="2017" timeRangeEnd="-9999999/1" timeRangeDuration="0/1" interpolaterName=""  />
                </ZoomPanKeyframes>
               </ZoomPanBin>
              </Entry>
             </ExtraData>
            </VMFile>
            <MetaData>
             <entry key="WinSubProjectDisplayName" val=""/>
            </MetaData>
           </UnifiedMedia>
          </Medias>
         </GenericTrack>
        </StitchedMedia>
        <Callout id="2018" start="1304" duration="152" scalar="1/1" mediaStart="135/1" mediaDuration="152/1" >
         <Transformer>
          <VectorParam id="2019"  name="translation">
           <InterpolatingParam id="2020" interp="linr"  time="-9999999/1" value="-5.3887561080045998e-011" leadInLength="0/1"  />
           <InterpolatingParam id="2021" interp="linr"  time="-9999999/1" value="7.6795458880951628e-011" leadInLength="0/1"  />
           <InterpolatingParam id="2022" interp="linr"  time="-9999999/1" value="0" leadInLength="0/1"  />
          </VectorParam>
          <VectorParam id="2023"  name="rotation">
           <InterpolatingParam id="2024" interp="linr"  time="-9999999/1" value="0" leadInLength="0/1"  />
           <InterpolatingParam id="2025" interp="linr"  time="-9999999/1" value="0" leadInLength="0/1"  />
           <InterpolatingParam id="2026" interp="linr"  time="-9999999/1" value="0" leadInLength="0/1"  />
          </VectorParam>
          <VectorParam id="2027"  name="shear">
           <InterpolatingParam id="2028" interp="linr"  time="-9999999/1" value="0" leadInLength="0/1"  />
           <InterpolatingParam id="2029" interp="linr"  time="-9999999/1" value="0" leadInLength="0/1"  />
           <InterpolatingParam id="2030" interp="linr"  time="-9999999/1" value="0" leadInLength="0/1"  />
          </VectorParam>
          <VectorParam id="2031"  name="scale">
           <InterpolatingParam id="2032" interp="linr"  time="-9999999/1" value="4.183006535947654" leadInLength="0/1"  />
           <InterpolatingParam id="2033" interp="linr"  time="-9999999/1" value="3.1718061674007987" leadInLength="0/1"  />
           <InterpolatingParam id="2034" interp="linr"  time="-9999999/1" value="1" leadInLength="0/1"  />
          </VectorParam>
          <VectorParam id="2035"  name="anchor">
           <InterpolatingParam id="2036" interp="linr"  time="0/1" value="0" leadInLength="0/1"  />
           <InterpolatingParam id="2037" interp="linr"  time="0/1" value="0" leadInLength="0/1"  />
           <InterpolatingParam id="2038" interp="linr"  time="0/1" value="0" leadInLength="0/1"  />
          </VectorParam>
         </Transformer>
         <Parameters>
          <VectorParam id="2039"  name="sourceCrop">
           <InterpolatingParam id="2040" interp="linr"  time="0/1" value="0" leadInLength="0/1"  />
           <InterpolatingParam id="2041" interp="linr"  time="0/1" value="0" leadInLength="0/1"  />
           <InterpolatingParam id="2042" interp="linr"  time="0/1" value="0" leadInLength="0/1"  />
           <InterpolatingParam id="2043" interp="linr"  time="0/1" value="0" leadInLength="0/1"  />
          </VectorParam>
          <VectorParam id="2044"  name="geometryCrop">
           <InterpolatingParam id="2045" interp="linr"  time="-9999999/1" value="0" leadInLength="0/1"  />
           <InterpolatingParam id="2046" interp="linr"  time="-9999999/1" value="0" leadInLength="0/1"  />
           <InterpolatingParam id="2047" interp="linr"  time="-9999999/1" value="0" leadInLength="0/1"  />
           <InterpolatingParam id="2048" interp="linr"  time="-9999999/1" value="0" leadInLength="0/1"  />
          </VectorParam>
          <InterpolatingParam id="2049" interp="linr"  time="-9999999/1" value="1" leadInLength="0/1"  name="opacity"/>
         </Parameters>
         <Effects>
          <GenericEffect id="2050" name = "DropShadow" >
           <Parameters>
           <InterpolatingParam id="2051" interp="linr"  time="0/1" value="315" leadInLength="0/1"   name="angle"/>
           <InterpolatingParam id="2052" interp="linr"  time="0/1" value="2" leadInLength="0/1"   name="blur"/>
           <Parameter id="2053"   name="enabled">
            <Keyframes>
            <Keyframe id="2054"  time="0/1" value="1" leadInLength="0/1"  />
            </Keyframes>
           </Parameter>
           <InterpolatingParam id="2055" interp="linr"  time="0/1" value="4" leadInLength="0/1"   name="offset"/>
           <InterpolatingParam id="2056" interp="linr"  time="0/1" value="0.75" leadInLength="0/1"   name="opacity"/>
           </Parameters>
          </GenericEffect>
         </Effects>
         <Attributes>
          <Attribute id="2057"  name="vectorNode">
           <VectorNode id="2058" kind="TypeWinXML"  >
            <DoubleParameters>
             <InterpolatingParam id="2059" interp="linr"  time="0/1" value="-1" leadInLength="0/1"  name="CutoutPercentage"/>
             <InterpolatingParam id="2060" interp="linr"  time="0/1" value="30" leadInLength="0/1"  name="RoundedRectRadius"/>
             <InterpolatingParam id="2061" interp="linr"  time="0/1" value="5" leadInLength="0/1"  name="Style"/>
             <InterpolatingParam id="2062" interp="linr"  time="0/1" value="215" leadInLength="0/1"  name="borderColorBlue"/>
             <InterpolatingParam id="2063" interp="linr"  time="0/1" value="215" leadInLength="0/1"  name="borderColorGreen"/>
             <InterpolatingParam id="2064" interp="linr"  time="0/1" value="215" leadInLength="0/1"  name="borderColorRed"/>
             <InterpolatingParam id="2065" interp="linr"  time="0/1" value="0" leadInLength="0/1"  name="borderState"/>
             <InterpolatingParam id="2066" interp="linr"  time="0/1" value="5" leadInLength="0/1"  name="borderWidth"/>
             <InterpolatingParam id="2067" interp="linr"  time="0/1" value="0" leadInLength="0/1"  name="dimensionTime"/>
             <InterpolatingParam id="2068" interp="linr"  time="0/1" value="224" leadInLength="0/1"  name="fillColorBlue"/>
             <InterpolatingParam id="2069" interp="linr"  time="0/1" value="95" leadInLength="0/1"  name="fillColorGreen"/>
             <InterpolatingParam id="2070" interp="linr"  time="0/1" value="0" leadInLength="0/1"  name="fillColorRed"/>
             <InterpolatingParam id="2071" interp="linr"  time="0/1" value="0" leadInLength="0/1"  name="fillState"/>
             <InterpolatingParam id="2072" interp="linr"  time="0/1" value="0" leadInLength="0/1"  name="flipOnXAxis"/>
             <InterpolatingParam id="2073" interp="linr"  time="0/1" value="0" leadInLength="0/1"  name="flipOnYAxis"/>
             <InterpolatingParam id="2074" interp="linr"  time="0/1" value="227" leadInLength="0/1"  name="height"/>
             <InterpolatingParam id="2075" interp="linr"  time="0/1" value="0" leadInLength="0/1"  name="textDropShadow"/>
             <InterpolatingParam id="2076" interp="linr"  time="0/1" value="0" leadInLength="0/1"  name="textIgnoresOpacity"/>
             <InterpolatingParam id="2077" interp="linr"  time="0/1" value="0.86784140969162993" leadInLength="0/1"  name="textRectHeight"/>
             <InterpolatingParam id="2078" interp="linr"  time="0/1" value="0.90196078431372551" leadInLength="0/1"  name="textRectWidth"/>
             <InterpolatingParam id="2079" interp="linr"  time="0/1" value="0.049019607843137254" leadInLength="0/1"  name="textRectX"/>
             <InterpolatingParam id="2080" interp="linr"  time="0/1" value="0.066079295154185022" leadInLength="0/1"  name="textRectY"/>
             <InterpolatingParam id="2081" interp="linr"  time="0/1" value="0" leadInLength="0/1"  name="textVerticalAlign"/>
             <InterpolatingParam id="2082" interp="linr"  time="0/1" value="306" leadInLength="0/1"  name="width"/>
            </DoubleParameters>
            <StringParameters>
             <Parameter id="2083"  name="VectorPath">
              <Keyframes>
              <Keyframe id="2084"  time="0/1" value="M10,0h286c5.521,0,10,4.477,10,10v207c0,5.521-4.479,10-10,10H10c-5.523,0-10-4.479-10-10V10&#xa;&#x9;C0,4.477,4.477,0,10,0z" leadInLength="0/1"  />
              </Keyframes>
             </Parameter>
             <Parameter id="2085"  name="filename">
              <Keyframes>
              <Keyframe id="2086"  time="0/1" value="C:\Program Files (x86)\Camtasia Studio 8\Media\Studio\Callouts\roundedrectangle.xml" leadInLength="0/1"  />
              </Keyframes>
             </Parameter>
             <Parameter id="2087"  name="name">
              <Keyframes>
              <Keyframe id="2088"  time="0/1" value="Filled Rounded Rectangle" leadInLength="0/1"  />
              </Keyframes>
             </Parameter>
             <Parameter id="2089"  name="text">
              <Keyframes>
              <Keyframe id="2090"  time="0/1" value="{\rtf1\ansi\ansicpg1252\deff0\deflang1033{\fonttbl{\f0\fswiss\fprq2\fcharset0 Arial;}}&#xD;&#xa;{\colortbl ;\red255\green255\blue255;}&#xD;&#xa;\viewkind4\uc1\pard\qc\cf1\f0\fs144 Angular Momentor\fs32\par&#xD;&#xa;\fs72 Lewis Jones\par&#xD;&#xa;\par&#xD;&#xa;\fs36 Gamers To Engineers Project\par&#xD;&#xa;http://divf.eng.cam.ac.uk/gam2eng/Main/WebHome\fs96\par&#xD;&#xa;}&#xD;&#xa;" leadInLength="0/1"  />
              </Keyframes>
             </Parameter>
             <Parameter id="2091"  name="xmlContent">
              <Keyframes>
              <Keyframe id="2092"  time="0/1" value="﻿&lt;?xml version=&quot;1.0&quot;?&gt;&#xa;&#xa;&lt;Overlay version=&quot;1.0.1&quot;&gt;&#xa;&#xa;&lt;Overlay_Filename&gt;roundedrectangle.png&lt;/Overlay_Filename&gt;&#xa;&lt;Overlay_Name&gt;Filled Rounded Rectangle&lt;/Overlay_Name&gt;&#xa;&lt;Text_Top&gt;15&lt;/Text_Top&gt;&#xa;&lt;Text_Left&gt;15&lt;/Text_Left&gt;&#xa;&lt;Text_Bottom&gt;15&lt;/Text_Bottom&gt;&#xa;&lt;Text_Right&gt;15&lt;/Text_Right&gt;&#xa;&lt;Fill_Color&gt;1&lt;/Fill_Color&gt;&#xa;&lt;Border_Color&gt;1&lt;/Border_Color&gt;&#xa;&lt;Initial_Fill_Color&gt;0xffe05f00&lt;/Initial_Fill_Color&gt;&#xa;&lt;Initial_Border_Color&gt;0xffd7d7d7&lt;/Initial_Border_Color&gt;&#xa;&lt;VectorProps&gt;&#xa;&lt;figure&gt;&#xa;&lt;svg&gt;M10,0h286c5.521,0,10,4.477,10,10v207c0,5.521-4.479,10-10,10H10c-5.523,0-10-4.479-10-10V10&#xa;&#x9;C0,4.477,4.477,0,10,0z&lt;/svg&gt;&#xa;&lt;/figure&gt;&#xa;&lt;borderWidth&gt;5.00&lt;/borderWidth&gt;&#xa;&lt;seamY&gt;-1&lt;/seamY&gt;&#xa;&lt;roundedRectRadius&gt;30&lt;/roundedRectRadius&gt;&#xa;&lt;shapeWidth&gt;306&lt;/shapeWidth&gt;&#xa;&lt;shapeHeight&gt;227&lt;/shapeHeight&gt;&#xa;&lt;/VectorProps&gt;&#xa;&lt;Style&gt;5&lt;/Style&gt;&#xa;&lt;/Overlay&gt;" leadInLength="0/1"  />
              </Keyframes>
             </Parameter>
            </StringParameters>
           </VectorNode>
          </Attribute>
         </Attributes>
         <MetaData>
          <entry key="WinSubProjectDisplayName" val=""/>
         </MetaData>
         <LeftEdgeMods length="15/1" groupName="OpacityFade">
          <EdgeMod parameter="2049">
           <FadeInFunc id="2093"  />
          </EdgeMod>
         </LeftEdgeMods>
         <RightEdgeMods length="0/1" groupName="OpacityFade">
          <EdgeMod parameter="2049">
           <FadeOutFunc id="2094"  />
          </EdgeMod>
         </RightEdgeMods>
         <ExtraData>
          <Entry key="ZoomPanBin">
           <ZoomPanBin id="2095"  >
            <ZoomPanKeyframes>
             <ZoomPanKeyframe id="2096" timeRangeEnd="-9999999/1" timeRangeDuration="0/1" interpolaterName="linr"  />
            </ZoomPanKeyframes>
           </ZoomPanBin>
          </Entry>
         </ExtraData>
        </Callout>
       </Medias>
      </GenericTrack>
      <GenericTrack id="2097"  >
       <Attributes>
        <Attribute id="2098" value="" name="ident"/>
        <Attribute id="2099" value="0" name="audioMuted"/>
        <Attribute id="2100" value="0" name="videoHidden"/>
       </Attributes>
       <MetaData>
        <entry key="IsLocked" val="False"/>
        <entry key="WinTrackHeight" val="100.18181818181819"/>
       </MetaData>
       <Medias>
       </Medias>
      </GenericTrack>
     </Tracks>
    </GenericMixer>
   <CaptionAttributes id="2101"  >
    <Attribute id="2102" value="1" name="captionsEnabled"/>
    <Attribute id="2103" value="Arial" name="captionsFontName"/>
    <Attribute id="2104" value="28" name="captionsFontSize"/>
    <Attribute id="2105" value="(0,0,0,255)" name="captionsBackgroundColor"/>
    <Attribute id="2106" value="(255,255,255,255)" name="captionsForegroundColor"/>
    <Attribute id="2107" value="en" name="lang"/>
    <Attribute id="2108" value="0" name="captionsAlignment"/>
    <Attribute id="2109" value="1" name="captionsDefaultFontSize"/>
    <Attribute id="2110" value="0.5" name="captionsOpacity"/>
    <Attribute id="2111" value="1" name="captionsBackgroundEnabled"/>
    <Attribute id="2112" value="1" name="captionsBackgroundOnlyAroundText"/>
   </CaptionAttributes>
   <Parameters>
    <VectorParam id="2113"  name="eyePosition">
     <InterpolatingParam id="2114" interp="linr"  time="0/1" value="0" leadInLength="0/1"  />
     <InterpolatingParam id="2115" interp="linr"  time="0/1" value="0" leadInLength="0/1"  />
     <InterpolatingParam id="2116" interp="linr"  time="0/1" value="3000" leadInLength="0/1"  />
    </VectorParam>
    <VectorParam id="2117"  name="eyeLookAtPosition">
     <InterpolatingParam id="2118" interp="linr"  time="0/1" value="0" leadInLength="0/1"  />
     <InterpolatingParam id="2119" interp="linr"  time="0/1" value="0" leadInLength="0/1"  />
     <InterpolatingParam id="2120" interp="linr"  time="0/1" value="0" leadInLength="0/1"  />
    </VectorParam>
    <VectorParam id="2121"  name="eyeUpVector">
     <InterpolatingParam id="2122" interp="linr"  time="0/1" value="0" leadInLength="0/1"  />
     <InterpolatingParam id="2123" interp="linr"  time="0/1" value="1" leadInLength="0/1"  />
     <InterpolatingParam id="2124" interp="linr"  time="0/1" value="0" leadInLength="0/1"  />
    </VectorParam>
    <InterpolatingParam id="2125" interp="linr"  time="0/1" value="0.23885785" leadInLength="0/1"  name="fov"/>
    <InterpolatingParam id="2126" interp="linr"  time="0/1" value="1.5" leadInLength="0/1"  name="nearClipDistance"/>
    <InterpolatingParam id="2127" interp="linr"  time="0/1" value="6000" leadInLength="0/1"  name="farClipDistance"/>
   </Parameters>
  </Timeline>
 </Project>
</GoProject>
</CSMLData>

</Project_Data>
